%TF.GenerationSoftware,KiCad,Pcbnew,7.0.9*%
%TF.CreationDate,2023-12-28T16:55:38-08:00*%
%TF.ProjectId,breadboard audio breakout,62726561-6462-46f6-9172-642061756469,rev?*%
%TF.SameCoordinates,Original*%
%TF.FileFunction,Drillmap*%
%TF.FilePolarity,Positive*%
%FSLAX45Y45*%
G04 Gerber Fmt 4.5, Leading zero omitted, Abs format (unit mm)*
G04 Created by KiCad (PCBNEW 7.0.9) date 2023-12-28 16:55:38*
%MOMM*%
%LPD*%
G01*
G04 APERTURE LIST*
%ADD10C,0.100000*%
%ADD11C,0.200000*%
%ADD12C,0.127000*%
%ADD13C,0.220000*%
G04 APERTURE END LIST*
D10*
X12131040Y-6756400D02*
X13337540Y-6756400D01*
X13337540Y-14696440D02*
X12148820Y-14696440D01*
X13337540Y-12217400D02*
G75*
G03*
X13436600Y-12118340I0J99060D01*
G01*
X13337540Y-15240000D02*
G75*
G03*
X13436600Y-15140940I0J99060D01*
G01*
X13337540Y-9235440D02*
X12131040Y-9235440D01*
X6723380Y-4802066D02*
X6723380Y-4810760D01*
X13286740Y-15240000D02*
X13337540Y-15240000D01*
X13337540Y-6273800D02*
X13301980Y-6273800D01*
X12148820Y-12217400D02*
G75*
G03*
X12049760Y-12316460I0J-99060D01*
G01*
X6822440Y-16319500D02*
X13088620Y-16319500D01*
X13299440Y-9715500D02*
G75*
G03*
X13200380Y-9814560I0J-99060D01*
G01*
X13337540Y-6756400D02*
G75*
G03*
X13436600Y-6657340I0J99060D01*
G01*
X13436600Y-9334500D02*
G75*
G03*
X13337540Y-9235440I-99060J0D01*
G01*
X13187680Y-16220440D02*
X13187680Y-15339060D01*
X13337540Y-9715500D02*
G75*
G03*
X13436600Y-9616440I0J99060D01*
G01*
X12049760Y-14597380D02*
X12049760Y-12316460D01*
X12031980Y-9136380D02*
X12031980Y-6855460D01*
X13436600Y-15140940D02*
X13436600Y-14795500D01*
X13202920Y-6174740D02*
X13202920Y-4810760D01*
X13299440Y-9715500D02*
X13337540Y-9715500D01*
X13337540Y-11734800D02*
X13299440Y-11734800D01*
X13436600Y-9616440D02*
X13436600Y-9334500D01*
X13286740Y-15240000D02*
G75*
G03*
X13187680Y-15339060I0J-99060D01*
G01*
X13436600Y-6657340D02*
X13436600Y-6372860D01*
X6723380Y-16220440D02*
G75*
G03*
X6822440Y-16319500I99060J0D01*
G01*
X6723380Y-4810760D02*
X6723380Y-16220440D01*
X13202924Y-4802066D02*
G75*
G03*
X13103860Y-4703006I-99064J-4D01*
G01*
X12031980Y-9136380D02*
G75*
G03*
X12131040Y-9235440I99060J0D01*
G01*
X12148820Y-12217400D02*
X13337540Y-12217400D01*
X13200380Y-11635740D02*
X13200380Y-9814560D01*
X6822440Y-4703010D02*
G75*
G03*
X6723380Y-4802066I0J-99060D01*
G01*
X12049760Y-14597380D02*
G75*
G03*
X12148820Y-14696440I99060J0D01*
G01*
X13436600Y-6372860D02*
G75*
G03*
X13337540Y-6273800I-99060J0D01*
G01*
X13202920Y-4802066D02*
X13202920Y-4810760D01*
X13103860Y-4703006D02*
X6822440Y-4703006D01*
X12131040Y-6756400D02*
G75*
G03*
X12031980Y-6855460I0J-99060D01*
G01*
X13200380Y-11635740D02*
G75*
G03*
X13299440Y-11734800I99060J0D01*
G01*
X13436600Y-11833860D02*
G75*
G03*
X13337540Y-11734800I-99060J0D01*
G01*
X13436600Y-14795500D02*
G75*
G03*
X13337540Y-14696440I-99060J0D01*
G01*
X13202920Y-6174740D02*
G75*
G03*
X13301980Y-6273800I99060J0D01*
G01*
X13436600Y-12118340D02*
X13436600Y-11833860D01*
X13088620Y-16319500D02*
G75*
G03*
X13187680Y-16220440I0J99060D01*
G01*
D11*
D12*
X7609000Y-6120050D02*
X7736000Y-6247050D01*
X7736000Y-6120050D02*
X7609000Y-6247050D01*
X7609000Y-7320048D02*
X7736000Y-7447048D01*
X7736000Y-7320048D02*
X7609000Y-7447048D01*
X9971202Y-7409600D02*
X10098202Y-7536600D01*
X10098202Y-7409600D02*
X9971202Y-7536600D01*
X11171200Y-7409600D02*
X11298200Y-7536600D01*
X11298200Y-7409600D02*
X11171200Y-7536600D01*
D13*
X7376880Y-8797692D02*
G75*
G03*
X7376880Y-8797692I-110000J0D01*
G01*
X7380880Y-12480692D02*
G75*
G03*
X7380880Y-12480692I-110000J0D01*
G01*
X7380880Y-14322192D02*
G75*
G03*
X7380880Y-14322192I-110000J0D01*
G01*
X7381380Y-10639192D02*
G75*
G03*
X7381380Y-10639192I-110000J0D01*
G01*
X8256880Y-8797692D02*
G75*
G03*
X8256880Y-8797692I-110000J0D01*
G01*
X8260880Y-12480692D02*
G75*
G03*
X8260880Y-12480692I-110000J0D01*
G01*
X8260880Y-14322192D02*
G75*
G03*
X8260880Y-14322192I-110000J0D01*
G01*
X8261380Y-10639192D02*
G75*
G03*
X8261380Y-10639192I-110000J0D01*
G01*
D11*
X6979157Y-16635984D02*
X6979157Y-16435984D01*
X6979157Y-16435984D02*
X7026776Y-16435984D01*
X7026776Y-16435984D02*
X7055347Y-16445508D01*
X7055347Y-16445508D02*
X7074395Y-16464555D01*
X7074395Y-16464555D02*
X7083919Y-16483603D01*
X7083919Y-16483603D02*
X7093442Y-16521698D01*
X7093442Y-16521698D02*
X7093442Y-16550269D01*
X7093442Y-16550269D02*
X7083919Y-16588365D01*
X7083919Y-16588365D02*
X7074395Y-16607412D01*
X7074395Y-16607412D02*
X7055347Y-16626460D01*
X7055347Y-16626460D02*
X7026776Y-16635984D01*
X7026776Y-16635984D02*
X6979157Y-16635984D01*
X7179157Y-16635984D02*
X7179157Y-16502650D01*
X7179157Y-16540746D02*
X7188681Y-16521698D01*
X7188681Y-16521698D02*
X7198204Y-16512174D01*
X7198204Y-16512174D02*
X7217252Y-16502650D01*
X7217252Y-16502650D02*
X7236300Y-16502650D01*
X7302966Y-16635984D02*
X7302966Y-16502650D01*
X7302966Y-16435984D02*
X7293442Y-16445508D01*
X7293442Y-16445508D02*
X7302966Y-16455031D01*
X7302966Y-16455031D02*
X7312490Y-16445508D01*
X7312490Y-16445508D02*
X7302966Y-16435984D01*
X7302966Y-16435984D02*
X7302966Y-16455031D01*
X7426776Y-16635984D02*
X7407728Y-16626460D01*
X7407728Y-16626460D02*
X7398204Y-16607412D01*
X7398204Y-16607412D02*
X7398204Y-16435984D01*
X7531538Y-16635984D02*
X7512490Y-16626460D01*
X7512490Y-16626460D02*
X7502966Y-16607412D01*
X7502966Y-16607412D02*
X7502966Y-16435984D01*
X7760109Y-16635984D02*
X7760109Y-16435984D01*
X7760109Y-16435984D02*
X7826776Y-16578841D01*
X7826776Y-16578841D02*
X7893442Y-16435984D01*
X7893442Y-16435984D02*
X7893442Y-16635984D01*
X8074395Y-16635984D02*
X8074395Y-16531222D01*
X8074395Y-16531222D02*
X8064871Y-16512174D01*
X8064871Y-16512174D02*
X8045823Y-16502650D01*
X8045823Y-16502650D02*
X8007728Y-16502650D01*
X8007728Y-16502650D02*
X7988681Y-16512174D01*
X8074395Y-16626460D02*
X8055347Y-16635984D01*
X8055347Y-16635984D02*
X8007728Y-16635984D01*
X8007728Y-16635984D02*
X7988681Y-16626460D01*
X7988681Y-16626460D02*
X7979157Y-16607412D01*
X7979157Y-16607412D02*
X7979157Y-16588365D01*
X7979157Y-16588365D02*
X7988681Y-16569317D01*
X7988681Y-16569317D02*
X8007728Y-16559793D01*
X8007728Y-16559793D02*
X8055347Y-16559793D01*
X8055347Y-16559793D02*
X8074395Y-16550269D01*
X8169633Y-16502650D02*
X8169633Y-16702650D01*
X8169633Y-16512174D02*
X8188681Y-16502650D01*
X8188681Y-16502650D02*
X8226776Y-16502650D01*
X8226776Y-16502650D02*
X8245823Y-16512174D01*
X8245823Y-16512174D02*
X8255347Y-16521698D01*
X8255347Y-16521698D02*
X8264871Y-16540746D01*
X8264871Y-16540746D02*
X8264871Y-16597888D01*
X8264871Y-16597888D02*
X8255347Y-16616936D01*
X8255347Y-16616936D02*
X8245823Y-16626460D01*
X8245823Y-16626460D02*
X8226776Y-16635984D01*
X8226776Y-16635984D02*
X8188681Y-16635984D01*
X8188681Y-16635984D02*
X8169633Y-16626460D01*
X8350585Y-16616936D02*
X8360109Y-16626460D01*
X8360109Y-16626460D02*
X8350585Y-16635984D01*
X8350585Y-16635984D02*
X8341062Y-16626460D01*
X8341062Y-16626460D02*
X8350585Y-16616936D01*
X8350585Y-16616936D02*
X8350585Y-16635984D01*
X8350585Y-16512174D02*
X8360109Y-16521698D01*
X8360109Y-16521698D02*
X8350585Y-16531222D01*
X8350585Y-16531222D02*
X8341062Y-16521698D01*
X8341062Y-16521698D02*
X8350585Y-16512174D01*
X8350585Y-16512174D02*
X8350585Y-16531222D01*
D12*
X6591380Y-16901000D02*
X6718380Y-17028000D01*
X6718380Y-16901000D02*
X6591380Y-17028000D01*
D11*
X7083919Y-17055984D02*
X6969633Y-17055984D01*
X7026776Y-17055984D02*
X7026776Y-16855984D01*
X7026776Y-16855984D02*
X7007728Y-16884555D01*
X7007728Y-16884555D02*
X6988681Y-16903603D01*
X6988681Y-16903603D02*
X6969633Y-16913127D01*
X7169633Y-17036936D02*
X7179157Y-17046460D01*
X7179157Y-17046460D02*
X7169633Y-17055984D01*
X7169633Y-17055984D02*
X7160109Y-17046460D01*
X7160109Y-17046460D02*
X7169633Y-17036936D01*
X7169633Y-17036936D02*
X7169633Y-17055984D01*
X7255347Y-16875031D02*
X7264871Y-16865508D01*
X7264871Y-16865508D02*
X7283919Y-16855984D01*
X7283919Y-16855984D02*
X7331538Y-16855984D01*
X7331538Y-16855984D02*
X7350585Y-16865508D01*
X7350585Y-16865508D02*
X7360109Y-16875031D01*
X7360109Y-16875031D02*
X7369633Y-16894079D01*
X7369633Y-16894079D02*
X7369633Y-16913127D01*
X7369633Y-16913127D02*
X7360109Y-16941698D01*
X7360109Y-16941698D02*
X7245823Y-17055984D01*
X7245823Y-17055984D02*
X7369633Y-17055984D01*
X7436300Y-16855984D02*
X7569633Y-16855984D01*
X7569633Y-16855984D02*
X7483919Y-17055984D01*
X7683919Y-16855984D02*
X7702966Y-16855984D01*
X7702966Y-16855984D02*
X7722014Y-16865508D01*
X7722014Y-16865508D02*
X7731538Y-16875031D01*
X7731538Y-16875031D02*
X7741062Y-16894079D01*
X7741062Y-16894079D02*
X7750585Y-16932174D01*
X7750585Y-16932174D02*
X7750585Y-16979793D01*
X7750585Y-16979793D02*
X7741062Y-17017889D01*
X7741062Y-17017889D02*
X7731538Y-17036936D01*
X7731538Y-17036936D02*
X7722014Y-17046460D01*
X7722014Y-17046460D02*
X7702966Y-17055984D01*
X7702966Y-17055984D02*
X7683919Y-17055984D01*
X7683919Y-17055984D02*
X7664871Y-17046460D01*
X7664871Y-17046460D02*
X7655347Y-17036936D01*
X7655347Y-17036936D02*
X7645823Y-17017889D01*
X7645823Y-17017889D02*
X7636300Y-16979793D01*
X7636300Y-16979793D02*
X7636300Y-16932174D01*
X7636300Y-16932174D02*
X7645823Y-16894079D01*
X7645823Y-16894079D02*
X7655347Y-16875031D01*
X7655347Y-16875031D02*
X7664871Y-16865508D01*
X7664871Y-16865508D02*
X7683919Y-16855984D01*
X7836300Y-17055984D02*
X7836300Y-16922650D01*
X7836300Y-16941698D02*
X7845823Y-16932174D01*
X7845823Y-16932174D02*
X7864871Y-16922650D01*
X7864871Y-16922650D02*
X7893443Y-16922650D01*
X7893443Y-16922650D02*
X7912490Y-16932174D01*
X7912490Y-16932174D02*
X7922014Y-16951222D01*
X7922014Y-16951222D02*
X7922014Y-17055984D01*
X7922014Y-16951222D02*
X7931538Y-16932174D01*
X7931538Y-16932174D02*
X7950585Y-16922650D01*
X7950585Y-16922650D02*
X7979157Y-16922650D01*
X7979157Y-16922650D02*
X7998204Y-16932174D01*
X7998204Y-16932174D02*
X8007728Y-16951222D01*
X8007728Y-16951222D02*
X8007728Y-17055984D01*
X8102966Y-17055984D02*
X8102966Y-16922650D01*
X8102966Y-16941698D02*
X8112490Y-16932174D01*
X8112490Y-16932174D02*
X8131538Y-16922650D01*
X8131538Y-16922650D02*
X8160109Y-16922650D01*
X8160109Y-16922650D02*
X8179157Y-16932174D01*
X8179157Y-16932174D02*
X8188681Y-16951222D01*
X8188681Y-16951222D02*
X8188681Y-17055984D01*
X8188681Y-16951222D02*
X8198204Y-16932174D01*
X8198204Y-16932174D02*
X8217252Y-16922650D01*
X8217252Y-16922650D02*
X8245823Y-16922650D01*
X8245823Y-16922650D02*
X8264871Y-16932174D01*
X8264871Y-16932174D02*
X8274395Y-16951222D01*
X8274395Y-16951222D02*
X8274395Y-17055984D01*
X8664871Y-16846460D02*
X8493443Y-17103603D01*
X8922014Y-16855984D02*
X8941062Y-16855984D01*
X8941062Y-16855984D02*
X8960109Y-16865508D01*
X8960109Y-16865508D02*
X8969633Y-16875031D01*
X8969633Y-16875031D02*
X8979157Y-16894079D01*
X8979157Y-16894079D02*
X8988681Y-16932174D01*
X8988681Y-16932174D02*
X8988681Y-16979793D01*
X8988681Y-16979793D02*
X8979157Y-17017889D01*
X8979157Y-17017889D02*
X8969633Y-17036936D01*
X8969633Y-17036936D02*
X8960109Y-17046460D01*
X8960109Y-17046460D02*
X8941062Y-17055984D01*
X8941062Y-17055984D02*
X8922014Y-17055984D01*
X8922014Y-17055984D02*
X8902967Y-17046460D01*
X8902967Y-17046460D02*
X8893443Y-17036936D01*
X8893443Y-17036936D02*
X8883919Y-17017889D01*
X8883919Y-17017889D02*
X8874395Y-16979793D01*
X8874395Y-16979793D02*
X8874395Y-16932174D01*
X8874395Y-16932174D02*
X8883919Y-16894079D01*
X8883919Y-16894079D02*
X8893443Y-16875031D01*
X8893443Y-16875031D02*
X8902967Y-16865508D01*
X8902967Y-16865508D02*
X8922014Y-16855984D01*
X9074395Y-17036936D02*
X9083919Y-17046460D01*
X9083919Y-17046460D02*
X9074395Y-17055984D01*
X9074395Y-17055984D02*
X9064871Y-17046460D01*
X9064871Y-17046460D02*
X9074395Y-17036936D01*
X9074395Y-17036936D02*
X9074395Y-17055984D01*
X9207728Y-16855984D02*
X9226776Y-16855984D01*
X9226776Y-16855984D02*
X9245824Y-16865508D01*
X9245824Y-16865508D02*
X9255348Y-16875031D01*
X9255348Y-16875031D02*
X9264871Y-16894079D01*
X9264871Y-16894079D02*
X9274395Y-16932174D01*
X9274395Y-16932174D02*
X9274395Y-16979793D01*
X9274395Y-16979793D02*
X9264871Y-17017889D01*
X9264871Y-17017889D02*
X9255348Y-17036936D01*
X9255348Y-17036936D02*
X9245824Y-17046460D01*
X9245824Y-17046460D02*
X9226776Y-17055984D01*
X9226776Y-17055984D02*
X9207728Y-17055984D01*
X9207728Y-17055984D02*
X9188681Y-17046460D01*
X9188681Y-17046460D02*
X9179157Y-17036936D01*
X9179157Y-17036936D02*
X9169633Y-17017889D01*
X9169633Y-17017889D02*
X9160109Y-16979793D01*
X9160109Y-16979793D02*
X9160109Y-16932174D01*
X9160109Y-16932174D02*
X9169633Y-16894079D01*
X9169633Y-16894079D02*
X9179157Y-16875031D01*
X9179157Y-16875031D02*
X9188681Y-16865508D01*
X9188681Y-16865508D02*
X9207728Y-16855984D01*
X9455348Y-16855984D02*
X9360109Y-16855984D01*
X9360109Y-16855984D02*
X9350586Y-16951222D01*
X9350586Y-16951222D02*
X9360109Y-16941698D01*
X9360109Y-16941698D02*
X9379157Y-16932174D01*
X9379157Y-16932174D02*
X9426776Y-16932174D01*
X9426776Y-16932174D02*
X9445824Y-16941698D01*
X9445824Y-16941698D02*
X9455348Y-16951222D01*
X9455348Y-16951222D02*
X9464871Y-16970270D01*
X9464871Y-16970270D02*
X9464871Y-17017889D01*
X9464871Y-17017889D02*
X9455348Y-17036936D01*
X9455348Y-17036936D02*
X9445824Y-17046460D01*
X9445824Y-17046460D02*
X9426776Y-17055984D01*
X9426776Y-17055984D02*
X9379157Y-17055984D01*
X9379157Y-17055984D02*
X9360109Y-17046460D01*
X9360109Y-17046460D02*
X9350586Y-17036936D01*
X9588681Y-16855984D02*
X9607729Y-16855984D01*
X9607729Y-16855984D02*
X9626776Y-16865508D01*
X9626776Y-16865508D02*
X9636300Y-16875031D01*
X9636300Y-16875031D02*
X9645824Y-16894079D01*
X9645824Y-16894079D02*
X9655348Y-16932174D01*
X9655348Y-16932174D02*
X9655348Y-16979793D01*
X9655348Y-16979793D02*
X9645824Y-17017889D01*
X9645824Y-17017889D02*
X9636300Y-17036936D01*
X9636300Y-17036936D02*
X9626776Y-17046460D01*
X9626776Y-17046460D02*
X9607729Y-17055984D01*
X9607729Y-17055984D02*
X9588681Y-17055984D01*
X9588681Y-17055984D02*
X9569633Y-17046460D01*
X9569633Y-17046460D02*
X9560109Y-17036936D01*
X9560109Y-17036936D02*
X9550586Y-17017889D01*
X9550586Y-17017889D02*
X9541062Y-16979793D01*
X9541062Y-16979793D02*
X9541062Y-16932174D01*
X9541062Y-16932174D02*
X9550586Y-16894079D01*
X9550586Y-16894079D02*
X9560109Y-16875031D01*
X9560109Y-16875031D02*
X9569633Y-16865508D01*
X9569633Y-16865508D02*
X9588681Y-16855984D01*
X9779157Y-16855984D02*
X9798205Y-16855984D01*
X9798205Y-16855984D02*
X9817252Y-16865508D01*
X9817252Y-16865508D02*
X9826776Y-16875031D01*
X9826776Y-16875031D02*
X9836300Y-16894079D01*
X9836300Y-16894079D02*
X9845824Y-16932174D01*
X9845824Y-16932174D02*
X9845824Y-16979793D01*
X9845824Y-16979793D02*
X9836300Y-17017889D01*
X9836300Y-17017889D02*
X9826776Y-17036936D01*
X9826776Y-17036936D02*
X9817252Y-17046460D01*
X9817252Y-17046460D02*
X9798205Y-17055984D01*
X9798205Y-17055984D02*
X9779157Y-17055984D01*
X9779157Y-17055984D02*
X9760109Y-17046460D01*
X9760109Y-17046460D02*
X9750586Y-17036936D01*
X9750586Y-17036936D02*
X9741062Y-17017889D01*
X9741062Y-17017889D02*
X9731538Y-16979793D01*
X9731538Y-16979793D02*
X9731538Y-16932174D01*
X9731538Y-16932174D02*
X9741062Y-16894079D01*
X9741062Y-16894079D02*
X9750586Y-16875031D01*
X9750586Y-16875031D02*
X9760109Y-16865508D01*
X9760109Y-16865508D02*
X9779157Y-16855984D01*
X9922014Y-16855984D02*
X9922014Y-16894079D01*
X9998205Y-16855984D02*
X9998205Y-16894079D01*
X10293443Y-17132174D02*
X10283919Y-17122650D01*
X10283919Y-17122650D02*
X10264871Y-17094079D01*
X10264871Y-17094079D02*
X10255348Y-17075031D01*
X10255348Y-17075031D02*
X10245824Y-17046460D01*
X10245824Y-17046460D02*
X10236300Y-16998841D01*
X10236300Y-16998841D02*
X10236300Y-16960746D01*
X10236300Y-16960746D02*
X10245824Y-16913127D01*
X10245824Y-16913127D02*
X10255348Y-16884555D01*
X10255348Y-16884555D02*
X10264871Y-16865508D01*
X10264871Y-16865508D02*
X10283919Y-16836936D01*
X10283919Y-16836936D02*
X10293443Y-16827412D01*
X10455348Y-16922650D02*
X10455348Y-17055984D01*
X10407729Y-16846460D02*
X10360110Y-16989317D01*
X10360110Y-16989317D02*
X10483919Y-16989317D01*
X10712491Y-17055984D02*
X10712491Y-16855984D01*
X10798205Y-17055984D02*
X10798205Y-16951222D01*
X10798205Y-16951222D02*
X10788681Y-16932174D01*
X10788681Y-16932174D02*
X10769633Y-16922650D01*
X10769633Y-16922650D02*
X10741062Y-16922650D01*
X10741062Y-16922650D02*
X10722014Y-16932174D01*
X10722014Y-16932174D02*
X10712491Y-16941698D01*
X10922014Y-17055984D02*
X10902967Y-17046460D01*
X10902967Y-17046460D02*
X10893443Y-17036936D01*
X10893443Y-17036936D02*
X10883919Y-17017889D01*
X10883919Y-17017889D02*
X10883919Y-16960746D01*
X10883919Y-16960746D02*
X10893443Y-16941698D01*
X10893443Y-16941698D02*
X10902967Y-16932174D01*
X10902967Y-16932174D02*
X10922014Y-16922650D01*
X10922014Y-16922650D02*
X10950586Y-16922650D01*
X10950586Y-16922650D02*
X10969633Y-16932174D01*
X10969633Y-16932174D02*
X10979157Y-16941698D01*
X10979157Y-16941698D02*
X10988681Y-16960746D01*
X10988681Y-16960746D02*
X10988681Y-17017889D01*
X10988681Y-17017889D02*
X10979157Y-17036936D01*
X10979157Y-17036936D02*
X10969633Y-17046460D01*
X10969633Y-17046460D02*
X10950586Y-17055984D01*
X10950586Y-17055984D02*
X10922014Y-17055984D01*
X11102967Y-17055984D02*
X11083919Y-17046460D01*
X11083919Y-17046460D02*
X11074395Y-17027412D01*
X11074395Y-17027412D02*
X11074395Y-16855984D01*
X11255348Y-17046460D02*
X11236300Y-17055984D01*
X11236300Y-17055984D02*
X11198205Y-17055984D01*
X11198205Y-17055984D02*
X11179157Y-17046460D01*
X11179157Y-17046460D02*
X11169633Y-17027412D01*
X11169633Y-17027412D02*
X11169633Y-16951222D01*
X11169633Y-16951222D02*
X11179157Y-16932174D01*
X11179157Y-16932174D02*
X11198205Y-16922650D01*
X11198205Y-16922650D02*
X11236300Y-16922650D01*
X11236300Y-16922650D02*
X11255348Y-16932174D01*
X11255348Y-16932174D02*
X11264871Y-16951222D01*
X11264871Y-16951222D02*
X11264871Y-16970270D01*
X11264871Y-16970270D02*
X11169633Y-16989317D01*
X11341062Y-17046460D02*
X11360110Y-17055984D01*
X11360110Y-17055984D02*
X11398205Y-17055984D01*
X11398205Y-17055984D02*
X11417252Y-17046460D01*
X11417252Y-17046460D02*
X11426776Y-17027412D01*
X11426776Y-17027412D02*
X11426776Y-17017889D01*
X11426776Y-17017889D02*
X11417252Y-16998841D01*
X11417252Y-16998841D02*
X11398205Y-16989317D01*
X11398205Y-16989317D02*
X11369633Y-16989317D01*
X11369633Y-16989317D02*
X11350586Y-16979793D01*
X11350586Y-16979793D02*
X11341062Y-16960746D01*
X11341062Y-16960746D02*
X11341062Y-16951222D01*
X11341062Y-16951222D02*
X11350586Y-16932174D01*
X11350586Y-16932174D02*
X11369633Y-16922650D01*
X11369633Y-16922650D02*
X11398205Y-16922650D01*
X11398205Y-16922650D02*
X11417252Y-16932174D01*
X11493443Y-17132174D02*
X11502967Y-17122650D01*
X11502967Y-17122650D02*
X11522014Y-17094079D01*
X11522014Y-17094079D02*
X11531538Y-17075031D01*
X11531538Y-17075031D02*
X11541062Y-17046460D01*
X11541062Y-17046460D02*
X11550586Y-16998841D01*
X11550586Y-16998841D02*
X11550586Y-16960746D01*
X11550586Y-16960746D02*
X11541062Y-16913127D01*
X11541062Y-16913127D02*
X11531538Y-16884555D01*
X11531538Y-16884555D02*
X11522014Y-16865508D01*
X11522014Y-16865508D02*
X11502967Y-16836936D01*
X11502967Y-16836936D02*
X11493443Y-16827412D01*
X11855348Y-17132174D02*
X11845824Y-17122650D01*
X11845824Y-17122650D02*
X11826776Y-17094079D01*
X11826776Y-17094079D02*
X11817252Y-17075031D01*
X11817252Y-17075031D02*
X11807729Y-17046460D01*
X11807729Y-17046460D02*
X11798205Y-16998841D01*
X11798205Y-16998841D02*
X11798205Y-16960746D01*
X11798205Y-16960746D02*
X11807729Y-16913127D01*
X11807729Y-16913127D02*
X11817252Y-16884555D01*
X11817252Y-16884555D02*
X11826776Y-16865508D01*
X11826776Y-16865508D02*
X11845824Y-16836936D01*
X11845824Y-16836936D02*
X11855348Y-16827412D01*
X11931538Y-16922650D02*
X11931538Y-17055984D01*
X11931538Y-16941698D02*
X11941062Y-16932174D01*
X11941062Y-16932174D02*
X11960110Y-16922650D01*
X11960110Y-16922650D02*
X11988681Y-16922650D01*
X11988681Y-16922650D02*
X12007729Y-16932174D01*
X12007729Y-16932174D02*
X12017252Y-16951222D01*
X12017252Y-16951222D02*
X12017252Y-17055984D01*
X12141062Y-17055984D02*
X12122014Y-17046460D01*
X12122014Y-17046460D02*
X12112491Y-17036936D01*
X12112491Y-17036936D02*
X12102967Y-17017889D01*
X12102967Y-17017889D02*
X12102967Y-16960746D01*
X12102967Y-16960746D02*
X12112491Y-16941698D01*
X12112491Y-16941698D02*
X12122014Y-16932174D01*
X12122014Y-16932174D02*
X12141062Y-16922650D01*
X12141062Y-16922650D02*
X12169633Y-16922650D01*
X12169633Y-16922650D02*
X12188681Y-16932174D01*
X12188681Y-16932174D02*
X12198205Y-16941698D01*
X12198205Y-16941698D02*
X12207729Y-16960746D01*
X12207729Y-16960746D02*
X12207729Y-17017889D01*
X12207729Y-17017889D02*
X12198205Y-17036936D01*
X12198205Y-17036936D02*
X12188681Y-17046460D01*
X12188681Y-17046460D02*
X12169633Y-17055984D01*
X12169633Y-17055984D02*
X12141062Y-17055984D01*
X12264872Y-16922650D02*
X12341062Y-16922650D01*
X12293443Y-16855984D02*
X12293443Y-17027412D01*
X12293443Y-17027412D02*
X12302967Y-17046460D01*
X12302967Y-17046460D02*
X12322014Y-17055984D01*
X12322014Y-17055984D02*
X12341062Y-17055984D01*
X12560110Y-16922650D02*
X12560110Y-17122650D01*
X12560110Y-16932174D02*
X12579157Y-16922650D01*
X12579157Y-16922650D02*
X12617253Y-16922650D01*
X12617253Y-16922650D02*
X12636300Y-16932174D01*
X12636300Y-16932174D02*
X12645824Y-16941698D01*
X12645824Y-16941698D02*
X12655348Y-16960746D01*
X12655348Y-16960746D02*
X12655348Y-17017889D01*
X12655348Y-17017889D02*
X12645824Y-17036936D01*
X12645824Y-17036936D02*
X12636300Y-17046460D01*
X12636300Y-17046460D02*
X12617253Y-17055984D01*
X12617253Y-17055984D02*
X12579157Y-17055984D01*
X12579157Y-17055984D02*
X12560110Y-17046460D01*
X12769633Y-17055984D02*
X12750586Y-17046460D01*
X12750586Y-17046460D02*
X12741062Y-17027412D01*
X12741062Y-17027412D02*
X12741062Y-16855984D01*
X12931538Y-17055984D02*
X12931538Y-16951222D01*
X12931538Y-16951222D02*
X12922014Y-16932174D01*
X12922014Y-16932174D02*
X12902967Y-16922650D01*
X12902967Y-16922650D02*
X12864872Y-16922650D01*
X12864872Y-16922650D02*
X12845824Y-16932174D01*
X12931538Y-17046460D02*
X12912491Y-17055984D01*
X12912491Y-17055984D02*
X12864872Y-17055984D01*
X12864872Y-17055984D02*
X12845824Y-17046460D01*
X12845824Y-17046460D02*
X12836300Y-17027412D01*
X12836300Y-17027412D02*
X12836300Y-17008365D01*
X12836300Y-17008365D02*
X12845824Y-16989317D01*
X12845824Y-16989317D02*
X12864872Y-16979793D01*
X12864872Y-16979793D02*
X12912491Y-16979793D01*
X12912491Y-16979793D02*
X12931538Y-16970270D01*
X12998205Y-16922650D02*
X13074395Y-16922650D01*
X13026776Y-16855984D02*
X13026776Y-17027412D01*
X13026776Y-17027412D02*
X13036300Y-17046460D01*
X13036300Y-17046460D02*
X13055348Y-17055984D01*
X13055348Y-17055984D02*
X13074395Y-17055984D01*
X13217253Y-17046460D02*
X13198205Y-17055984D01*
X13198205Y-17055984D02*
X13160110Y-17055984D01*
X13160110Y-17055984D02*
X13141062Y-17046460D01*
X13141062Y-17046460D02*
X13131538Y-17027412D01*
X13131538Y-17027412D02*
X13131538Y-16951222D01*
X13131538Y-16951222D02*
X13141062Y-16932174D01*
X13141062Y-16932174D02*
X13160110Y-16922650D01*
X13160110Y-16922650D02*
X13198205Y-16922650D01*
X13198205Y-16922650D02*
X13217253Y-16932174D01*
X13217253Y-16932174D02*
X13226776Y-16951222D01*
X13226776Y-16951222D02*
X13226776Y-16970270D01*
X13226776Y-16970270D02*
X13131538Y-16989317D01*
X13398205Y-17055984D02*
X13398205Y-16855984D01*
X13398205Y-17046460D02*
X13379157Y-17055984D01*
X13379157Y-17055984D02*
X13341062Y-17055984D01*
X13341062Y-17055984D02*
X13322014Y-17046460D01*
X13322014Y-17046460D02*
X13312491Y-17036936D01*
X13312491Y-17036936D02*
X13302967Y-17017889D01*
X13302967Y-17017889D02*
X13302967Y-16960746D01*
X13302967Y-16960746D02*
X13312491Y-16941698D01*
X13312491Y-16941698D02*
X13322014Y-16932174D01*
X13322014Y-16932174D02*
X13341062Y-16922650D01*
X13341062Y-16922650D02*
X13379157Y-16922650D01*
X13379157Y-16922650D02*
X13398205Y-16932174D01*
X13474395Y-17132174D02*
X13483919Y-17122650D01*
X13483919Y-17122650D02*
X13502967Y-17094079D01*
X13502967Y-17094079D02*
X13512491Y-17075031D01*
X13512491Y-17075031D02*
X13522014Y-17046460D01*
X13522014Y-17046460D02*
X13531538Y-16998841D01*
X13531538Y-16998841D02*
X13531538Y-16960746D01*
X13531538Y-16960746D02*
X13522014Y-16913127D01*
X13522014Y-16913127D02*
X13512491Y-16884555D01*
X13512491Y-16884555D02*
X13502967Y-16865508D01*
X13502967Y-16865508D02*
X13483919Y-16836936D01*
X13483919Y-16836936D02*
X13474395Y-16827412D01*
X6718380Y-17228500D02*
G75*
G03*
X6718380Y-17228500I-100000J0D01*
G01*
X6969633Y-17139031D02*
X6979157Y-17129508D01*
X6979157Y-17129508D02*
X6998204Y-17119984D01*
X6998204Y-17119984D02*
X7045823Y-17119984D01*
X7045823Y-17119984D02*
X7064871Y-17129508D01*
X7064871Y-17129508D02*
X7074395Y-17139031D01*
X7074395Y-17139031D02*
X7083919Y-17158079D01*
X7083919Y-17158079D02*
X7083919Y-17177127D01*
X7083919Y-17177127D02*
X7074395Y-17205698D01*
X7074395Y-17205698D02*
X6960109Y-17319984D01*
X6960109Y-17319984D02*
X7083919Y-17319984D01*
X7169633Y-17300936D02*
X7179157Y-17310460D01*
X7179157Y-17310460D02*
X7169633Y-17319984D01*
X7169633Y-17319984D02*
X7160109Y-17310460D01*
X7160109Y-17310460D02*
X7169633Y-17300936D01*
X7169633Y-17300936D02*
X7169633Y-17319984D01*
X7255347Y-17139031D02*
X7264871Y-17129508D01*
X7264871Y-17129508D02*
X7283919Y-17119984D01*
X7283919Y-17119984D02*
X7331538Y-17119984D01*
X7331538Y-17119984D02*
X7350585Y-17129508D01*
X7350585Y-17129508D02*
X7360109Y-17139031D01*
X7360109Y-17139031D02*
X7369633Y-17158079D01*
X7369633Y-17158079D02*
X7369633Y-17177127D01*
X7369633Y-17177127D02*
X7360109Y-17205698D01*
X7360109Y-17205698D02*
X7245823Y-17319984D01*
X7245823Y-17319984D02*
X7369633Y-17319984D01*
X7493442Y-17119984D02*
X7512490Y-17119984D01*
X7512490Y-17119984D02*
X7531538Y-17129508D01*
X7531538Y-17129508D02*
X7541062Y-17139031D01*
X7541062Y-17139031D02*
X7550585Y-17158079D01*
X7550585Y-17158079D02*
X7560109Y-17196174D01*
X7560109Y-17196174D02*
X7560109Y-17243793D01*
X7560109Y-17243793D02*
X7550585Y-17281889D01*
X7550585Y-17281889D02*
X7541062Y-17300936D01*
X7541062Y-17300936D02*
X7531538Y-17310460D01*
X7531538Y-17310460D02*
X7512490Y-17319984D01*
X7512490Y-17319984D02*
X7493442Y-17319984D01*
X7493442Y-17319984D02*
X7474395Y-17310460D01*
X7474395Y-17310460D02*
X7464871Y-17300936D01*
X7464871Y-17300936D02*
X7455347Y-17281889D01*
X7455347Y-17281889D02*
X7445823Y-17243793D01*
X7445823Y-17243793D02*
X7445823Y-17196174D01*
X7445823Y-17196174D02*
X7455347Y-17158079D01*
X7455347Y-17158079D02*
X7464871Y-17139031D01*
X7464871Y-17139031D02*
X7474395Y-17129508D01*
X7474395Y-17129508D02*
X7493442Y-17119984D01*
X7683919Y-17119984D02*
X7702966Y-17119984D01*
X7702966Y-17119984D02*
X7722014Y-17129508D01*
X7722014Y-17129508D02*
X7731538Y-17139031D01*
X7731538Y-17139031D02*
X7741062Y-17158079D01*
X7741062Y-17158079D02*
X7750585Y-17196174D01*
X7750585Y-17196174D02*
X7750585Y-17243793D01*
X7750585Y-17243793D02*
X7741062Y-17281889D01*
X7741062Y-17281889D02*
X7731538Y-17300936D01*
X7731538Y-17300936D02*
X7722014Y-17310460D01*
X7722014Y-17310460D02*
X7702966Y-17319984D01*
X7702966Y-17319984D02*
X7683919Y-17319984D01*
X7683919Y-17319984D02*
X7664871Y-17310460D01*
X7664871Y-17310460D02*
X7655347Y-17300936D01*
X7655347Y-17300936D02*
X7645823Y-17281889D01*
X7645823Y-17281889D02*
X7636300Y-17243793D01*
X7636300Y-17243793D02*
X7636300Y-17196174D01*
X7636300Y-17196174D02*
X7645823Y-17158079D01*
X7645823Y-17158079D02*
X7655347Y-17139031D01*
X7655347Y-17139031D02*
X7664871Y-17129508D01*
X7664871Y-17129508D02*
X7683919Y-17119984D01*
X7836300Y-17319984D02*
X7836300Y-17186650D01*
X7836300Y-17205698D02*
X7845823Y-17196174D01*
X7845823Y-17196174D02*
X7864871Y-17186650D01*
X7864871Y-17186650D02*
X7893443Y-17186650D01*
X7893443Y-17186650D02*
X7912490Y-17196174D01*
X7912490Y-17196174D02*
X7922014Y-17215222D01*
X7922014Y-17215222D02*
X7922014Y-17319984D01*
X7922014Y-17215222D02*
X7931538Y-17196174D01*
X7931538Y-17196174D02*
X7950585Y-17186650D01*
X7950585Y-17186650D02*
X7979157Y-17186650D01*
X7979157Y-17186650D02*
X7998204Y-17196174D01*
X7998204Y-17196174D02*
X8007728Y-17215222D01*
X8007728Y-17215222D02*
X8007728Y-17319984D01*
X8102966Y-17319984D02*
X8102966Y-17186650D01*
X8102966Y-17205698D02*
X8112490Y-17196174D01*
X8112490Y-17196174D02*
X8131538Y-17186650D01*
X8131538Y-17186650D02*
X8160109Y-17186650D01*
X8160109Y-17186650D02*
X8179157Y-17196174D01*
X8179157Y-17196174D02*
X8188681Y-17215222D01*
X8188681Y-17215222D02*
X8188681Y-17319984D01*
X8188681Y-17215222D02*
X8198204Y-17196174D01*
X8198204Y-17196174D02*
X8217252Y-17186650D01*
X8217252Y-17186650D02*
X8245823Y-17186650D01*
X8245823Y-17186650D02*
X8264871Y-17196174D01*
X8264871Y-17196174D02*
X8274395Y-17215222D01*
X8274395Y-17215222D02*
X8274395Y-17319984D01*
X8664871Y-17110460D02*
X8493443Y-17367603D01*
X8922014Y-17119984D02*
X8941062Y-17119984D01*
X8941062Y-17119984D02*
X8960109Y-17129508D01*
X8960109Y-17129508D02*
X8969633Y-17139031D01*
X8969633Y-17139031D02*
X8979157Y-17158079D01*
X8979157Y-17158079D02*
X8988681Y-17196174D01*
X8988681Y-17196174D02*
X8988681Y-17243793D01*
X8988681Y-17243793D02*
X8979157Y-17281889D01*
X8979157Y-17281889D02*
X8969633Y-17300936D01*
X8969633Y-17300936D02*
X8960109Y-17310460D01*
X8960109Y-17310460D02*
X8941062Y-17319984D01*
X8941062Y-17319984D02*
X8922014Y-17319984D01*
X8922014Y-17319984D02*
X8902967Y-17310460D01*
X8902967Y-17310460D02*
X8893443Y-17300936D01*
X8893443Y-17300936D02*
X8883919Y-17281889D01*
X8883919Y-17281889D02*
X8874395Y-17243793D01*
X8874395Y-17243793D02*
X8874395Y-17196174D01*
X8874395Y-17196174D02*
X8883919Y-17158079D01*
X8883919Y-17158079D02*
X8893443Y-17139031D01*
X8893443Y-17139031D02*
X8902967Y-17129508D01*
X8902967Y-17129508D02*
X8922014Y-17119984D01*
X9074395Y-17300936D02*
X9083919Y-17310460D01*
X9083919Y-17310460D02*
X9074395Y-17319984D01*
X9074395Y-17319984D02*
X9064871Y-17310460D01*
X9064871Y-17310460D02*
X9074395Y-17300936D01*
X9074395Y-17300936D02*
X9074395Y-17319984D01*
X9207728Y-17119984D02*
X9226776Y-17119984D01*
X9226776Y-17119984D02*
X9245824Y-17129508D01*
X9245824Y-17129508D02*
X9255348Y-17139031D01*
X9255348Y-17139031D02*
X9264871Y-17158079D01*
X9264871Y-17158079D02*
X9274395Y-17196174D01*
X9274395Y-17196174D02*
X9274395Y-17243793D01*
X9274395Y-17243793D02*
X9264871Y-17281889D01*
X9264871Y-17281889D02*
X9255348Y-17300936D01*
X9255348Y-17300936D02*
X9245824Y-17310460D01*
X9245824Y-17310460D02*
X9226776Y-17319984D01*
X9226776Y-17319984D02*
X9207728Y-17319984D01*
X9207728Y-17319984D02*
X9188681Y-17310460D01*
X9188681Y-17310460D02*
X9179157Y-17300936D01*
X9179157Y-17300936D02*
X9169633Y-17281889D01*
X9169633Y-17281889D02*
X9160109Y-17243793D01*
X9160109Y-17243793D02*
X9160109Y-17196174D01*
X9160109Y-17196174D02*
X9169633Y-17158079D01*
X9169633Y-17158079D02*
X9179157Y-17139031D01*
X9179157Y-17139031D02*
X9188681Y-17129508D01*
X9188681Y-17129508D02*
X9207728Y-17119984D01*
X9388681Y-17205698D02*
X9369633Y-17196174D01*
X9369633Y-17196174D02*
X9360109Y-17186650D01*
X9360109Y-17186650D02*
X9350586Y-17167603D01*
X9350586Y-17167603D02*
X9350586Y-17158079D01*
X9350586Y-17158079D02*
X9360109Y-17139031D01*
X9360109Y-17139031D02*
X9369633Y-17129508D01*
X9369633Y-17129508D02*
X9388681Y-17119984D01*
X9388681Y-17119984D02*
X9426776Y-17119984D01*
X9426776Y-17119984D02*
X9445824Y-17129508D01*
X9445824Y-17129508D02*
X9455348Y-17139031D01*
X9455348Y-17139031D02*
X9464871Y-17158079D01*
X9464871Y-17158079D02*
X9464871Y-17167603D01*
X9464871Y-17167603D02*
X9455348Y-17186650D01*
X9455348Y-17186650D02*
X9445824Y-17196174D01*
X9445824Y-17196174D02*
X9426776Y-17205698D01*
X9426776Y-17205698D02*
X9388681Y-17205698D01*
X9388681Y-17205698D02*
X9369633Y-17215222D01*
X9369633Y-17215222D02*
X9360109Y-17224746D01*
X9360109Y-17224746D02*
X9350586Y-17243793D01*
X9350586Y-17243793D02*
X9350586Y-17281889D01*
X9350586Y-17281889D02*
X9360109Y-17300936D01*
X9360109Y-17300936D02*
X9369633Y-17310460D01*
X9369633Y-17310460D02*
X9388681Y-17319984D01*
X9388681Y-17319984D02*
X9426776Y-17319984D01*
X9426776Y-17319984D02*
X9445824Y-17310460D01*
X9445824Y-17310460D02*
X9455348Y-17300936D01*
X9455348Y-17300936D02*
X9464871Y-17281889D01*
X9464871Y-17281889D02*
X9464871Y-17243793D01*
X9464871Y-17243793D02*
X9455348Y-17224746D01*
X9455348Y-17224746D02*
X9445824Y-17215222D01*
X9445824Y-17215222D02*
X9426776Y-17205698D01*
X9636300Y-17119984D02*
X9598205Y-17119984D01*
X9598205Y-17119984D02*
X9579157Y-17129508D01*
X9579157Y-17129508D02*
X9569633Y-17139031D01*
X9569633Y-17139031D02*
X9550586Y-17167603D01*
X9550586Y-17167603D02*
X9541062Y-17205698D01*
X9541062Y-17205698D02*
X9541062Y-17281889D01*
X9541062Y-17281889D02*
X9550586Y-17300936D01*
X9550586Y-17300936D02*
X9560109Y-17310460D01*
X9560109Y-17310460D02*
X9579157Y-17319984D01*
X9579157Y-17319984D02*
X9617252Y-17319984D01*
X9617252Y-17319984D02*
X9636300Y-17310460D01*
X9636300Y-17310460D02*
X9645824Y-17300936D01*
X9645824Y-17300936D02*
X9655348Y-17281889D01*
X9655348Y-17281889D02*
X9655348Y-17234270D01*
X9655348Y-17234270D02*
X9645824Y-17215222D01*
X9645824Y-17215222D02*
X9636300Y-17205698D01*
X9636300Y-17205698D02*
X9617252Y-17196174D01*
X9617252Y-17196174D02*
X9579157Y-17196174D01*
X9579157Y-17196174D02*
X9560109Y-17205698D01*
X9560109Y-17205698D02*
X9550586Y-17215222D01*
X9550586Y-17215222D02*
X9541062Y-17234270D01*
X9826776Y-17119984D02*
X9788681Y-17119984D01*
X9788681Y-17119984D02*
X9769633Y-17129508D01*
X9769633Y-17129508D02*
X9760109Y-17139031D01*
X9760109Y-17139031D02*
X9741062Y-17167603D01*
X9741062Y-17167603D02*
X9731538Y-17205698D01*
X9731538Y-17205698D02*
X9731538Y-17281889D01*
X9731538Y-17281889D02*
X9741062Y-17300936D01*
X9741062Y-17300936D02*
X9750586Y-17310460D01*
X9750586Y-17310460D02*
X9769633Y-17319984D01*
X9769633Y-17319984D02*
X9807729Y-17319984D01*
X9807729Y-17319984D02*
X9826776Y-17310460D01*
X9826776Y-17310460D02*
X9836300Y-17300936D01*
X9836300Y-17300936D02*
X9845824Y-17281889D01*
X9845824Y-17281889D02*
X9845824Y-17234270D01*
X9845824Y-17234270D02*
X9836300Y-17215222D01*
X9836300Y-17215222D02*
X9826776Y-17205698D01*
X9826776Y-17205698D02*
X9807729Y-17196174D01*
X9807729Y-17196174D02*
X9769633Y-17196174D01*
X9769633Y-17196174D02*
X9750586Y-17205698D01*
X9750586Y-17205698D02*
X9741062Y-17215222D01*
X9741062Y-17215222D02*
X9731538Y-17234270D01*
X9922014Y-17119984D02*
X9922014Y-17158079D01*
X9998205Y-17119984D02*
X9998205Y-17158079D01*
X10293443Y-17396174D02*
X10283919Y-17386650D01*
X10283919Y-17386650D02*
X10264871Y-17358079D01*
X10264871Y-17358079D02*
X10255348Y-17339031D01*
X10255348Y-17339031D02*
X10245824Y-17310460D01*
X10245824Y-17310460D02*
X10236300Y-17262841D01*
X10236300Y-17262841D02*
X10236300Y-17224746D01*
X10236300Y-17224746D02*
X10245824Y-17177127D01*
X10245824Y-17177127D02*
X10255348Y-17148555D01*
X10255348Y-17148555D02*
X10264871Y-17129508D01*
X10264871Y-17129508D02*
X10283919Y-17100936D01*
X10283919Y-17100936D02*
X10293443Y-17091412D01*
X10398205Y-17205698D02*
X10379157Y-17196174D01*
X10379157Y-17196174D02*
X10369633Y-17186650D01*
X10369633Y-17186650D02*
X10360110Y-17167603D01*
X10360110Y-17167603D02*
X10360110Y-17158079D01*
X10360110Y-17158079D02*
X10369633Y-17139031D01*
X10369633Y-17139031D02*
X10379157Y-17129508D01*
X10379157Y-17129508D02*
X10398205Y-17119984D01*
X10398205Y-17119984D02*
X10436300Y-17119984D01*
X10436300Y-17119984D02*
X10455348Y-17129508D01*
X10455348Y-17129508D02*
X10464871Y-17139031D01*
X10464871Y-17139031D02*
X10474395Y-17158079D01*
X10474395Y-17158079D02*
X10474395Y-17167603D01*
X10474395Y-17167603D02*
X10464871Y-17186650D01*
X10464871Y-17186650D02*
X10455348Y-17196174D01*
X10455348Y-17196174D02*
X10436300Y-17205698D01*
X10436300Y-17205698D02*
X10398205Y-17205698D01*
X10398205Y-17205698D02*
X10379157Y-17215222D01*
X10379157Y-17215222D02*
X10369633Y-17224746D01*
X10369633Y-17224746D02*
X10360110Y-17243793D01*
X10360110Y-17243793D02*
X10360110Y-17281889D01*
X10360110Y-17281889D02*
X10369633Y-17300936D01*
X10369633Y-17300936D02*
X10379157Y-17310460D01*
X10379157Y-17310460D02*
X10398205Y-17319984D01*
X10398205Y-17319984D02*
X10436300Y-17319984D01*
X10436300Y-17319984D02*
X10455348Y-17310460D01*
X10455348Y-17310460D02*
X10464871Y-17300936D01*
X10464871Y-17300936D02*
X10474395Y-17281889D01*
X10474395Y-17281889D02*
X10474395Y-17243793D01*
X10474395Y-17243793D02*
X10464871Y-17224746D01*
X10464871Y-17224746D02*
X10455348Y-17215222D01*
X10455348Y-17215222D02*
X10436300Y-17205698D01*
X10712491Y-17319984D02*
X10712491Y-17119984D01*
X10798205Y-17319984D02*
X10798205Y-17215222D01*
X10798205Y-17215222D02*
X10788681Y-17196174D01*
X10788681Y-17196174D02*
X10769633Y-17186650D01*
X10769633Y-17186650D02*
X10741062Y-17186650D01*
X10741062Y-17186650D02*
X10722014Y-17196174D01*
X10722014Y-17196174D02*
X10712491Y-17205698D01*
X10922014Y-17319984D02*
X10902967Y-17310460D01*
X10902967Y-17310460D02*
X10893443Y-17300936D01*
X10893443Y-17300936D02*
X10883919Y-17281889D01*
X10883919Y-17281889D02*
X10883919Y-17224746D01*
X10883919Y-17224746D02*
X10893443Y-17205698D01*
X10893443Y-17205698D02*
X10902967Y-17196174D01*
X10902967Y-17196174D02*
X10922014Y-17186650D01*
X10922014Y-17186650D02*
X10950586Y-17186650D01*
X10950586Y-17186650D02*
X10969633Y-17196174D01*
X10969633Y-17196174D02*
X10979157Y-17205698D01*
X10979157Y-17205698D02*
X10988681Y-17224746D01*
X10988681Y-17224746D02*
X10988681Y-17281889D01*
X10988681Y-17281889D02*
X10979157Y-17300936D01*
X10979157Y-17300936D02*
X10969633Y-17310460D01*
X10969633Y-17310460D02*
X10950586Y-17319984D01*
X10950586Y-17319984D02*
X10922014Y-17319984D01*
X11102967Y-17319984D02*
X11083919Y-17310460D01*
X11083919Y-17310460D02*
X11074395Y-17291412D01*
X11074395Y-17291412D02*
X11074395Y-17119984D01*
X11255348Y-17310460D02*
X11236300Y-17319984D01*
X11236300Y-17319984D02*
X11198205Y-17319984D01*
X11198205Y-17319984D02*
X11179157Y-17310460D01*
X11179157Y-17310460D02*
X11169633Y-17291412D01*
X11169633Y-17291412D02*
X11169633Y-17215222D01*
X11169633Y-17215222D02*
X11179157Y-17196174D01*
X11179157Y-17196174D02*
X11198205Y-17186650D01*
X11198205Y-17186650D02*
X11236300Y-17186650D01*
X11236300Y-17186650D02*
X11255348Y-17196174D01*
X11255348Y-17196174D02*
X11264871Y-17215222D01*
X11264871Y-17215222D02*
X11264871Y-17234270D01*
X11264871Y-17234270D02*
X11169633Y-17253317D01*
X11341062Y-17310460D02*
X11360110Y-17319984D01*
X11360110Y-17319984D02*
X11398205Y-17319984D01*
X11398205Y-17319984D02*
X11417252Y-17310460D01*
X11417252Y-17310460D02*
X11426776Y-17291412D01*
X11426776Y-17291412D02*
X11426776Y-17281889D01*
X11426776Y-17281889D02*
X11417252Y-17262841D01*
X11417252Y-17262841D02*
X11398205Y-17253317D01*
X11398205Y-17253317D02*
X11369633Y-17253317D01*
X11369633Y-17253317D02*
X11350586Y-17243793D01*
X11350586Y-17243793D02*
X11341062Y-17224746D01*
X11341062Y-17224746D02*
X11341062Y-17215222D01*
X11341062Y-17215222D02*
X11350586Y-17196174D01*
X11350586Y-17196174D02*
X11369633Y-17186650D01*
X11369633Y-17186650D02*
X11398205Y-17186650D01*
X11398205Y-17186650D02*
X11417252Y-17196174D01*
X11493443Y-17396174D02*
X11502967Y-17386650D01*
X11502967Y-17386650D02*
X11522014Y-17358079D01*
X11522014Y-17358079D02*
X11531538Y-17339031D01*
X11531538Y-17339031D02*
X11541062Y-17310460D01*
X11541062Y-17310460D02*
X11550586Y-17262841D01*
X11550586Y-17262841D02*
X11550586Y-17224746D01*
X11550586Y-17224746D02*
X11541062Y-17177127D01*
X11541062Y-17177127D02*
X11531538Y-17148555D01*
X11531538Y-17148555D02*
X11522014Y-17129508D01*
X11522014Y-17129508D02*
X11502967Y-17100936D01*
X11502967Y-17100936D02*
X11493443Y-17091412D01*
X11855348Y-17396174D02*
X11845824Y-17386650D01*
X11845824Y-17386650D02*
X11826776Y-17358079D01*
X11826776Y-17358079D02*
X11817252Y-17339031D01*
X11817252Y-17339031D02*
X11807729Y-17310460D01*
X11807729Y-17310460D02*
X11798205Y-17262841D01*
X11798205Y-17262841D02*
X11798205Y-17224746D01*
X11798205Y-17224746D02*
X11807729Y-17177127D01*
X11807729Y-17177127D02*
X11817252Y-17148555D01*
X11817252Y-17148555D02*
X11826776Y-17129508D01*
X11826776Y-17129508D02*
X11845824Y-17100936D01*
X11845824Y-17100936D02*
X11855348Y-17091412D01*
X11931538Y-17186650D02*
X11931538Y-17319984D01*
X11931538Y-17205698D02*
X11941062Y-17196174D01*
X11941062Y-17196174D02*
X11960110Y-17186650D01*
X11960110Y-17186650D02*
X11988681Y-17186650D01*
X11988681Y-17186650D02*
X12007729Y-17196174D01*
X12007729Y-17196174D02*
X12017252Y-17215222D01*
X12017252Y-17215222D02*
X12017252Y-17319984D01*
X12141062Y-17319984D02*
X12122014Y-17310460D01*
X12122014Y-17310460D02*
X12112491Y-17300936D01*
X12112491Y-17300936D02*
X12102967Y-17281889D01*
X12102967Y-17281889D02*
X12102967Y-17224746D01*
X12102967Y-17224746D02*
X12112491Y-17205698D01*
X12112491Y-17205698D02*
X12122014Y-17196174D01*
X12122014Y-17196174D02*
X12141062Y-17186650D01*
X12141062Y-17186650D02*
X12169633Y-17186650D01*
X12169633Y-17186650D02*
X12188681Y-17196174D01*
X12188681Y-17196174D02*
X12198205Y-17205698D01*
X12198205Y-17205698D02*
X12207729Y-17224746D01*
X12207729Y-17224746D02*
X12207729Y-17281889D01*
X12207729Y-17281889D02*
X12198205Y-17300936D01*
X12198205Y-17300936D02*
X12188681Y-17310460D01*
X12188681Y-17310460D02*
X12169633Y-17319984D01*
X12169633Y-17319984D02*
X12141062Y-17319984D01*
X12264872Y-17186650D02*
X12341062Y-17186650D01*
X12293443Y-17119984D02*
X12293443Y-17291412D01*
X12293443Y-17291412D02*
X12302967Y-17310460D01*
X12302967Y-17310460D02*
X12322014Y-17319984D01*
X12322014Y-17319984D02*
X12341062Y-17319984D01*
X12560110Y-17186650D02*
X12560110Y-17386650D01*
X12560110Y-17196174D02*
X12579157Y-17186650D01*
X12579157Y-17186650D02*
X12617253Y-17186650D01*
X12617253Y-17186650D02*
X12636300Y-17196174D01*
X12636300Y-17196174D02*
X12645824Y-17205698D01*
X12645824Y-17205698D02*
X12655348Y-17224746D01*
X12655348Y-17224746D02*
X12655348Y-17281889D01*
X12655348Y-17281889D02*
X12645824Y-17300936D01*
X12645824Y-17300936D02*
X12636300Y-17310460D01*
X12636300Y-17310460D02*
X12617253Y-17319984D01*
X12617253Y-17319984D02*
X12579157Y-17319984D01*
X12579157Y-17319984D02*
X12560110Y-17310460D01*
X12769633Y-17319984D02*
X12750586Y-17310460D01*
X12750586Y-17310460D02*
X12741062Y-17291412D01*
X12741062Y-17291412D02*
X12741062Y-17119984D01*
X12931538Y-17319984D02*
X12931538Y-17215222D01*
X12931538Y-17215222D02*
X12922014Y-17196174D01*
X12922014Y-17196174D02*
X12902967Y-17186650D01*
X12902967Y-17186650D02*
X12864872Y-17186650D01*
X12864872Y-17186650D02*
X12845824Y-17196174D01*
X12931538Y-17310460D02*
X12912491Y-17319984D01*
X12912491Y-17319984D02*
X12864872Y-17319984D01*
X12864872Y-17319984D02*
X12845824Y-17310460D01*
X12845824Y-17310460D02*
X12836300Y-17291412D01*
X12836300Y-17291412D02*
X12836300Y-17272365D01*
X12836300Y-17272365D02*
X12845824Y-17253317D01*
X12845824Y-17253317D02*
X12864872Y-17243793D01*
X12864872Y-17243793D02*
X12912491Y-17243793D01*
X12912491Y-17243793D02*
X12931538Y-17234270D01*
X12998205Y-17186650D02*
X13074395Y-17186650D01*
X13026776Y-17119984D02*
X13026776Y-17291412D01*
X13026776Y-17291412D02*
X13036300Y-17310460D01*
X13036300Y-17310460D02*
X13055348Y-17319984D01*
X13055348Y-17319984D02*
X13074395Y-17319984D01*
X13217253Y-17310460D02*
X13198205Y-17319984D01*
X13198205Y-17319984D02*
X13160110Y-17319984D01*
X13160110Y-17319984D02*
X13141062Y-17310460D01*
X13141062Y-17310460D02*
X13131538Y-17291412D01*
X13131538Y-17291412D02*
X13131538Y-17215222D01*
X13131538Y-17215222D02*
X13141062Y-17196174D01*
X13141062Y-17196174D02*
X13160110Y-17186650D01*
X13160110Y-17186650D02*
X13198205Y-17186650D01*
X13198205Y-17186650D02*
X13217253Y-17196174D01*
X13217253Y-17196174D02*
X13226776Y-17215222D01*
X13226776Y-17215222D02*
X13226776Y-17234270D01*
X13226776Y-17234270D02*
X13131538Y-17253317D01*
X13398205Y-17319984D02*
X13398205Y-17119984D01*
X13398205Y-17310460D02*
X13379157Y-17319984D01*
X13379157Y-17319984D02*
X13341062Y-17319984D01*
X13341062Y-17319984D02*
X13322014Y-17310460D01*
X13322014Y-17310460D02*
X13312491Y-17300936D01*
X13312491Y-17300936D02*
X13302967Y-17281889D01*
X13302967Y-17281889D02*
X13302967Y-17224746D01*
X13302967Y-17224746D02*
X13312491Y-17205698D01*
X13312491Y-17205698D02*
X13322014Y-17196174D01*
X13322014Y-17196174D02*
X13341062Y-17186650D01*
X13341062Y-17186650D02*
X13379157Y-17186650D01*
X13379157Y-17186650D02*
X13398205Y-17196174D01*
X13474395Y-17396174D02*
X13483919Y-17386650D01*
X13483919Y-17386650D02*
X13502967Y-17358079D01*
X13502967Y-17358079D02*
X13512491Y-17339031D01*
X13512491Y-17339031D02*
X13522014Y-17310460D01*
X13522014Y-17310460D02*
X13531538Y-17262841D01*
X13531538Y-17262841D02*
X13531538Y-17224746D01*
X13531538Y-17224746D02*
X13522014Y-17177127D01*
X13522014Y-17177127D02*
X13512491Y-17148555D01*
X13512491Y-17148555D02*
X13502967Y-17129508D01*
X13502967Y-17129508D02*
X13483919Y-17100936D01*
X13483919Y-17100936D02*
X13474395Y-17091412D01*
M02*
