M48
; DRILL file {KiCad 7.0.9} date Thu Dec 28 16:55:37 2023
; FORMAT={-:-/ absolute / metric / decimal}
; #@! TF.CreationDate,2023-12-28T16:55:37-08:00
; #@! TF.GenerationSoftware,Kicad,Pcbnew,7.0.9
; #@! TF.FileFunction,Plated,1,2,PTH
FMAT,2
METRIC
; #@! TA.AperFunction,Plated,PTH,ViaDrill
T1C0.400
; #@! TA.AperFunction,Plated,PTH,ComponentDrill
T2C0.500
; #@! TA.AperFunction,Plated,PTH,ComponentDrill
T3C0.714
; #@! TA.AperFunction,Plated,PTH,ComponentDrill
T4C0.850
; #@! TA.AperFunction,Plated,PTH,ComponentDrill
T5C0.900
; #@! TA.AperFunction,Plated,PTH,ComponentDrill
T6C1.000
; #@! TA.AperFunction,Plated,PTH,ComponentDrill
T7C1.020
; #@! TA.AperFunction,Plated,PTH,ComponentDrill
T8C1.143
; #@! TA.AperFunction,Plated,PTH,ComponentDrill
T9C1.854
; #@! TA.AperFunction,Plated,PTH,ComponentDrill
T10C3.302
%
G90
G05
T1
X68.834Y-58.42
X69.088Y-151.638
X71.247Y-67.945
X71.628Y-148.082
X71.882Y-78.74
X72.009Y-115.697
X72.136Y-61.976
X72.136Y-132.08
X72.517Y-73.279
X73.025Y-84.201
X73.279Y-91.567
X77.47Y-102.235
X77.851Y-81.407
X78.994Y-91.567
X79.375Y-61.849
X79.629Y-67.691
X79.756Y-79.248
X79.883Y-111.252
X80.645Y-74.295
X81.153Y-81.407
X81.28Y-93.218
X81.661Y-149.987
X82.296Y-161.798
X82.677Y-51.562
X82.931Y-81.407
X83.185Y-135.128
X83.439Y-56.896
X83.566Y-113.284
X84.582Y-158.496
X84.709Y-70.231
X84.963Y-134.747
X85.09Y-105.41
X85.09Y-124.841
X85.852Y-81.915
X85.852Y-91.821
X86.106Y-103.759
X86.272Y-93.218
X87.122Y-104.902
X87.122Y-110.871
X87.249Y-81.534
X87.249Y-84.455
X87.376Y-117.856
X87.503Y-121.666
X87.757Y-124.587
X87.921Y-119.253
X88.011Y-103.251
X88.138Y-72.695
X88.265Y-93.218
X88.519Y-97.79
X88.646Y-132.969
X88.773Y-146.939
X89.154Y-61.722
X89.281Y-92.075
X89.408Y-136.906
X89.535Y-119.253
X89.535Y-121.031
X89.662Y-55.118
X89.789Y-109.093
X90.551Y-133.985
X90.551Y-139.192
X90.805Y-81.915
X91.192Y-150.241
X91.821Y-121.031
X92.456Y-132.842
X92.964Y-78.613
X92.964Y-89.154
X93.091Y-126.746
X93.091Y-141.859
X93.345Y-101.473
X93.472Y-113.03
X93.98Y-122.301
X94.488Y-119.888
X94.488Y-152.019
X94.805Y-71.691
X94.869Y-73.787
X94.869Y-80.772
X94.996Y-75.946
X95.377Y-92.202
X95.377Y-158.242
X95.504Y-48.514
X96.52Y-55.88
X96.52Y-120.269
X96.774Y-94.742
X97.028Y-146.177
X97.282Y-104.267
X97.624Y-147.32
X97.638Y-153.63
X97.663Y-117.348
X97.917Y-130.683
X98.501Y-75.946
X98.552Y-110.236
X98.552Y-122.936
X98.65Y-103.222
X99.187Y-70.231
X99.365Y-60.858
X99.416Y-48.463
X99.568Y-51.613
X99.695Y-147.066
X99.822Y-76.835
X100.076Y-110.49
X100.076Y-116.078
X100.203Y-88.138
X100.33Y-100.838
X100.584Y-72.644
X100.711Y-106.045
X101.092Y-109.474
X101.092Y-140.97
X101.131Y-70.358
X101.219Y-120.904
X101.473Y-66.802
X101.849Y-133.991
X101.854Y-67.945
X101.854Y-126.111
X102.489Y-56.769
X102.489Y-133.223
X102.997Y-70.358
X102.997Y-117.221
X103.124Y-118.618
X103.378Y-104.902
X104.267Y-75.819
X105.791Y-118.618
X105.918Y-75.692
X106.045Y-100.457
X106.045Y-104.394
X106.426Y-51.689
X107.442Y-55.118
X107.696Y-100.203
X108.839Y-68.58
X109.601Y-142.367
X110.109Y-75.692
X110.109Y-157.607
X110.617Y-97.028
X110.744Y-152.4
X111.125Y-159.385
X111.506Y-82.169
X111.823Y-68.897
X112.268Y-137.668
X112.503Y-77.362
X112.522Y-121.412
X112.776Y-89.281
X112.903Y-101.473
X112.903Y-102.489
X112.903Y-103.505
X112.903Y-104.648
X112.903Y-109.347
X112.903Y-116.332
X112.903Y-150.368
X112.903Y-151.511
X113.03Y-54.991
X113.03Y-69.215
X113.03Y-94.234
X113.03Y-117.348
X113.03Y-118.618
X113.03Y-130.81
X113.03Y-146.939
X113.03Y-148.844
X113.03Y-152.781
X113.157Y-60.579
X113.157Y-67.564
X113.157Y-120.015
X113.157Y-122.809
X113.176Y-61.976
X113.411Y-158.369
X116.375Y-112.395
X116.459Y-57.531
X116.459Y-69.723
X116.459Y-74.803
X116.459Y-84.582
X116.459Y-93.091
X116.459Y-103.251
X116.459Y-106.68
X116.459Y-115.951
X116.459Y-120.015
X116.459Y-122.809
X116.459Y-125.222
X116.459Y-126.746
X116.459Y-147.447
X116.459Y-148.844
X116.586Y-54.356
X116.586Y-60.96
X116.586Y-64.516
X116.586Y-67.564
X116.586Y-94.234
X116.586Y-98.933
X116.586Y-100.584
X116.586Y-111.252
X116.586Y-117.348
X116.586Y-118.618
X116.586Y-121.158
X116.586Y-150.368
X116.586Y-151.511
X116.586Y-152.781
X116.586Y-154.94
X116.586Y-156.718
X116.713Y-61.976
X116.713Y-63.119
X116.713Y-96.647
X116.713Y-102.235
X118.11Y-162.052
X118.618Y-134.239
X119.507Y-109.347
X120.015Y-100.838
X120.269Y-60.706
X120.269Y-153.797
X120.396Y-53.086
X120.396Y-93.091
X120.65Y-57.531
X121.793Y-114.808
X122.301Y-102.997
X122.301Y-107.188
X123.571Y-157.607
X124.46Y-115.951
X124.968Y-54.864
X124.968Y-104.902
X125.603Y-157.734
X125.73Y-109.22
X126.111Y-117.221
X126.238Y-153.162
X126.619Y-98.425
X126.873Y-61.595
X128.778Y-49.657
X129.794Y-162.179
X129.921Y-107.315
X132.588Y-151.003
X132.715Y-96.012
X132.715Y-118.237
X132.842Y-63.754
T2
X72.253Y-158.242
X72.482Y-52.946
X72.956Y-156.545
X72.956Y-159.939
X73.185Y-51.249
X73.185Y-54.643
X74.653Y-155.842
X74.653Y-160.642
X74.882Y-50.546
X74.882Y-55.346
X76.35Y-156.545
X76.35Y-159.939
X76.579Y-51.249
X76.579Y-54.643
X77.053Y-158.242
X77.282Y-52.946
T3
X90.808Y-101.443
X90.833Y-113.254
X93.348Y-98.903
X93.373Y-110.714
X95.888Y-101.443
X95.913Y-113.254
T5
X110.772Y-54.73
X110.772Y-57.27
X110.772Y-62.23
X110.772Y-64.77
T6
X74.569Y-94.977
X74.609Y-131.807
X74.609Y-150.222
X74.614Y-113.392
X77.069Y-94.977
X77.109Y-131.807
X77.109Y-150.222
X77.114Y-113.392
X79.569Y-94.977
X79.609Y-131.807
X79.609Y-150.222
X79.614Y-113.392
X86.084Y-74.676
X86.129Y-49.784
X87.785Y-156.972
X88.669Y-49.784
X91.084Y-74.676
X91.132Y-87.503
X96.132Y-87.503
X97.663Y-156.972
X100.866Y-49.784
X103.406Y-49.784
X122.301Y-65.659
X122.301Y-94.234
X122.301Y-120.269
X122.301Y-148.844
X124.841Y-65.659
X124.841Y-94.234
X124.841Y-120.269
X124.841Y-148.844
X127.381Y-56.134
X127.381Y-58.674
X127.381Y-65.659
X127.381Y-94.234
X127.381Y-101.214
X127.381Y-103.754
X127.381Y-110.744
X127.381Y-113.284
X127.381Y-120.269
X127.381Y-148.844
X127.381Y-155.829
X127.381Y-158.369
X129.921Y-56.134
X129.921Y-58.674
X129.921Y-65.659
X129.921Y-94.234
X129.921Y-101.214
X129.921Y-103.754
X129.921Y-110.744
X129.921Y-113.284
X129.921Y-120.269
X129.921Y-148.844
X129.921Y-155.829
X129.921Y-158.369
X132.461Y-65.659
X132.461Y-94.234
X132.461Y-120.269
X132.461Y-148.844
T7
X74.765Y-64.835
X74.765Y-67.835
X74.765Y-70.835
X103.347Y-72.771
X106.347Y-72.771
X109.347Y-72.771
T8
X112.395Y-49.478
T9
X93.218Y-56.134
X93.218Y-63.754
X99.568Y-56.134
X99.568Y-63.754
T10
X74.653Y-158.242
X74.882Y-52.946
T4
X104.403Y-83.889G85X104.403Y-85.839
G05
X104.403Y-96.942G85X104.403Y-98.892
G05
X104.403Y-111.293G85X104.403Y-113.243
G05
X104.403Y-125.644G85X104.403Y-127.594
G05
X104.403Y-139.995G85X104.403Y-141.945
G05
X104.403Y-154.346G85X104.403Y-156.296
G05
X105.728Y-80.164G85X107.678Y-80.164
G05
X105.728Y-93.217G85X107.678Y-93.217
G05
X105.728Y-107.568G85X107.678Y-107.568
G05
X105.728Y-121.919G85X107.678Y-121.919
G05
X105.728Y-136.27G85X107.678Y-136.27
G05
X105.728Y-150.621G85X107.678Y-150.621
G05
X112.503Y-83.989G85X112.503Y-85.939
G05
X112.503Y-97.042G85X112.503Y-98.992
G05
X112.503Y-111.393G85X112.503Y-113.343
G05
X112.503Y-125.744G85X112.503Y-127.694
G05
X112.503Y-140.095G85X112.503Y-142.045
G05
X112.503Y-154.446G85X112.503Y-156.396
G05
T0
M30
