G04 #@! TF.GenerationSoftware,KiCad,Pcbnew,7.0.9*
G04 #@! TF.CreationDate,2023-12-28T16:55:22-08:00*
G04 #@! TF.ProjectId,breadboard audio breakout,62726561-6462-46f6-9172-642061756469,rev?*
G04 #@! TF.SameCoordinates,Original*
G04 #@! TF.FileFunction,Paste,Bot*
G04 #@! TF.FilePolarity,Positive*
%FSLAX46Y46*%
G04 Gerber Fmt 4.6, Leading zero omitted, Abs format (unit mm)*
G04 Created by KiCad (PCBNEW 7.0.9) date 2023-12-28 16:55:22*
%MOMM*%
%LPD*%
G01*
G04 APERTURE LIST*
G04 Aperture macros list*
%AMRoundRect*
0 Rectangle with rounded corners*
0 $1 Rounding radius*
0 $2 $3 $4 $5 $6 $7 $8 $9 X,Y pos of 4 corners*
0 Add a 4 corners polygon primitive as box body*
4,1,4,$2,$3,$4,$5,$6,$7,$8,$9,$2,$3,0*
0 Add four circle primitives for the rounded corners*
1,1,$1+$1,$2,$3*
1,1,$1+$1,$4,$5*
1,1,$1+$1,$6,$7*
1,1,$1+$1,$8,$9*
0 Add four rect primitives between the rounded corners*
20,1,$1+$1,$2,$3,$4,$5,0*
20,1,$1+$1,$4,$5,$6,$7,0*
20,1,$1+$1,$6,$7,$8,$9,0*
20,1,$1+$1,$8,$9,$2,$3,0*%
G04 Aperture macros list end*
%ADD10RoundRect,0.250000X-0.450000X0.350000X-0.450000X-0.350000X0.450000X-0.350000X0.450000X0.350000X0*%
%ADD11RoundRect,0.250000X-0.337500X-0.475000X0.337500X-0.475000X0.337500X0.475000X-0.337500X0.475000X0*%
%ADD12RoundRect,0.250000X-0.350000X-0.450000X0.350000X-0.450000X0.350000X0.450000X-0.350000X0.450000X0*%
%ADD13RoundRect,0.250000X-0.250000X-0.250000X0.250000X-0.250000X0.250000X0.250000X-0.250000X0.250000X0*%
%ADD14RoundRect,0.250000X0.450000X-0.350000X0.450000X0.350000X-0.450000X0.350000X-0.450000X-0.350000X0*%
%ADD15RoundRect,0.250000X-0.400000X-0.625000X0.400000X-0.625000X0.400000X0.625000X-0.400000X0.625000X0*%
%ADD16RoundRect,0.250000X0.350000X0.450000X-0.350000X0.450000X-0.350000X-0.450000X0.350000X-0.450000X0*%
%ADD17RoundRect,0.250000X-0.475000X0.337500X-0.475000X-0.337500X0.475000X-0.337500X0.475000X0.337500X0*%
%ADD18RoundRect,0.250000X-0.625000X0.400000X-0.625000X-0.400000X0.625000X-0.400000X0.625000X0.400000X0*%
%ADD19RoundRect,0.090000X0.895000X0.210000X-0.895000X0.210000X-0.895000X-0.210000X0.895000X-0.210000X0*%
G04 APERTURE END LIST*
D10*
X98552000Y-112538000D03*
X98552000Y-114538000D03*
D11*
X85949801Y-126873000D03*
X88024801Y-126873000D03*
D12*
X93107000Y-118237000D03*
X95107000Y-118237000D03*
D13*
X96921000Y-107569000D03*
X99421000Y-107569000D03*
D14*
X98679000Y-101203000D03*
X98679000Y-99203000D03*
D15*
X96849600Y-132969000D03*
X99949600Y-132969000D03*
D16*
X106664000Y-62484000D03*
X104664000Y-62484000D03*
D10*
X86995000Y-130064000D03*
X86995000Y-132064000D03*
D17*
X97917000Y-127080100D03*
X97917000Y-129155100D03*
D11*
X91545500Y-107569000D03*
X93620500Y-107569000D03*
D10*
X101854000Y-128133600D03*
X101854000Y-130133600D03*
X101727000Y-97917000D03*
X101727000Y-99917000D03*
X106680000Y-112284000D03*
X106680000Y-114284000D03*
D18*
X90551000Y-142061000D03*
X90551000Y-145161000D03*
D13*
X91587000Y-94869000D03*
X94087000Y-94869000D03*
D11*
X86973500Y-94869000D03*
X89048500Y-94869000D03*
D10*
X87376000Y-114189000D03*
X87376000Y-116189000D03*
D16*
X106664000Y-56769000D03*
X104664000Y-56769000D03*
D10*
X104394000Y-129810000D03*
X104394000Y-131810000D03*
X106680000Y-85106000D03*
X106680000Y-87106000D03*
D19*
X95504000Y-123063000D03*
X95504000Y-124333000D03*
X95504000Y-125603000D03*
X95504000Y-126873000D03*
X95504000Y-128143000D03*
X95504000Y-129413000D03*
X95504000Y-130683000D03*
X90554000Y-130683000D03*
X90554000Y-129413000D03*
X90554000Y-128143000D03*
X90554000Y-126873000D03*
X90554000Y-125603000D03*
X90554000Y-124333000D03*
X90554000Y-123063000D03*
M02*
