G04 #@! TF.GenerationSoftware,KiCad,Pcbnew,7.0.9*
G04 #@! TF.CreationDate,2023-12-28T16:55:22-08:00*
G04 #@! TF.ProjectId,breadboard audio breakout,62726561-6462-46f6-9172-642061756469,rev?*
G04 #@! TF.SameCoordinates,Original*
G04 #@! TF.FileFunction,Soldermask,Top*
G04 #@! TF.FilePolarity,Negative*
%FSLAX46Y46*%
G04 Gerber Fmt 4.6, Leading zero omitted, Abs format (unit mm)*
G04 Created by KiCad (PCBNEW 7.0.9) date 2023-12-28 16:55:22*
%MOMM*%
%LPD*%
G01*
G04 APERTURE LIST*
G04 Aperture macros list*
%AMRoundRect*
0 Rectangle with rounded corners*
0 $1 Rounding radius*
0 $2 $3 $4 $5 $6 $7 $8 $9 X,Y pos of 4 corners*
0 Add a 4 corners polygon primitive as box body*
4,1,4,$2,$3,$4,$5,$6,$7,$8,$9,$2,$3,0*
0 Add four circle primitives for the rounded corners*
1,1,$1+$1,$2,$3*
1,1,$1+$1,$4,$5*
1,1,$1+$1,$6,$7*
1,1,$1+$1,$8,$9*
0 Add four rect primitives between the rounded corners*
20,1,$1+$1,$2,$3,$4,$5,0*
20,1,$1+$1,$4,$5,$6,$7,0*
20,1,$1+$1,$6,$7,$8,$9,0*
20,1,$1+$1,$8,$9,$2,$3,0*%
G04 Aperture macros list end*
%ADD10O,1.700000X3.800000*%
%ADD11O,3.800000X1.700000*%
%ADD12C,1.370000*%
%ADD13RoundRect,0.050000X0.760000X-0.760000X0.760000X0.760000X-0.760000X0.760000X-0.760000X-0.760000X0*%
%ADD14C,1.620000*%
%ADD15C,1.600000*%
%ADD16RoundRect,0.050000X0.850000X-0.850000X0.850000X0.850000X-0.850000X0.850000X-0.850000X-0.850000X0*%
%ADD17O,1.800000X1.800000*%
%ADD18C,4.100000*%
%ADD19C,1.900000*%
%ADD20RoundRect,0.050000X-0.850000X-0.850000X0.850000X-0.850000X0.850000X0.850000X-0.850000X0.850000X0*%
%ADD21RoundRect,0.050000X-1.000000X-1.000000X1.000000X-1.000000X1.000000X1.000000X-1.000000X1.000000X0*%
%ADD22C,2.100000*%
%ADD23C,0.900000*%
%ADD24C,6.700000*%
%ADD25RoundRect,0.050000X-0.900000X0.900000X-0.900000X-0.900000X0.900000X-0.900000X0.900000X0.900000X0*%
%ADD26RoundRect,0.050000X-0.760000X-0.760000X0.760000X-0.760000X0.760000X0.760000X-0.760000X0.760000X0*%
%ADD27C,2.600000*%
%ADD28RoundRect,0.050000X0.850000X0.850000X-0.850000X0.850000X-0.850000X-0.850000X0.850000X-0.850000X0*%
%ADD29RoundRect,0.050000X-0.850000X0.850000X-0.850000X-0.850000X0.850000X-0.850000X0.850000X0.850000X0*%
%ADD30RoundRect,0.102000X0.611000X0.611000X-0.611000X0.611000X-0.611000X-0.611000X0.611000X-0.611000X0*%
%ADD31C,1.426000*%
G04 APERTURE END LIST*
D10*
X104403101Y-97917000D03*
X112503100Y-98017076D03*
D11*
X106703101Y-93217078D03*
D12*
X76725001Y-73835477D03*
X76725001Y-61835501D03*
D13*
X74765001Y-64835500D03*
D14*
X74765001Y-67835499D03*
X74765001Y-70835498D03*
D15*
X112395000Y-49478000D03*
D16*
X86129001Y-49784000D03*
D17*
X88669001Y-49784000D03*
D16*
X100866001Y-49784000D03*
D17*
X103406001Y-49784000D03*
D18*
X72708802Y-124806924D03*
X81508802Y-124806924D03*
D19*
X74608802Y-131806924D03*
X77108802Y-131806924D03*
X79608802Y-131806924D03*
D10*
X104403101Y-112268000D03*
X112503100Y-112368076D03*
D11*
X106703101Y-107568078D03*
D18*
X72708802Y-143221924D03*
X81508802Y-143221924D03*
D19*
X74608802Y-150221924D03*
X77108802Y-150221924D03*
X79608802Y-150221924D03*
D20*
X87785001Y-156972000D03*
D10*
X104403101Y-126619000D03*
X112503100Y-126719076D03*
D11*
X106703101Y-121919078D03*
D21*
X91132324Y-87503000D03*
D22*
X96132324Y-87503000D03*
D20*
X97663000Y-156972000D03*
D23*
X72481801Y-52946000D03*
X73184745Y-51248944D03*
X73184745Y-54643056D03*
X74881801Y-50546000D03*
D24*
X74881801Y-52946000D03*
D23*
X74881801Y-55346000D03*
X76578857Y-51248944D03*
X76578857Y-54643056D03*
X77281801Y-52946000D03*
D10*
X104403101Y-84864061D03*
X112503100Y-84964137D03*
D11*
X106703101Y-80164139D03*
D25*
X110772001Y-62230000D03*
D19*
X110772001Y-64770000D03*
D12*
X100347023Y-74731000D03*
X112346999Y-74731000D03*
D26*
X109347000Y-72771000D03*
D14*
X106347001Y-72771000D03*
X103347002Y-72771000D03*
D10*
X104403101Y-155321000D03*
X112503100Y-155421076D03*
D11*
X106703101Y-150621078D03*
D27*
X99568000Y-63754000D03*
X93218000Y-63754000D03*
X99568000Y-56134000D03*
X93218000Y-56134000D03*
D10*
X104403101Y-140970000D03*
X112503100Y-141070076D03*
D11*
X106703101Y-136270078D03*
D18*
X72668802Y-87976924D03*
X81468802Y-87976924D03*
D19*
X74568802Y-94976924D03*
X77068802Y-94976924D03*
X79568802Y-94976924D03*
D25*
X110772001Y-54730000D03*
D19*
X110772001Y-57270000D03*
D18*
X72713802Y-106391924D03*
X81513802Y-106391924D03*
D19*
X74613802Y-113391924D03*
X77113802Y-113391924D03*
X79613802Y-113391924D03*
D23*
X72253201Y-158242000D03*
X72956145Y-156544944D03*
X72956145Y-159939056D03*
X74653201Y-155842000D03*
D24*
X74653201Y-158242000D03*
D23*
X74653201Y-160642000D03*
X76350257Y-156544944D03*
X76350257Y-159939056D03*
X77053201Y-158242000D03*
D21*
X86084400Y-74676000D03*
D22*
X91084400Y-74676000D03*
D28*
X129921000Y-155829000D03*
D17*
X127381000Y-155829000D03*
X129921000Y-158369000D03*
X127381000Y-158369000D03*
D28*
X129921000Y-56134000D03*
D17*
X127381000Y-56134000D03*
X129921000Y-58674000D03*
X127381000Y-58674000D03*
D29*
X122301000Y-148844000D03*
D17*
X124841000Y-148844000D03*
X127381000Y-148844000D03*
X129921000Y-148844000D03*
X132461000Y-148844000D03*
D29*
X122301000Y-65659000D03*
D17*
X124841000Y-65659000D03*
X127381000Y-65659000D03*
X129921000Y-65659000D03*
X132461000Y-65659000D03*
D29*
X122301000Y-120269000D03*
D17*
X124841000Y-120269000D03*
X127381000Y-120269000D03*
X129921000Y-120269000D03*
X132461000Y-120269000D03*
D30*
X95887601Y-101443000D03*
D31*
X93347601Y-98903000D03*
X90807601Y-101443000D03*
D28*
X129921000Y-110744000D03*
D17*
X127381000Y-110744000D03*
X129921000Y-113284000D03*
X127381000Y-113284000D03*
D29*
X122301000Y-94234000D03*
D17*
X124841000Y-94234000D03*
X127381000Y-94234000D03*
X129921000Y-94234000D03*
X132461000Y-94234000D03*
D30*
X95913001Y-113254000D03*
D31*
X93373001Y-110714000D03*
X90833001Y-113254000D03*
D28*
X129921000Y-101214000D03*
D17*
X127381000Y-101214000D03*
X129921000Y-103754000D03*
X127381000Y-103754000D03*
M02*
