G04 #@! TF.GenerationSoftware,KiCad,Pcbnew,7.0.9*
G04 #@! TF.CreationDate,2023-12-28T16:55:22-08:00*
G04 #@! TF.ProjectId,breadboard audio breakout,62726561-6462-46f6-9172-642061756469,rev?*
G04 #@! TF.SameCoordinates,Original*
G04 #@! TF.FileFunction,Legend,Bot*
G04 #@! TF.FilePolarity,Positive*
%FSLAX46Y46*%
G04 Gerber Fmt 4.6, Leading zero omitted, Abs format (unit mm)*
G04 Created by KiCad (PCBNEW 7.0.9) date 2023-12-28 16:55:22*
%MOMM*%
%LPD*%
G01*
G04 APERTURE LIST*
G04 Aperture macros list*
%AMRoundRect*
0 Rectangle with rounded corners*
0 $1 Rounding radius*
0 $2 $3 $4 $5 $6 $7 $8 $9 X,Y pos of 4 corners*
0 Add a 4 corners polygon primitive as box body*
4,1,4,$2,$3,$4,$5,$6,$7,$8,$9,$2,$3,0*
0 Add four circle primitives for the rounded corners*
1,1,$1+$1,$2,$3*
1,1,$1+$1,$4,$5*
1,1,$1+$1,$6,$7*
1,1,$1+$1,$8,$9*
0 Add four rect primitives between the rounded corners*
20,1,$1+$1,$2,$3,$4,$5,0*
20,1,$1+$1,$4,$5,$6,$7,0*
20,1,$1+$1,$6,$7,$8,$9,0*
20,1,$1+$1,$8,$9,$2,$3,0*%
G04 Aperture macros list end*
%ADD10C,0.150000*%
%ADD11C,0.120000*%
%ADD12C,0.127000*%
%ADD13C,0.200000*%
%ADD14O,1.700000X3.800000*%
%ADD15O,3.800000X1.700000*%
%ADD16C,1.370000*%
%ADD17RoundRect,0.050000X0.760000X-0.760000X0.760000X0.760000X-0.760000X0.760000X-0.760000X-0.760000X0*%
%ADD18C,1.620000*%
%ADD19C,1.600000*%
%ADD20RoundRect,0.050000X0.850000X-0.850000X0.850000X0.850000X-0.850000X0.850000X-0.850000X-0.850000X0*%
%ADD21O,1.800000X1.800000*%
%ADD22C,4.100000*%
%ADD23C,1.900000*%
%ADD24RoundRect,0.050000X-0.850000X-0.850000X0.850000X-0.850000X0.850000X0.850000X-0.850000X0.850000X0*%
%ADD25RoundRect,0.050000X-1.000000X-1.000000X1.000000X-1.000000X1.000000X1.000000X-1.000000X1.000000X0*%
%ADD26C,2.100000*%
%ADD27C,0.900000*%
%ADD28C,6.700000*%
%ADD29RoundRect,0.050000X-0.900000X0.900000X-0.900000X-0.900000X0.900000X-0.900000X0.900000X0.900000X0*%
%ADD30RoundRect,0.050000X-0.760000X-0.760000X0.760000X-0.760000X0.760000X0.760000X-0.760000X0.760000X0*%
%ADD31C,2.600000*%
%ADD32RoundRect,0.050000X0.850000X0.850000X-0.850000X0.850000X-0.850000X-0.850000X0.850000X-0.850000X0*%
%ADD33RoundRect,0.300000X-0.450000X0.350000X-0.450000X-0.350000X0.450000X-0.350000X0.450000X0.350000X0*%
%ADD34RoundRect,0.300000X-0.337500X-0.475000X0.337500X-0.475000X0.337500X0.475000X-0.337500X0.475000X0*%
%ADD35RoundRect,0.300000X-0.350000X-0.450000X0.350000X-0.450000X0.350000X0.450000X-0.350000X0.450000X0*%
%ADD36RoundRect,0.300000X-0.250000X-0.250000X0.250000X-0.250000X0.250000X0.250000X-0.250000X0.250000X0*%
%ADD37RoundRect,0.300000X0.450000X-0.350000X0.450000X0.350000X-0.450000X0.350000X-0.450000X-0.350000X0*%
%ADD38RoundRect,0.050000X-0.850000X0.850000X-0.850000X-0.850000X0.850000X-0.850000X0.850000X0.850000X0*%
%ADD39RoundRect,0.300000X-0.400000X-0.625000X0.400000X-0.625000X0.400000X0.625000X-0.400000X0.625000X0*%
%ADD40RoundRect,0.300000X0.350000X0.450000X-0.350000X0.450000X-0.350000X-0.450000X0.350000X-0.450000X0*%
%ADD41RoundRect,0.102000X0.611000X0.611000X-0.611000X0.611000X-0.611000X-0.611000X0.611000X-0.611000X0*%
%ADD42C,1.426000*%
%ADD43RoundRect,0.300000X-0.475000X0.337500X-0.475000X-0.337500X0.475000X-0.337500X0.475000X0.337500X0*%
%ADD44RoundRect,0.300000X-0.625000X0.400000X-0.625000X-0.400000X0.625000X-0.400000X0.625000X0.400000X0*%
%ADD45RoundRect,0.140000X0.895000X0.210000X-0.895000X0.210000X-0.895000X-0.210000X0.895000X-0.210000X0*%
G04 APERTURE END LIST*
D10*
X105471809Y-58863580D02*
X105519428Y-58911200D01*
X105519428Y-58911200D02*
X105662285Y-58958819D01*
X105662285Y-58958819D02*
X105757523Y-58958819D01*
X105757523Y-58958819D02*
X105900380Y-58911200D01*
X105900380Y-58911200D02*
X105995618Y-58815961D01*
X105995618Y-58815961D02*
X106043237Y-58720723D01*
X106043237Y-58720723D02*
X106090856Y-58530247D01*
X106090856Y-58530247D02*
X106090856Y-58387390D01*
X106090856Y-58387390D02*
X106043237Y-58196914D01*
X106043237Y-58196914D02*
X105995618Y-58101676D01*
X105995618Y-58101676D02*
X105900380Y-58006438D01*
X105900380Y-58006438D02*
X105757523Y-57958819D01*
X105757523Y-57958819D02*
X105662285Y-57958819D01*
X105662285Y-57958819D02*
X105519428Y-58006438D01*
X105519428Y-58006438D02*
X105471809Y-58054057D01*
X104852761Y-57958819D02*
X104662285Y-57958819D01*
X104662285Y-57958819D02*
X104567047Y-58006438D01*
X104567047Y-58006438D02*
X104471809Y-58101676D01*
X104471809Y-58101676D02*
X104424190Y-58292152D01*
X104424190Y-58292152D02*
X104424190Y-58625485D01*
X104424190Y-58625485D02*
X104471809Y-58815961D01*
X104471809Y-58815961D02*
X104567047Y-58911200D01*
X104567047Y-58911200D02*
X104662285Y-58958819D01*
X104662285Y-58958819D02*
X104852761Y-58958819D01*
X104852761Y-58958819D02*
X104947999Y-58911200D01*
X104947999Y-58911200D02*
X105043237Y-58815961D01*
X105043237Y-58815961D02*
X105090856Y-58625485D01*
X105090856Y-58625485D02*
X105090856Y-58292152D01*
X105090856Y-58292152D02*
X105043237Y-58101676D01*
X105043237Y-58101676D02*
X104947999Y-58006438D01*
X104947999Y-58006438D02*
X104852761Y-57958819D01*
X103995618Y-58958819D02*
X103995618Y-57958819D01*
X103995618Y-57958819D02*
X103424190Y-58958819D01*
X103424190Y-58958819D02*
X103424190Y-57958819D01*
X102947999Y-58958819D02*
X102947999Y-57958819D01*
X102947999Y-57958819D02*
X102376571Y-58958819D01*
X102376571Y-58958819D02*
X102376571Y-57958819D01*
X101900380Y-58435009D02*
X101567047Y-58435009D01*
X101424190Y-58958819D02*
X101900380Y-58958819D01*
X101900380Y-58958819D02*
X101900380Y-57958819D01*
X101900380Y-57958819D02*
X101424190Y-57958819D01*
X100424190Y-58863580D02*
X100471809Y-58911200D01*
X100471809Y-58911200D02*
X100614666Y-58958819D01*
X100614666Y-58958819D02*
X100709904Y-58958819D01*
X100709904Y-58958819D02*
X100852761Y-58911200D01*
X100852761Y-58911200D02*
X100947999Y-58815961D01*
X100947999Y-58815961D02*
X100995618Y-58720723D01*
X100995618Y-58720723D02*
X101043237Y-58530247D01*
X101043237Y-58530247D02*
X101043237Y-58387390D01*
X101043237Y-58387390D02*
X100995618Y-58196914D01*
X100995618Y-58196914D02*
X100947999Y-58101676D01*
X100947999Y-58101676D02*
X100852761Y-58006438D01*
X100852761Y-58006438D02*
X100709904Y-57958819D01*
X100709904Y-57958819D02*
X100614666Y-57958819D01*
X100614666Y-57958819D02*
X100471809Y-58006438D01*
X100471809Y-58006438D02*
X100424190Y-58054057D01*
X100138475Y-57958819D02*
X99567047Y-57958819D01*
X99852761Y-58958819D02*
X99852761Y-57958819D01*
X98471808Y-58958819D02*
X98471808Y-57958819D01*
X98471808Y-57958819D02*
X98090856Y-57958819D01*
X98090856Y-57958819D02*
X97995618Y-58006438D01*
X97995618Y-58006438D02*
X97947999Y-58054057D01*
X97947999Y-58054057D02*
X97900380Y-58149295D01*
X97900380Y-58149295D02*
X97900380Y-58292152D01*
X97900380Y-58292152D02*
X97947999Y-58387390D01*
X97947999Y-58387390D02*
X97995618Y-58435009D01*
X97995618Y-58435009D02*
X98090856Y-58482628D01*
X98090856Y-58482628D02*
X98471808Y-58482628D01*
X97281332Y-57958819D02*
X97090856Y-57958819D01*
X97090856Y-57958819D02*
X96995618Y-58006438D01*
X96995618Y-58006438D02*
X96900380Y-58101676D01*
X96900380Y-58101676D02*
X96852761Y-58292152D01*
X96852761Y-58292152D02*
X96852761Y-58625485D01*
X96852761Y-58625485D02*
X96900380Y-58815961D01*
X96900380Y-58815961D02*
X96995618Y-58911200D01*
X96995618Y-58911200D02*
X97090856Y-58958819D01*
X97090856Y-58958819D02*
X97281332Y-58958819D01*
X97281332Y-58958819D02*
X97376570Y-58911200D01*
X97376570Y-58911200D02*
X97471808Y-58815961D01*
X97471808Y-58815961D02*
X97519427Y-58625485D01*
X97519427Y-58625485D02*
X97519427Y-58292152D01*
X97519427Y-58292152D02*
X97471808Y-58101676D01*
X97471808Y-58101676D02*
X97376570Y-58006438D01*
X97376570Y-58006438D02*
X97281332Y-57958819D01*
X96519427Y-57958819D02*
X96281332Y-58958819D01*
X96281332Y-58958819D02*
X96090856Y-58244533D01*
X96090856Y-58244533D02*
X95900380Y-58958819D01*
X95900380Y-58958819D02*
X95662285Y-57958819D01*
X95281332Y-58435009D02*
X94947999Y-58435009D01*
X94805142Y-58958819D02*
X95281332Y-58958819D01*
X95281332Y-58958819D02*
X95281332Y-57958819D01*
X95281332Y-57958819D02*
X94805142Y-57958819D01*
X93805142Y-58958819D02*
X94138475Y-58482628D01*
X94376570Y-58958819D02*
X94376570Y-57958819D01*
X94376570Y-57958819D02*
X93995618Y-57958819D01*
X93995618Y-57958819D02*
X93900380Y-58006438D01*
X93900380Y-58006438D02*
X93852761Y-58054057D01*
X93852761Y-58054057D02*
X93805142Y-58149295D01*
X93805142Y-58149295D02*
X93805142Y-58292152D01*
X93805142Y-58292152D02*
X93852761Y-58387390D01*
X93852761Y-58387390D02*
X93900380Y-58435009D01*
X93900380Y-58435009D02*
X93995618Y-58482628D01*
X93995618Y-58482628D02*
X94376570Y-58482628D01*
X92281332Y-58435009D02*
X92614665Y-58435009D01*
X92614665Y-58958819D02*
X92614665Y-57958819D01*
X92614665Y-57958819D02*
X92138475Y-57958819D01*
X91186094Y-58958819D02*
X91519427Y-58482628D01*
X91757522Y-58958819D02*
X91757522Y-57958819D01*
X91757522Y-57958819D02*
X91376570Y-57958819D01*
X91376570Y-57958819D02*
X91281332Y-58006438D01*
X91281332Y-58006438D02*
X91233713Y-58054057D01*
X91233713Y-58054057D02*
X91186094Y-58149295D01*
X91186094Y-58149295D02*
X91186094Y-58292152D01*
X91186094Y-58292152D02*
X91233713Y-58387390D01*
X91233713Y-58387390D02*
X91281332Y-58435009D01*
X91281332Y-58435009D02*
X91376570Y-58482628D01*
X91376570Y-58482628D02*
X91757522Y-58482628D01*
X90567046Y-57958819D02*
X90376570Y-57958819D01*
X90376570Y-57958819D02*
X90281332Y-58006438D01*
X90281332Y-58006438D02*
X90186094Y-58101676D01*
X90186094Y-58101676D02*
X90138475Y-58292152D01*
X90138475Y-58292152D02*
X90138475Y-58625485D01*
X90138475Y-58625485D02*
X90186094Y-58815961D01*
X90186094Y-58815961D02*
X90281332Y-58911200D01*
X90281332Y-58911200D02*
X90376570Y-58958819D01*
X90376570Y-58958819D02*
X90567046Y-58958819D01*
X90567046Y-58958819D02*
X90662284Y-58911200D01*
X90662284Y-58911200D02*
X90757522Y-58815961D01*
X90757522Y-58815961D02*
X90805141Y-58625485D01*
X90805141Y-58625485D02*
X90805141Y-58292152D01*
X90805141Y-58292152D02*
X90757522Y-58101676D01*
X90757522Y-58101676D02*
X90662284Y-58006438D01*
X90662284Y-58006438D02*
X90567046Y-57958819D01*
X89709903Y-58958819D02*
X89709903Y-57958819D01*
X89709903Y-57958819D02*
X89376570Y-58673104D01*
X89376570Y-58673104D02*
X89043237Y-57958819D01*
X89043237Y-57958819D02*
X89043237Y-58958819D01*
X87281332Y-58006438D02*
X87376570Y-57958819D01*
X87376570Y-57958819D02*
X87519427Y-57958819D01*
X87519427Y-57958819D02*
X87662284Y-58006438D01*
X87662284Y-58006438D02*
X87757522Y-58101676D01*
X87757522Y-58101676D02*
X87805141Y-58196914D01*
X87805141Y-58196914D02*
X87852760Y-58387390D01*
X87852760Y-58387390D02*
X87852760Y-58530247D01*
X87852760Y-58530247D02*
X87805141Y-58720723D01*
X87805141Y-58720723D02*
X87757522Y-58815961D01*
X87757522Y-58815961D02*
X87662284Y-58911200D01*
X87662284Y-58911200D02*
X87519427Y-58958819D01*
X87519427Y-58958819D02*
X87424189Y-58958819D01*
X87424189Y-58958819D02*
X87281332Y-58911200D01*
X87281332Y-58911200D02*
X87233713Y-58863580D01*
X87233713Y-58863580D02*
X87233713Y-58530247D01*
X87233713Y-58530247D02*
X87424189Y-58530247D01*
X86852760Y-58911200D02*
X86709903Y-58958819D01*
X86709903Y-58958819D02*
X86471808Y-58958819D01*
X86471808Y-58958819D02*
X86376570Y-58911200D01*
X86376570Y-58911200D02*
X86328951Y-58863580D01*
X86328951Y-58863580D02*
X86281332Y-58768342D01*
X86281332Y-58768342D02*
X86281332Y-58673104D01*
X86281332Y-58673104D02*
X86328951Y-58577866D01*
X86328951Y-58577866D02*
X86376570Y-58530247D01*
X86376570Y-58530247D02*
X86471808Y-58482628D01*
X86471808Y-58482628D02*
X86662284Y-58435009D01*
X86662284Y-58435009D02*
X86757522Y-58387390D01*
X86757522Y-58387390D02*
X86805141Y-58339771D01*
X86805141Y-58339771D02*
X86852760Y-58244533D01*
X86852760Y-58244533D02*
X86852760Y-58149295D01*
X86852760Y-58149295D02*
X86805141Y-58054057D01*
X86805141Y-58054057D02*
X86757522Y-58006438D01*
X86757522Y-58006438D02*
X86662284Y-57958819D01*
X86662284Y-57958819D02*
X86424189Y-57958819D01*
X86424189Y-57958819D02*
X86281332Y-58006438D01*
X85852760Y-58577866D02*
X85090856Y-58577866D01*
X84090856Y-58958819D02*
X84662284Y-58958819D01*
X84376570Y-58958819D02*
X84376570Y-57958819D01*
X84376570Y-57958819D02*
X84471808Y-58101676D01*
X84471808Y-58101676D02*
X84567046Y-58196914D01*
X84567046Y-58196914D02*
X84662284Y-58244533D01*
X83471808Y-57958819D02*
X83376570Y-57958819D01*
X83376570Y-57958819D02*
X83281332Y-58006438D01*
X83281332Y-58006438D02*
X83233713Y-58054057D01*
X83233713Y-58054057D02*
X83186094Y-58149295D01*
X83186094Y-58149295D02*
X83138475Y-58339771D01*
X83138475Y-58339771D02*
X83138475Y-58577866D01*
X83138475Y-58577866D02*
X83186094Y-58768342D01*
X83186094Y-58768342D02*
X83233713Y-58863580D01*
X83233713Y-58863580D02*
X83281332Y-58911200D01*
X83281332Y-58911200D02*
X83376570Y-58958819D01*
X83376570Y-58958819D02*
X83471808Y-58958819D01*
X83471808Y-58958819D02*
X83567046Y-58911200D01*
X83567046Y-58911200D02*
X83614665Y-58863580D01*
X83614665Y-58863580D02*
X83662284Y-58768342D01*
X83662284Y-58768342D02*
X83709903Y-58577866D01*
X83709903Y-58577866D02*
X83709903Y-58339771D01*
X83709903Y-58339771D02*
X83662284Y-58149295D01*
X83662284Y-58149295D02*
X83614665Y-58054057D01*
X83614665Y-58054057D02*
X83567046Y-58006438D01*
X83567046Y-58006438D02*
X83471808Y-57958819D01*
X82186094Y-58958819D02*
X82757522Y-58958819D01*
X82471808Y-58958819D02*
X82471808Y-57958819D01*
X82471808Y-57958819D02*
X82567046Y-58101676D01*
X82567046Y-58101676D02*
X82662284Y-58196914D01*
X82662284Y-58196914D02*
X82757522Y-58244533D01*
X81757522Y-58577866D02*
X80995618Y-58577866D01*
X80519427Y-58958819D02*
X80519427Y-57958819D01*
X80519427Y-57958819D02*
X80138475Y-57958819D01*
X80138475Y-57958819D02*
X80043237Y-58006438D01*
X80043237Y-58006438D02*
X79995618Y-58054057D01*
X79995618Y-58054057D02*
X79947999Y-58149295D01*
X79947999Y-58149295D02*
X79947999Y-58292152D01*
X79947999Y-58292152D02*
X79995618Y-58387390D01*
X79995618Y-58387390D02*
X80043237Y-58435009D01*
X80043237Y-58435009D02*
X80138475Y-58482628D01*
X80138475Y-58482628D02*
X80519427Y-58482628D01*
X79614665Y-57958819D02*
X79376570Y-58958819D01*
X79376570Y-58958819D02*
X79186094Y-58244533D01*
X79186094Y-58244533D02*
X78995618Y-58958819D01*
X78995618Y-58958819D02*
X78757523Y-57958819D01*
X77805142Y-58958819D02*
X78138475Y-58482628D01*
X78376570Y-58958819D02*
X78376570Y-57958819D01*
X78376570Y-57958819D02*
X77995618Y-57958819D01*
X77995618Y-57958819D02*
X77900380Y-58006438D01*
X77900380Y-58006438D02*
X77852761Y-58054057D01*
X77852761Y-58054057D02*
X77805142Y-58149295D01*
X77805142Y-58149295D02*
X77805142Y-58292152D01*
X77805142Y-58292152D02*
X77852761Y-58387390D01*
X77852761Y-58387390D02*
X77900380Y-58435009D01*
X77900380Y-58435009D02*
X77995618Y-58482628D01*
X77995618Y-58482628D02*
X78376570Y-58482628D01*
X109519428Y-59568819D02*
X109186095Y-60568819D01*
X109186095Y-60568819D02*
X108852762Y-59568819D01*
X108519428Y-60568819D02*
X108519428Y-59568819D01*
X108090857Y-60283104D02*
X107614667Y-60283104D01*
X108186095Y-60568819D02*
X107852762Y-59568819D01*
X107852762Y-59568819D02*
X107519429Y-60568819D01*
X106424190Y-60568819D02*
X106424190Y-59568819D01*
X106424190Y-59568819D02*
X106090857Y-60283104D01*
X106090857Y-60283104D02*
X105757524Y-59568819D01*
X105757524Y-59568819D02*
X105757524Y-60568819D01*
X105090857Y-59568819D02*
X104900381Y-59568819D01*
X104900381Y-59568819D02*
X104805143Y-59616438D01*
X104805143Y-59616438D02*
X104709905Y-59711676D01*
X104709905Y-59711676D02*
X104662286Y-59902152D01*
X104662286Y-59902152D02*
X104662286Y-60235485D01*
X104662286Y-60235485D02*
X104709905Y-60425961D01*
X104709905Y-60425961D02*
X104805143Y-60521200D01*
X104805143Y-60521200D02*
X104900381Y-60568819D01*
X104900381Y-60568819D02*
X105090857Y-60568819D01*
X105090857Y-60568819D02*
X105186095Y-60521200D01*
X105186095Y-60521200D02*
X105281333Y-60425961D01*
X105281333Y-60425961D02*
X105328952Y-60235485D01*
X105328952Y-60235485D02*
X105328952Y-59902152D01*
X105328952Y-59902152D02*
X105281333Y-59711676D01*
X105281333Y-59711676D02*
X105186095Y-59616438D01*
X105186095Y-59616438D02*
X105090857Y-59568819D01*
X103757524Y-60568819D02*
X104233714Y-60568819D01*
X104233714Y-60568819D02*
X104233714Y-59568819D01*
X103424190Y-60045009D02*
X103090857Y-60045009D01*
X102948000Y-60568819D02*
X103424190Y-60568819D01*
X103424190Y-60568819D02*
X103424190Y-59568819D01*
X103424190Y-59568819D02*
X102948000Y-59568819D01*
X102614666Y-59568819D02*
X101948000Y-60568819D01*
X101948000Y-59568819D02*
X102614666Y-60568819D01*
X100805142Y-60568819D02*
X100805142Y-59568819D01*
X100805142Y-59568819D02*
X100471809Y-60283104D01*
X100471809Y-60283104D02*
X100138476Y-59568819D01*
X100138476Y-59568819D02*
X100138476Y-60568819D01*
X99662285Y-60568819D02*
X99662285Y-59568819D01*
X98614667Y-60473580D02*
X98662286Y-60521200D01*
X98662286Y-60521200D02*
X98805143Y-60568819D01*
X98805143Y-60568819D02*
X98900381Y-60568819D01*
X98900381Y-60568819D02*
X99043238Y-60521200D01*
X99043238Y-60521200D02*
X99138476Y-60425961D01*
X99138476Y-60425961D02*
X99186095Y-60330723D01*
X99186095Y-60330723D02*
X99233714Y-60140247D01*
X99233714Y-60140247D02*
X99233714Y-59997390D01*
X99233714Y-59997390D02*
X99186095Y-59806914D01*
X99186095Y-59806914D02*
X99138476Y-59711676D01*
X99138476Y-59711676D02*
X99043238Y-59616438D01*
X99043238Y-59616438D02*
X98900381Y-59568819D01*
X98900381Y-59568819D02*
X98805143Y-59568819D01*
X98805143Y-59568819D02*
X98662286Y-59616438D01*
X98662286Y-59616438D02*
X98614667Y-59664057D01*
X97614667Y-60568819D02*
X97948000Y-60092628D01*
X98186095Y-60568819D02*
X98186095Y-59568819D01*
X98186095Y-59568819D02*
X97805143Y-59568819D01*
X97805143Y-59568819D02*
X97709905Y-59616438D01*
X97709905Y-59616438D02*
X97662286Y-59664057D01*
X97662286Y-59664057D02*
X97614667Y-59759295D01*
X97614667Y-59759295D02*
X97614667Y-59902152D01*
X97614667Y-59902152D02*
X97662286Y-59997390D01*
X97662286Y-59997390D02*
X97709905Y-60045009D01*
X97709905Y-60045009D02*
X97805143Y-60092628D01*
X97805143Y-60092628D02*
X98186095Y-60092628D01*
X96995619Y-59568819D02*
X96805143Y-59568819D01*
X96805143Y-59568819D02*
X96709905Y-59616438D01*
X96709905Y-59616438D02*
X96614667Y-59711676D01*
X96614667Y-59711676D02*
X96567048Y-59902152D01*
X96567048Y-59902152D02*
X96567048Y-60235485D01*
X96567048Y-60235485D02*
X96614667Y-60425961D01*
X96614667Y-60425961D02*
X96709905Y-60521200D01*
X96709905Y-60521200D02*
X96805143Y-60568819D01*
X96805143Y-60568819D02*
X96995619Y-60568819D01*
X96995619Y-60568819D02*
X97090857Y-60521200D01*
X97090857Y-60521200D02*
X97186095Y-60425961D01*
X97186095Y-60425961D02*
X97233714Y-60235485D01*
X97233714Y-60235485D02*
X97233714Y-59902152D01*
X97233714Y-59902152D02*
X97186095Y-59711676D01*
X97186095Y-59711676D02*
X97090857Y-59616438D01*
X97090857Y-59616438D02*
X96995619Y-59568819D01*
X95805143Y-60045009D02*
X96138476Y-60045009D01*
X96138476Y-60568819D02*
X96138476Y-59568819D01*
X96138476Y-59568819D02*
X95662286Y-59568819D01*
X95281333Y-60568819D02*
X95281333Y-59568819D01*
X94948000Y-59568819D02*
X94376572Y-59568819D01*
X94662286Y-60568819D02*
X94662286Y-59568819D01*
X92709905Y-60473580D02*
X92757524Y-60521200D01*
X92757524Y-60521200D02*
X92900381Y-60568819D01*
X92900381Y-60568819D02*
X92995619Y-60568819D01*
X92995619Y-60568819D02*
X93138476Y-60521200D01*
X93138476Y-60521200D02*
X93233714Y-60425961D01*
X93233714Y-60425961D02*
X93281333Y-60330723D01*
X93281333Y-60330723D02*
X93328952Y-60140247D01*
X93328952Y-60140247D02*
X93328952Y-59997390D01*
X93328952Y-59997390D02*
X93281333Y-59806914D01*
X93281333Y-59806914D02*
X93233714Y-59711676D01*
X93233714Y-59711676D02*
X93138476Y-59616438D01*
X93138476Y-59616438D02*
X92995619Y-59568819D01*
X92995619Y-59568819D02*
X92900381Y-59568819D01*
X92900381Y-59568819D02*
X92757524Y-59616438D01*
X92757524Y-59616438D02*
X92709905Y-59664057D01*
X92328952Y-60283104D02*
X91852762Y-60283104D01*
X92424190Y-60568819D02*
X92090857Y-59568819D01*
X92090857Y-59568819D02*
X91757524Y-60568819D01*
X91090857Y-60045009D02*
X90948000Y-60092628D01*
X90948000Y-60092628D02*
X90900381Y-60140247D01*
X90900381Y-60140247D02*
X90852762Y-60235485D01*
X90852762Y-60235485D02*
X90852762Y-60378342D01*
X90852762Y-60378342D02*
X90900381Y-60473580D01*
X90900381Y-60473580D02*
X90948000Y-60521200D01*
X90948000Y-60521200D02*
X91043238Y-60568819D01*
X91043238Y-60568819D02*
X91424190Y-60568819D01*
X91424190Y-60568819D02*
X91424190Y-59568819D01*
X91424190Y-59568819D02*
X91090857Y-59568819D01*
X91090857Y-59568819D02*
X90995619Y-59616438D01*
X90995619Y-59616438D02*
X90948000Y-59664057D01*
X90948000Y-59664057D02*
X90900381Y-59759295D01*
X90900381Y-59759295D02*
X90900381Y-59854533D01*
X90900381Y-59854533D02*
X90948000Y-59949771D01*
X90948000Y-59949771D02*
X90995619Y-59997390D01*
X90995619Y-59997390D02*
X91090857Y-60045009D01*
X91090857Y-60045009D02*
X91424190Y-60045009D01*
X89948000Y-60568819D02*
X90424190Y-60568819D01*
X90424190Y-60568819D02*
X90424190Y-59568819D01*
X89614666Y-60045009D02*
X89281333Y-60045009D01*
X89138476Y-60568819D02*
X89614666Y-60568819D01*
X89614666Y-60568819D02*
X89614666Y-59568819D01*
X89614666Y-59568819D02*
X89138476Y-59568819D01*
X87995618Y-60283104D02*
X87519428Y-60283104D01*
X88090856Y-60568819D02*
X87757523Y-59568819D01*
X87757523Y-59568819D02*
X87424190Y-60568819D01*
X87138475Y-60521200D02*
X86995618Y-60568819D01*
X86995618Y-60568819D02*
X86757523Y-60568819D01*
X86757523Y-60568819D02*
X86662285Y-60521200D01*
X86662285Y-60521200D02*
X86614666Y-60473580D01*
X86614666Y-60473580D02*
X86567047Y-60378342D01*
X86567047Y-60378342D02*
X86567047Y-60283104D01*
X86567047Y-60283104D02*
X86614666Y-60187866D01*
X86614666Y-60187866D02*
X86662285Y-60140247D01*
X86662285Y-60140247D02*
X86757523Y-60092628D01*
X86757523Y-60092628D02*
X86947999Y-60045009D01*
X86947999Y-60045009D02*
X87043237Y-59997390D01*
X87043237Y-59997390D02*
X87090856Y-59949771D01*
X87090856Y-59949771D02*
X87138475Y-59854533D01*
X87138475Y-59854533D02*
X87138475Y-59759295D01*
X87138475Y-59759295D02*
X87090856Y-59664057D01*
X87090856Y-59664057D02*
X87043237Y-59616438D01*
X87043237Y-59616438D02*
X86947999Y-59568819D01*
X86947999Y-59568819D02*
X86709904Y-59568819D01*
X86709904Y-59568819D02*
X86567047Y-59616438D01*
X86186094Y-60521200D02*
X86043237Y-60568819D01*
X86043237Y-60568819D02*
X85805142Y-60568819D01*
X85805142Y-60568819D02*
X85709904Y-60521200D01*
X85709904Y-60521200D02*
X85662285Y-60473580D01*
X85662285Y-60473580D02*
X85614666Y-60378342D01*
X85614666Y-60378342D02*
X85614666Y-60283104D01*
X85614666Y-60283104D02*
X85662285Y-60187866D01*
X85662285Y-60187866D02*
X85709904Y-60140247D01*
X85709904Y-60140247D02*
X85805142Y-60092628D01*
X85805142Y-60092628D02*
X85995618Y-60045009D01*
X85995618Y-60045009D02*
X86090856Y-59997390D01*
X86090856Y-59997390D02*
X86138475Y-59949771D01*
X86138475Y-59949771D02*
X86186094Y-59854533D01*
X86186094Y-59854533D02*
X86186094Y-59759295D01*
X86186094Y-59759295D02*
X86138475Y-59664057D01*
X86138475Y-59664057D02*
X86090856Y-59616438D01*
X86090856Y-59616438D02*
X85995618Y-59568819D01*
X85995618Y-59568819D02*
X85757523Y-59568819D01*
X85757523Y-59568819D02*
X85614666Y-59616438D01*
X84995618Y-60092628D02*
X84995618Y-60568819D01*
X85328951Y-59568819D02*
X84995618Y-60092628D01*
X84995618Y-60092628D02*
X84662285Y-59568819D01*
X83614665Y-59664057D02*
X83567046Y-59616438D01*
X83567046Y-59616438D02*
X83471808Y-59568819D01*
X83471808Y-59568819D02*
X83233713Y-59568819D01*
X83233713Y-59568819D02*
X83138475Y-59616438D01*
X83138475Y-59616438D02*
X83090856Y-59664057D01*
X83090856Y-59664057D02*
X83043237Y-59759295D01*
X83043237Y-59759295D02*
X83043237Y-59854533D01*
X83043237Y-59854533D02*
X83090856Y-59997390D01*
X83090856Y-59997390D02*
X83662284Y-60568819D01*
X83662284Y-60568819D02*
X83043237Y-60568819D01*
X82090856Y-60568819D02*
X82662284Y-60568819D01*
X82376570Y-60568819D02*
X82376570Y-59568819D01*
X82376570Y-59568819D02*
X82471808Y-59711676D01*
X82471808Y-59711676D02*
X82567046Y-59806914D01*
X82567046Y-59806914D02*
X82662284Y-59854533D01*
X81233713Y-59902152D02*
X81233713Y-60568819D01*
X81471808Y-59521200D02*
X81709903Y-60235485D01*
X81709903Y-60235485D02*
X81090856Y-60235485D01*
X80805141Y-59568819D02*
X80138475Y-59568819D01*
X80138475Y-59568819D02*
X80567046Y-60568819D01*
X79281332Y-59568819D02*
X79757522Y-59568819D01*
X79757522Y-59568819D02*
X79805141Y-60045009D01*
X79805141Y-60045009D02*
X79757522Y-59997390D01*
X79757522Y-59997390D02*
X79662284Y-59949771D01*
X79662284Y-59949771D02*
X79424189Y-59949771D01*
X79424189Y-59949771D02*
X79328951Y-59997390D01*
X79328951Y-59997390D02*
X79281332Y-60045009D01*
X79281332Y-60045009D02*
X79233713Y-60140247D01*
X79233713Y-60140247D02*
X79233713Y-60378342D01*
X79233713Y-60378342D02*
X79281332Y-60473580D01*
X79281332Y-60473580D02*
X79328951Y-60521200D01*
X79328951Y-60521200D02*
X79424189Y-60568819D01*
X79424189Y-60568819D02*
X79662284Y-60568819D01*
X79662284Y-60568819D02*
X79757522Y-60521200D01*
X79757522Y-60521200D02*
X79805141Y-60473580D01*
X78614665Y-59568819D02*
X78519427Y-59568819D01*
X78519427Y-59568819D02*
X78424189Y-59616438D01*
X78424189Y-59616438D02*
X78376570Y-59664057D01*
X78376570Y-59664057D02*
X78328951Y-59759295D01*
X78328951Y-59759295D02*
X78281332Y-59949771D01*
X78281332Y-59949771D02*
X78281332Y-60187866D01*
X78281332Y-60187866D02*
X78328951Y-60378342D01*
X78328951Y-60378342D02*
X78376570Y-60473580D01*
X78376570Y-60473580D02*
X78424189Y-60521200D01*
X78424189Y-60521200D02*
X78519427Y-60568819D01*
X78519427Y-60568819D02*
X78614665Y-60568819D01*
X78614665Y-60568819D02*
X78709903Y-60521200D01*
X78709903Y-60521200D02*
X78757522Y-60473580D01*
X78757522Y-60473580D02*
X78805141Y-60378342D01*
X78805141Y-60378342D02*
X78852760Y-60187866D01*
X78852760Y-60187866D02*
X78852760Y-59949771D01*
X78852760Y-59949771D02*
X78805141Y-59759295D01*
X78805141Y-59759295D02*
X78757522Y-59664057D01*
X78757522Y-59664057D02*
X78709903Y-59616438D01*
X78709903Y-59616438D02*
X78614665Y-59568819D01*
X77328951Y-60568819D02*
X77900379Y-60568819D01*
X77614665Y-60568819D02*
X77614665Y-59568819D01*
X77614665Y-59568819D02*
X77709903Y-59711676D01*
X77709903Y-59711676D02*
X77805141Y-59806914D01*
X77805141Y-59806914D02*
X77900379Y-59854533D01*
X76709903Y-59568819D02*
X76614665Y-59568819D01*
X76614665Y-59568819D02*
X76519427Y-59616438D01*
X76519427Y-59616438D02*
X76471808Y-59664057D01*
X76471808Y-59664057D02*
X76424189Y-59759295D01*
X76424189Y-59759295D02*
X76376570Y-59949771D01*
X76376570Y-59949771D02*
X76376570Y-60187866D01*
X76376570Y-60187866D02*
X76424189Y-60378342D01*
X76424189Y-60378342D02*
X76471808Y-60473580D01*
X76471808Y-60473580D02*
X76519427Y-60521200D01*
X76519427Y-60521200D02*
X76614665Y-60568819D01*
X76614665Y-60568819D02*
X76709903Y-60568819D01*
X76709903Y-60568819D02*
X76805141Y-60521200D01*
X76805141Y-60521200D02*
X76852760Y-60473580D01*
X76852760Y-60473580D02*
X76900379Y-60378342D01*
X76900379Y-60378342D02*
X76947998Y-60187866D01*
X76947998Y-60187866D02*
X76947998Y-59949771D01*
X76947998Y-59949771D02*
X76900379Y-59759295D01*
X76900379Y-59759295D02*
X76852760Y-59664057D01*
X76852760Y-59664057D02*
X76805141Y-59616438D01*
X76805141Y-59616438D02*
X76709903Y-59568819D01*
X76043236Y-59568819D02*
X75424189Y-59568819D01*
X75424189Y-59568819D02*
X75757522Y-59949771D01*
X75757522Y-59949771D02*
X75614665Y-59949771D01*
X75614665Y-59949771D02*
X75519427Y-59997390D01*
X75519427Y-59997390D02*
X75471808Y-60045009D01*
X75471808Y-60045009D02*
X75424189Y-60140247D01*
X75424189Y-60140247D02*
X75424189Y-60378342D01*
X75424189Y-60378342D02*
X75471808Y-60473580D01*
X75471808Y-60473580D02*
X75519427Y-60521200D01*
X75519427Y-60521200D02*
X75614665Y-60568819D01*
X75614665Y-60568819D02*
X75900379Y-60568819D01*
X75900379Y-60568819D02*
X75995617Y-60521200D01*
X75995617Y-60521200D02*
X76043236Y-60473580D01*
X75043236Y-59664057D02*
X74995617Y-59616438D01*
X74995617Y-59616438D02*
X74900379Y-59568819D01*
X74900379Y-59568819D02*
X74662284Y-59568819D01*
X74662284Y-59568819D02*
X74567046Y-59616438D01*
X74567046Y-59616438D02*
X74519427Y-59664057D01*
X74519427Y-59664057D02*
X74471808Y-59759295D01*
X74471808Y-59759295D02*
X74471808Y-59854533D01*
X74471808Y-59854533D02*
X74519427Y-59997390D01*
X74519427Y-59997390D02*
X75090855Y-60568819D01*
X75090855Y-60568819D02*
X74471808Y-60568819D01*
X104107286Y-161046438D02*
X104202524Y-160998819D01*
X104202524Y-160998819D02*
X104345381Y-160998819D01*
X104345381Y-160998819D02*
X104488238Y-161046438D01*
X104488238Y-161046438D02*
X104583476Y-161141676D01*
X104583476Y-161141676D02*
X104631095Y-161236914D01*
X104631095Y-161236914D02*
X104678714Y-161427390D01*
X104678714Y-161427390D02*
X104678714Y-161570247D01*
X104678714Y-161570247D02*
X104631095Y-161760723D01*
X104631095Y-161760723D02*
X104583476Y-161855961D01*
X104583476Y-161855961D02*
X104488238Y-161951200D01*
X104488238Y-161951200D02*
X104345381Y-161998819D01*
X104345381Y-161998819D02*
X104250143Y-161998819D01*
X104250143Y-161998819D02*
X104107286Y-161951200D01*
X104107286Y-161951200D02*
X104059667Y-161903580D01*
X104059667Y-161903580D02*
X104059667Y-161570247D01*
X104059667Y-161570247D02*
X104250143Y-161570247D01*
X103059667Y-161998819D02*
X103393000Y-161522628D01*
X103631095Y-161998819D02*
X103631095Y-160998819D01*
X103631095Y-160998819D02*
X103250143Y-160998819D01*
X103250143Y-160998819D02*
X103154905Y-161046438D01*
X103154905Y-161046438D02*
X103107286Y-161094057D01*
X103107286Y-161094057D02*
X103059667Y-161189295D01*
X103059667Y-161189295D02*
X103059667Y-161332152D01*
X103059667Y-161332152D02*
X103107286Y-161427390D01*
X103107286Y-161427390D02*
X103154905Y-161475009D01*
X103154905Y-161475009D02*
X103250143Y-161522628D01*
X103250143Y-161522628D02*
X103631095Y-161522628D01*
X102631095Y-161475009D02*
X102297762Y-161475009D01*
X102154905Y-161998819D02*
X102631095Y-161998819D01*
X102631095Y-161998819D02*
X102631095Y-160998819D01*
X102631095Y-160998819D02*
X102154905Y-160998819D01*
X101726333Y-161998819D02*
X101726333Y-160998819D01*
X101726333Y-160998819D02*
X101393000Y-161713104D01*
X101393000Y-161713104D02*
X101059667Y-160998819D01*
X101059667Y-160998819D02*
X101059667Y-161998819D01*
X100250143Y-161475009D02*
X100107286Y-161522628D01*
X100107286Y-161522628D02*
X100059667Y-161570247D01*
X100059667Y-161570247D02*
X100012048Y-161665485D01*
X100012048Y-161665485D02*
X100012048Y-161808342D01*
X100012048Y-161808342D02*
X100059667Y-161903580D01*
X100059667Y-161903580D02*
X100107286Y-161951200D01*
X100107286Y-161951200D02*
X100202524Y-161998819D01*
X100202524Y-161998819D02*
X100583476Y-161998819D01*
X100583476Y-161998819D02*
X100583476Y-160998819D01*
X100583476Y-160998819D02*
X100250143Y-160998819D01*
X100250143Y-160998819D02*
X100154905Y-161046438D01*
X100154905Y-161046438D02*
X100107286Y-161094057D01*
X100107286Y-161094057D02*
X100059667Y-161189295D01*
X100059667Y-161189295D02*
X100059667Y-161284533D01*
X100059667Y-161284533D02*
X100107286Y-161379771D01*
X100107286Y-161379771D02*
X100154905Y-161427390D01*
X100154905Y-161427390D02*
X100250143Y-161475009D01*
X100250143Y-161475009D02*
X100583476Y-161475009D01*
X99107286Y-161998819D02*
X99583476Y-161998819D01*
X99583476Y-161998819D02*
X99583476Y-160998819D01*
X98583476Y-160998819D02*
X98393000Y-160998819D01*
X98393000Y-160998819D02*
X98297762Y-161046438D01*
X98297762Y-161046438D02*
X98202524Y-161141676D01*
X98202524Y-161141676D02*
X98154905Y-161332152D01*
X98154905Y-161332152D02*
X98154905Y-161665485D01*
X98154905Y-161665485D02*
X98202524Y-161855961D01*
X98202524Y-161855961D02*
X98297762Y-161951200D01*
X98297762Y-161951200D02*
X98393000Y-161998819D01*
X98393000Y-161998819D02*
X98583476Y-161998819D01*
X98583476Y-161998819D02*
X98678714Y-161951200D01*
X98678714Y-161951200D02*
X98773952Y-161855961D01*
X98773952Y-161855961D02*
X98821571Y-161665485D01*
X98821571Y-161665485D02*
X98821571Y-161332152D01*
X98821571Y-161332152D02*
X98773952Y-161141676D01*
X98773952Y-161141676D02*
X98678714Y-161046438D01*
X98678714Y-161046438D02*
X98583476Y-160998819D01*
X97154905Y-161998819D02*
X97488238Y-161522628D01*
X97726333Y-161998819D02*
X97726333Y-160998819D01*
X97726333Y-160998819D02*
X97345381Y-160998819D01*
X97345381Y-160998819D02*
X97250143Y-161046438D01*
X97250143Y-161046438D02*
X97202524Y-161094057D01*
X97202524Y-161094057D02*
X97154905Y-161189295D01*
X97154905Y-161189295D02*
X97154905Y-161332152D01*
X97154905Y-161332152D02*
X97202524Y-161427390D01*
X97202524Y-161427390D02*
X97250143Y-161475009D01*
X97250143Y-161475009D02*
X97345381Y-161522628D01*
X97345381Y-161522628D02*
X97726333Y-161522628D01*
X95488238Y-161998819D02*
X95964428Y-161998819D01*
X95964428Y-161998819D02*
X95964428Y-160998819D01*
X94964428Y-160998819D02*
X94773952Y-160998819D01*
X94773952Y-160998819D02*
X94678714Y-161046438D01*
X94678714Y-161046438D02*
X94583476Y-161141676D01*
X94583476Y-161141676D02*
X94535857Y-161332152D01*
X94535857Y-161332152D02*
X94535857Y-161665485D01*
X94535857Y-161665485D02*
X94583476Y-161855961D01*
X94583476Y-161855961D02*
X94678714Y-161951200D01*
X94678714Y-161951200D02*
X94773952Y-161998819D01*
X94773952Y-161998819D02*
X94964428Y-161998819D01*
X94964428Y-161998819D02*
X95059666Y-161951200D01*
X95059666Y-161951200D02*
X95154904Y-161855961D01*
X95154904Y-161855961D02*
X95202523Y-161665485D01*
X95202523Y-161665485D02*
X95202523Y-161332152D01*
X95202523Y-161332152D02*
X95154904Y-161141676D01*
X95154904Y-161141676D02*
X95059666Y-161046438D01*
X95059666Y-161046438D02*
X94964428Y-160998819D01*
X94250142Y-160998819D02*
X93916809Y-161998819D01*
X93916809Y-161998819D02*
X93583476Y-160998819D01*
X93250142Y-161475009D02*
X92916809Y-161475009D01*
X92773952Y-161998819D02*
X93250142Y-161998819D01*
X93250142Y-161998819D02*
X93250142Y-160998819D01*
X93250142Y-160998819D02*
X92773952Y-160998819D01*
X92392999Y-161951200D02*
X92250142Y-161998819D01*
X92250142Y-161998819D02*
X92012047Y-161998819D01*
X92012047Y-161998819D02*
X91916809Y-161951200D01*
X91916809Y-161951200D02*
X91869190Y-161903580D01*
X91869190Y-161903580D02*
X91821571Y-161808342D01*
X91821571Y-161808342D02*
X91821571Y-161713104D01*
X91821571Y-161713104D02*
X91869190Y-161617866D01*
X91869190Y-161617866D02*
X91916809Y-161570247D01*
X91916809Y-161570247D02*
X92012047Y-161522628D01*
X92012047Y-161522628D02*
X92202523Y-161475009D01*
X92202523Y-161475009D02*
X92297761Y-161427390D01*
X92297761Y-161427390D02*
X92345380Y-161379771D01*
X92345380Y-161379771D02*
X92392999Y-161284533D01*
X92392999Y-161284533D02*
X92392999Y-161189295D01*
X92392999Y-161189295D02*
X92345380Y-161094057D01*
X92345380Y-161094057D02*
X92297761Y-161046438D01*
X92297761Y-161046438D02*
X92202523Y-160998819D01*
X92202523Y-160998819D02*
X91964428Y-160998819D01*
X91964428Y-160998819D02*
X91821571Y-161046438D01*
X90440618Y-161522628D02*
X90440618Y-161998819D01*
X90773951Y-160998819D02*
X90440618Y-161522628D01*
X90440618Y-161522628D02*
X90107285Y-160998819D01*
X89583475Y-160998819D02*
X89392999Y-160998819D01*
X89392999Y-160998819D02*
X89297761Y-161046438D01*
X89297761Y-161046438D02*
X89202523Y-161141676D01*
X89202523Y-161141676D02*
X89154904Y-161332152D01*
X89154904Y-161332152D02*
X89154904Y-161665485D01*
X89154904Y-161665485D02*
X89202523Y-161855961D01*
X89202523Y-161855961D02*
X89297761Y-161951200D01*
X89297761Y-161951200D02*
X89392999Y-161998819D01*
X89392999Y-161998819D02*
X89583475Y-161998819D01*
X89583475Y-161998819D02*
X89678713Y-161951200D01*
X89678713Y-161951200D02*
X89773951Y-161855961D01*
X89773951Y-161855961D02*
X89821570Y-161665485D01*
X89821570Y-161665485D02*
X89821570Y-161332152D01*
X89821570Y-161332152D02*
X89773951Y-161141676D01*
X89773951Y-161141676D02*
X89678713Y-161046438D01*
X89678713Y-161046438D02*
X89583475Y-160998819D01*
X88726332Y-160998819D02*
X88726332Y-161808342D01*
X88726332Y-161808342D02*
X88678713Y-161903580D01*
X88678713Y-161903580D02*
X88631094Y-161951200D01*
X88631094Y-161951200D02*
X88535856Y-161998819D01*
X88535856Y-161998819D02*
X88345380Y-161998819D01*
X88345380Y-161998819D02*
X88250142Y-161951200D01*
X88250142Y-161951200D02*
X88202523Y-161903580D01*
X88202523Y-161903580D02*
X88154904Y-161808342D01*
X88154904Y-161808342D02*
X88154904Y-160998819D01*
X110131095Y-159697009D02*
X109988238Y-159744628D01*
X109988238Y-159744628D02*
X109940619Y-159792247D01*
X109940619Y-159792247D02*
X109893000Y-159887485D01*
X109893000Y-159887485D02*
X109893000Y-160030342D01*
X109893000Y-160030342D02*
X109940619Y-160125580D01*
X109940619Y-160125580D02*
X109988238Y-160173200D01*
X109988238Y-160173200D02*
X110083476Y-160220819D01*
X110083476Y-160220819D02*
X110464428Y-160220819D01*
X110464428Y-160220819D02*
X110464428Y-159220819D01*
X110464428Y-159220819D02*
X110131095Y-159220819D01*
X110131095Y-159220819D02*
X110035857Y-159268438D01*
X110035857Y-159268438D02*
X109988238Y-159316057D01*
X109988238Y-159316057D02*
X109940619Y-159411295D01*
X109940619Y-159411295D02*
X109940619Y-159506533D01*
X109940619Y-159506533D02*
X109988238Y-159601771D01*
X109988238Y-159601771D02*
X110035857Y-159649390D01*
X110035857Y-159649390D02*
X110131095Y-159697009D01*
X110131095Y-159697009D02*
X110464428Y-159697009D01*
X108893000Y-160220819D02*
X109226333Y-159744628D01*
X109464428Y-160220819D02*
X109464428Y-159220819D01*
X109464428Y-159220819D02*
X109083476Y-159220819D01*
X109083476Y-159220819D02*
X108988238Y-159268438D01*
X108988238Y-159268438D02*
X108940619Y-159316057D01*
X108940619Y-159316057D02*
X108893000Y-159411295D01*
X108893000Y-159411295D02*
X108893000Y-159554152D01*
X108893000Y-159554152D02*
X108940619Y-159649390D01*
X108940619Y-159649390D02*
X108988238Y-159697009D01*
X108988238Y-159697009D02*
X109083476Y-159744628D01*
X109083476Y-159744628D02*
X109464428Y-159744628D01*
X108464428Y-159697009D02*
X108131095Y-159697009D01*
X107988238Y-160220819D02*
X108464428Y-160220819D01*
X108464428Y-160220819D02*
X108464428Y-159220819D01*
X108464428Y-159220819D02*
X107988238Y-159220819D01*
X107607285Y-159935104D02*
X107131095Y-159935104D01*
X107702523Y-160220819D02*
X107369190Y-159220819D01*
X107369190Y-159220819D02*
X107035857Y-160220819D01*
X106702523Y-160220819D02*
X106702523Y-159220819D01*
X106702523Y-159220819D02*
X106464428Y-159220819D01*
X106464428Y-159220819D02*
X106321571Y-159268438D01*
X106321571Y-159268438D02*
X106226333Y-159363676D01*
X106226333Y-159363676D02*
X106178714Y-159458914D01*
X106178714Y-159458914D02*
X106131095Y-159649390D01*
X106131095Y-159649390D02*
X106131095Y-159792247D01*
X106131095Y-159792247D02*
X106178714Y-159982723D01*
X106178714Y-159982723D02*
X106226333Y-160077961D01*
X106226333Y-160077961D02*
X106321571Y-160173200D01*
X106321571Y-160173200D02*
X106464428Y-160220819D01*
X106464428Y-160220819D02*
X106702523Y-160220819D01*
X105369190Y-159697009D02*
X105226333Y-159744628D01*
X105226333Y-159744628D02*
X105178714Y-159792247D01*
X105178714Y-159792247D02*
X105131095Y-159887485D01*
X105131095Y-159887485D02*
X105131095Y-160030342D01*
X105131095Y-160030342D02*
X105178714Y-160125580D01*
X105178714Y-160125580D02*
X105226333Y-160173200D01*
X105226333Y-160173200D02*
X105321571Y-160220819D01*
X105321571Y-160220819D02*
X105702523Y-160220819D01*
X105702523Y-160220819D02*
X105702523Y-159220819D01*
X105702523Y-159220819D02*
X105369190Y-159220819D01*
X105369190Y-159220819D02*
X105273952Y-159268438D01*
X105273952Y-159268438D02*
X105226333Y-159316057D01*
X105226333Y-159316057D02*
X105178714Y-159411295D01*
X105178714Y-159411295D02*
X105178714Y-159506533D01*
X105178714Y-159506533D02*
X105226333Y-159601771D01*
X105226333Y-159601771D02*
X105273952Y-159649390D01*
X105273952Y-159649390D02*
X105369190Y-159697009D01*
X105369190Y-159697009D02*
X105702523Y-159697009D01*
X104512047Y-159220819D02*
X104321571Y-159220819D01*
X104321571Y-159220819D02*
X104226333Y-159268438D01*
X104226333Y-159268438D02*
X104131095Y-159363676D01*
X104131095Y-159363676D02*
X104083476Y-159554152D01*
X104083476Y-159554152D02*
X104083476Y-159887485D01*
X104083476Y-159887485D02*
X104131095Y-160077961D01*
X104131095Y-160077961D02*
X104226333Y-160173200D01*
X104226333Y-160173200D02*
X104321571Y-160220819D01*
X104321571Y-160220819D02*
X104512047Y-160220819D01*
X104512047Y-160220819D02*
X104607285Y-160173200D01*
X104607285Y-160173200D02*
X104702523Y-160077961D01*
X104702523Y-160077961D02*
X104750142Y-159887485D01*
X104750142Y-159887485D02*
X104750142Y-159554152D01*
X104750142Y-159554152D02*
X104702523Y-159363676D01*
X104702523Y-159363676D02*
X104607285Y-159268438D01*
X104607285Y-159268438D02*
X104512047Y-159220819D01*
X103702523Y-159935104D02*
X103226333Y-159935104D01*
X103797761Y-160220819D02*
X103464428Y-159220819D01*
X103464428Y-159220819D02*
X103131095Y-160220819D01*
X102226333Y-160220819D02*
X102559666Y-159744628D01*
X102797761Y-160220819D02*
X102797761Y-159220819D01*
X102797761Y-159220819D02*
X102416809Y-159220819D01*
X102416809Y-159220819D02*
X102321571Y-159268438D01*
X102321571Y-159268438D02*
X102273952Y-159316057D01*
X102273952Y-159316057D02*
X102226333Y-159411295D01*
X102226333Y-159411295D02*
X102226333Y-159554152D01*
X102226333Y-159554152D02*
X102273952Y-159649390D01*
X102273952Y-159649390D02*
X102321571Y-159697009D01*
X102321571Y-159697009D02*
X102416809Y-159744628D01*
X102416809Y-159744628D02*
X102797761Y-159744628D01*
X101797761Y-160220819D02*
X101797761Y-159220819D01*
X101797761Y-159220819D02*
X101559666Y-159220819D01*
X101559666Y-159220819D02*
X101416809Y-159268438D01*
X101416809Y-159268438D02*
X101321571Y-159363676D01*
X101321571Y-159363676D02*
X101273952Y-159458914D01*
X101273952Y-159458914D02*
X101226333Y-159649390D01*
X101226333Y-159649390D02*
X101226333Y-159792247D01*
X101226333Y-159792247D02*
X101273952Y-159982723D01*
X101273952Y-159982723D02*
X101321571Y-160077961D01*
X101321571Y-160077961D02*
X101416809Y-160173200D01*
X101416809Y-160173200D02*
X101559666Y-160220819D01*
X101559666Y-160220819D02*
X101797761Y-160220819D01*
X100083475Y-159935104D02*
X99607285Y-159935104D01*
X100178713Y-160220819D02*
X99845380Y-159220819D01*
X99845380Y-159220819D02*
X99512047Y-160220819D01*
X99178713Y-159220819D02*
X99178713Y-160030342D01*
X99178713Y-160030342D02*
X99131094Y-160125580D01*
X99131094Y-160125580D02*
X99083475Y-160173200D01*
X99083475Y-160173200D02*
X98988237Y-160220819D01*
X98988237Y-160220819D02*
X98797761Y-160220819D01*
X98797761Y-160220819D02*
X98702523Y-160173200D01*
X98702523Y-160173200D02*
X98654904Y-160125580D01*
X98654904Y-160125580D02*
X98607285Y-160030342D01*
X98607285Y-160030342D02*
X98607285Y-159220819D01*
X98131094Y-160220819D02*
X98131094Y-159220819D01*
X98131094Y-159220819D02*
X97892999Y-159220819D01*
X97892999Y-159220819D02*
X97750142Y-159268438D01*
X97750142Y-159268438D02*
X97654904Y-159363676D01*
X97654904Y-159363676D02*
X97607285Y-159458914D01*
X97607285Y-159458914D02*
X97559666Y-159649390D01*
X97559666Y-159649390D02*
X97559666Y-159792247D01*
X97559666Y-159792247D02*
X97607285Y-159982723D01*
X97607285Y-159982723D02*
X97654904Y-160077961D01*
X97654904Y-160077961D02*
X97750142Y-160173200D01*
X97750142Y-160173200D02*
X97892999Y-160220819D01*
X97892999Y-160220819D02*
X98131094Y-160220819D01*
X97131094Y-160220819D02*
X97131094Y-159220819D01*
X96464428Y-159220819D02*
X96273952Y-159220819D01*
X96273952Y-159220819D02*
X96178714Y-159268438D01*
X96178714Y-159268438D02*
X96083476Y-159363676D01*
X96083476Y-159363676D02*
X96035857Y-159554152D01*
X96035857Y-159554152D02*
X96035857Y-159887485D01*
X96035857Y-159887485D02*
X96083476Y-160077961D01*
X96083476Y-160077961D02*
X96178714Y-160173200D01*
X96178714Y-160173200D02*
X96273952Y-160220819D01*
X96273952Y-160220819D02*
X96464428Y-160220819D01*
X96464428Y-160220819D02*
X96559666Y-160173200D01*
X96559666Y-160173200D02*
X96654904Y-160077961D01*
X96654904Y-160077961D02*
X96702523Y-159887485D01*
X96702523Y-159887485D02*
X96702523Y-159554152D01*
X96702523Y-159554152D02*
X96654904Y-159363676D01*
X96654904Y-159363676D02*
X96559666Y-159268438D01*
X96559666Y-159268438D02*
X96464428Y-159220819D01*
X94845380Y-160220819D02*
X94845380Y-159220819D01*
X94845380Y-159220819D02*
X94607285Y-159220819D01*
X94607285Y-159220819D02*
X94464428Y-159268438D01*
X94464428Y-159268438D02*
X94369190Y-159363676D01*
X94369190Y-159363676D02*
X94321571Y-159458914D01*
X94321571Y-159458914D02*
X94273952Y-159649390D01*
X94273952Y-159649390D02*
X94273952Y-159792247D01*
X94273952Y-159792247D02*
X94321571Y-159982723D01*
X94321571Y-159982723D02*
X94369190Y-160077961D01*
X94369190Y-160077961D02*
X94464428Y-160173200D01*
X94464428Y-160173200D02*
X94607285Y-160220819D01*
X94607285Y-160220819D02*
X94845380Y-160220819D01*
X93845380Y-159697009D02*
X93512047Y-159697009D01*
X93369190Y-160220819D02*
X93845380Y-160220819D01*
X93845380Y-160220819D02*
X93845380Y-159220819D01*
X93845380Y-159220819D02*
X93369190Y-159220819D01*
X93083475Y-159220819D02*
X92750142Y-160220819D01*
X92750142Y-160220819D02*
X92416809Y-159220819D01*
X91321570Y-160220819D02*
X91321570Y-159220819D01*
X90750142Y-160220819D02*
X91178713Y-159649390D01*
X90750142Y-159220819D02*
X91321570Y-159792247D01*
X90321570Y-160220819D02*
X90321570Y-159220819D01*
X89988237Y-159220819D02*
X89416809Y-159220819D01*
X89702523Y-160220819D02*
X89702523Y-159220819D01*
X88321570Y-159839866D02*
X87559666Y-159839866D01*
X85750142Y-160220819D02*
X86083475Y-159744628D01*
X86321570Y-160220819D02*
X86321570Y-159220819D01*
X86321570Y-159220819D02*
X85940618Y-159220819D01*
X85940618Y-159220819D02*
X85845380Y-159268438D01*
X85845380Y-159268438D02*
X85797761Y-159316057D01*
X85797761Y-159316057D02*
X85750142Y-159411295D01*
X85750142Y-159411295D02*
X85750142Y-159554152D01*
X85750142Y-159554152D02*
X85797761Y-159649390D01*
X85797761Y-159649390D02*
X85845380Y-159697009D01*
X85845380Y-159697009D02*
X85940618Y-159744628D01*
X85940618Y-159744628D02*
X86321570Y-159744628D01*
X85321570Y-159697009D02*
X84988237Y-159697009D01*
X84845380Y-160220819D02*
X85321570Y-160220819D01*
X85321570Y-160220819D02*
X85321570Y-159220819D01*
X85321570Y-159220819D02*
X84845380Y-159220819D01*
X84559665Y-159220819D02*
X84226332Y-160220819D01*
X84226332Y-160220819D02*
X83892999Y-159220819D01*
X82273951Y-160220819D02*
X82845379Y-160220819D01*
X82559665Y-160220819D02*
X82559665Y-159220819D01*
X82559665Y-159220819D02*
X82654903Y-159363676D01*
X82654903Y-159363676D02*
X82750141Y-159458914D01*
X82750141Y-159458914D02*
X82845379Y-159506533D01*
X113501903Y-51143819D02*
X112930475Y-51143819D01*
X113216189Y-52143819D02*
X113216189Y-51143819D01*
X112597141Y-52143819D02*
X112597141Y-51143819D01*
X112597141Y-51143819D02*
X112216189Y-51143819D01*
X112216189Y-51143819D02*
X112120951Y-51191438D01*
X112120951Y-51191438D02*
X112073332Y-51239057D01*
X112073332Y-51239057D02*
X112025713Y-51334295D01*
X112025713Y-51334295D02*
X112025713Y-51477152D01*
X112025713Y-51477152D02*
X112073332Y-51572390D01*
X112073332Y-51572390D02*
X112120951Y-51620009D01*
X112120951Y-51620009D02*
X112216189Y-51667628D01*
X112216189Y-51667628D02*
X112597141Y-51667628D01*
X111073332Y-52143819D02*
X111644760Y-52143819D01*
X111359046Y-52143819D02*
X111359046Y-51143819D01*
X111359046Y-51143819D02*
X111454284Y-51286676D01*
X111454284Y-51286676D02*
X111549522Y-51381914D01*
X111549522Y-51381914D02*
X111644760Y-51429533D01*
X88209333Y-51905819D02*
X88209333Y-52620104D01*
X88209333Y-52620104D02*
X88256952Y-52762961D01*
X88256952Y-52762961D02*
X88352190Y-52858200D01*
X88352190Y-52858200D02*
X88495047Y-52905819D01*
X88495047Y-52905819D02*
X88590285Y-52905819D01*
X87733142Y-52905819D02*
X87733142Y-51905819D01*
X87733142Y-51905819D02*
X87352190Y-51905819D01*
X87352190Y-51905819D02*
X87256952Y-51953438D01*
X87256952Y-51953438D02*
X87209333Y-52001057D01*
X87209333Y-52001057D02*
X87161714Y-52096295D01*
X87161714Y-52096295D02*
X87161714Y-52239152D01*
X87161714Y-52239152D02*
X87209333Y-52334390D01*
X87209333Y-52334390D02*
X87256952Y-52382009D01*
X87256952Y-52382009D02*
X87352190Y-52429628D01*
X87352190Y-52429628D02*
X87733142Y-52429628D01*
X86209333Y-52905819D02*
X86780761Y-52905819D01*
X86495047Y-52905819D02*
X86495047Y-51905819D01*
X86495047Y-51905819D02*
X86590285Y-52048676D01*
X86590285Y-52048676D02*
X86685523Y-52143914D01*
X86685523Y-52143914D02*
X86780761Y-52191533D01*
X103322333Y-51905819D02*
X103322333Y-52620104D01*
X103322333Y-52620104D02*
X103369952Y-52762961D01*
X103369952Y-52762961D02*
X103465190Y-52858200D01*
X103465190Y-52858200D02*
X103608047Y-52905819D01*
X103608047Y-52905819D02*
X103703285Y-52905819D01*
X102846142Y-52905819D02*
X102846142Y-51905819D01*
X102846142Y-51905819D02*
X102465190Y-51905819D01*
X102465190Y-51905819D02*
X102369952Y-51953438D01*
X102369952Y-51953438D02*
X102322333Y-52001057D01*
X102322333Y-52001057D02*
X102274714Y-52096295D01*
X102274714Y-52096295D02*
X102274714Y-52239152D01*
X102274714Y-52239152D02*
X102322333Y-52334390D01*
X102322333Y-52334390D02*
X102369952Y-52382009D01*
X102369952Y-52382009D02*
X102465190Y-52429628D01*
X102465190Y-52429628D02*
X102846142Y-52429628D01*
X101893761Y-52001057D02*
X101846142Y-51953438D01*
X101846142Y-51953438D02*
X101750904Y-51905819D01*
X101750904Y-51905819D02*
X101512809Y-51905819D01*
X101512809Y-51905819D02*
X101417571Y-51953438D01*
X101417571Y-51953438D02*
X101369952Y-52001057D01*
X101369952Y-52001057D02*
X101322333Y-52096295D01*
X101322333Y-52096295D02*
X101322333Y-52191533D01*
X101322333Y-52191533D02*
X101369952Y-52334390D01*
X101369952Y-52334390D02*
X101941380Y-52905819D01*
X101941380Y-52905819D02*
X101322333Y-52905819D01*
X91352666Y-85449580D02*
X91400285Y-85497200D01*
X91400285Y-85497200D02*
X91543142Y-85544819D01*
X91543142Y-85544819D02*
X91638380Y-85544819D01*
X91638380Y-85544819D02*
X91781237Y-85497200D01*
X91781237Y-85497200D02*
X91876475Y-85401961D01*
X91876475Y-85401961D02*
X91924094Y-85306723D01*
X91924094Y-85306723D02*
X91971713Y-85116247D01*
X91971713Y-85116247D02*
X91971713Y-84973390D01*
X91971713Y-84973390D02*
X91924094Y-84782914D01*
X91924094Y-84782914D02*
X91876475Y-84687676D01*
X91876475Y-84687676D02*
X91781237Y-84592438D01*
X91781237Y-84592438D02*
X91638380Y-84544819D01*
X91638380Y-84544819D02*
X91543142Y-84544819D01*
X91543142Y-84544819D02*
X91400285Y-84592438D01*
X91400285Y-84592438D02*
X91352666Y-84640057D01*
X90971713Y-84640057D02*
X90924094Y-84592438D01*
X90924094Y-84592438D02*
X90828856Y-84544819D01*
X90828856Y-84544819D02*
X90590761Y-84544819D01*
X90590761Y-84544819D02*
X90495523Y-84592438D01*
X90495523Y-84592438D02*
X90447904Y-84640057D01*
X90447904Y-84640057D02*
X90400285Y-84735295D01*
X90400285Y-84735295D02*
X90400285Y-84830533D01*
X90400285Y-84830533D02*
X90447904Y-84973390D01*
X90447904Y-84973390D02*
X91019332Y-85544819D01*
X91019332Y-85544819D02*
X90400285Y-85544819D01*
X113484819Y-62761905D02*
X112484819Y-62761905D01*
X112484819Y-62761905D02*
X112484819Y-63000000D01*
X112484819Y-63000000D02*
X112532438Y-63142857D01*
X112532438Y-63142857D02*
X112627676Y-63238095D01*
X112627676Y-63238095D02*
X112722914Y-63285714D01*
X112722914Y-63285714D02*
X112913390Y-63333333D01*
X112913390Y-63333333D02*
X113056247Y-63333333D01*
X113056247Y-63333333D02*
X113246723Y-63285714D01*
X113246723Y-63285714D02*
X113341961Y-63238095D01*
X113341961Y-63238095D02*
X113437200Y-63142857D01*
X113437200Y-63142857D02*
X113484819Y-63000000D01*
X113484819Y-63000000D02*
X113484819Y-62761905D01*
X112580057Y-63714286D02*
X112532438Y-63761905D01*
X112532438Y-63761905D02*
X112484819Y-63857143D01*
X112484819Y-63857143D02*
X112484819Y-64095238D01*
X112484819Y-64095238D02*
X112532438Y-64190476D01*
X112532438Y-64190476D02*
X112580057Y-64238095D01*
X112580057Y-64238095D02*
X112675295Y-64285714D01*
X112675295Y-64285714D02*
X112770533Y-64285714D01*
X112770533Y-64285714D02*
X112913390Y-64238095D01*
X112913390Y-64238095D02*
X113484819Y-63666667D01*
X113484819Y-63666667D02*
X113484819Y-64285714D01*
X113230819Y-55776905D02*
X112230819Y-55776905D01*
X112230819Y-55776905D02*
X112230819Y-56015000D01*
X112230819Y-56015000D02*
X112278438Y-56157857D01*
X112278438Y-56157857D02*
X112373676Y-56253095D01*
X112373676Y-56253095D02*
X112468914Y-56300714D01*
X112468914Y-56300714D02*
X112659390Y-56348333D01*
X112659390Y-56348333D02*
X112802247Y-56348333D01*
X112802247Y-56348333D02*
X112992723Y-56300714D01*
X112992723Y-56300714D02*
X113087961Y-56253095D01*
X113087961Y-56253095D02*
X113183200Y-56157857D01*
X113183200Y-56157857D02*
X113230819Y-56015000D01*
X113230819Y-56015000D02*
X113230819Y-55776905D01*
X113230819Y-57300714D02*
X113230819Y-56729286D01*
X113230819Y-57015000D02*
X112230819Y-57015000D01*
X112230819Y-57015000D02*
X112373676Y-56919762D01*
X112373676Y-56919762D02*
X112468914Y-56824524D01*
X112468914Y-56824524D02*
X112516533Y-56729286D01*
X86298066Y-72114580D02*
X86345685Y-72162200D01*
X86345685Y-72162200D02*
X86488542Y-72209819D01*
X86488542Y-72209819D02*
X86583780Y-72209819D01*
X86583780Y-72209819D02*
X86726637Y-72162200D01*
X86726637Y-72162200D02*
X86821875Y-72066961D01*
X86821875Y-72066961D02*
X86869494Y-71971723D01*
X86869494Y-71971723D02*
X86917113Y-71781247D01*
X86917113Y-71781247D02*
X86917113Y-71638390D01*
X86917113Y-71638390D02*
X86869494Y-71447914D01*
X86869494Y-71447914D02*
X86821875Y-71352676D01*
X86821875Y-71352676D02*
X86726637Y-71257438D01*
X86726637Y-71257438D02*
X86583780Y-71209819D01*
X86583780Y-71209819D02*
X86488542Y-71209819D01*
X86488542Y-71209819D02*
X86345685Y-71257438D01*
X86345685Y-71257438D02*
X86298066Y-71305057D01*
X85345685Y-72209819D02*
X85917113Y-72209819D01*
X85631399Y-72209819D02*
X85631399Y-71209819D01*
X85631399Y-71209819D02*
X85726637Y-71352676D01*
X85726637Y-71352676D02*
X85821875Y-71447914D01*
X85821875Y-71447914D02*
X85917113Y-71495533D01*
X128984333Y-152953819D02*
X128984333Y-153668104D01*
X128984333Y-153668104D02*
X129031952Y-153810961D01*
X129031952Y-153810961D02*
X129127190Y-153906200D01*
X129127190Y-153906200D02*
X129270047Y-153953819D01*
X129270047Y-153953819D02*
X129365285Y-153953819D01*
X128031952Y-152953819D02*
X128508142Y-152953819D01*
X128508142Y-152953819D02*
X128555761Y-153430009D01*
X128555761Y-153430009D02*
X128508142Y-153382390D01*
X128508142Y-153382390D02*
X128412904Y-153334771D01*
X128412904Y-153334771D02*
X128174809Y-153334771D01*
X128174809Y-153334771D02*
X128079571Y-153382390D01*
X128079571Y-153382390D02*
X128031952Y-153430009D01*
X128031952Y-153430009D02*
X127984333Y-153525247D01*
X127984333Y-153525247D02*
X127984333Y-153763342D01*
X127984333Y-153763342D02*
X128031952Y-153858580D01*
X128031952Y-153858580D02*
X128079571Y-153906200D01*
X128079571Y-153906200D02*
X128174809Y-153953819D01*
X128174809Y-153953819D02*
X128412904Y-153953819D01*
X128412904Y-153953819D02*
X128508142Y-153906200D01*
X128508142Y-153906200D02*
X128555761Y-153858580D01*
X100784819Y-113371333D02*
X100308628Y-113038000D01*
X100784819Y-112799905D02*
X99784819Y-112799905D01*
X99784819Y-112799905D02*
X99784819Y-113180857D01*
X99784819Y-113180857D02*
X99832438Y-113276095D01*
X99832438Y-113276095D02*
X99880057Y-113323714D01*
X99880057Y-113323714D02*
X99975295Y-113371333D01*
X99975295Y-113371333D02*
X100118152Y-113371333D01*
X100118152Y-113371333D02*
X100213390Y-113323714D01*
X100213390Y-113323714D02*
X100261009Y-113276095D01*
X100261009Y-113276095D02*
X100308628Y-113180857D01*
X100308628Y-113180857D02*
X100308628Y-112799905D01*
X100118152Y-114228476D02*
X100784819Y-114228476D01*
X99737200Y-113990381D02*
X100451485Y-113752286D01*
X100451485Y-113752286D02*
X100451485Y-114371333D01*
X128984333Y-53258819D02*
X128984333Y-53973104D01*
X128984333Y-53973104D02*
X129031952Y-54115961D01*
X129031952Y-54115961D02*
X129127190Y-54211200D01*
X129127190Y-54211200D02*
X129270047Y-54258819D01*
X129270047Y-54258819D02*
X129365285Y-54258819D01*
X128555761Y-53354057D02*
X128508142Y-53306438D01*
X128508142Y-53306438D02*
X128412904Y-53258819D01*
X128412904Y-53258819D02*
X128174809Y-53258819D01*
X128174809Y-53258819D02*
X128079571Y-53306438D01*
X128079571Y-53306438D02*
X128031952Y-53354057D01*
X128031952Y-53354057D02*
X127984333Y-53449295D01*
X127984333Y-53449295D02*
X127984333Y-53544533D01*
X127984333Y-53544533D02*
X128031952Y-53687390D01*
X128031952Y-53687390D02*
X128603380Y-54258819D01*
X128603380Y-54258819D02*
X127984333Y-54258819D01*
X84687580Y-126706333D02*
X84735200Y-126658714D01*
X84735200Y-126658714D02*
X84782819Y-126515857D01*
X84782819Y-126515857D02*
X84782819Y-126420619D01*
X84782819Y-126420619D02*
X84735200Y-126277762D01*
X84735200Y-126277762D02*
X84639961Y-126182524D01*
X84639961Y-126182524D02*
X84544723Y-126134905D01*
X84544723Y-126134905D02*
X84354247Y-126087286D01*
X84354247Y-126087286D02*
X84211390Y-126087286D01*
X84211390Y-126087286D02*
X84020914Y-126134905D01*
X84020914Y-126134905D02*
X83925676Y-126182524D01*
X83925676Y-126182524D02*
X83830438Y-126277762D01*
X83830438Y-126277762D02*
X83782819Y-126420619D01*
X83782819Y-126420619D02*
X83782819Y-126515857D01*
X83782819Y-126515857D02*
X83830438Y-126658714D01*
X83830438Y-126658714D02*
X83878057Y-126706333D01*
X83782819Y-127563476D02*
X83782819Y-127373000D01*
X83782819Y-127373000D02*
X83830438Y-127277762D01*
X83830438Y-127277762D02*
X83878057Y-127230143D01*
X83878057Y-127230143D02*
X84020914Y-127134905D01*
X84020914Y-127134905D02*
X84211390Y-127087286D01*
X84211390Y-127087286D02*
X84592342Y-127087286D01*
X84592342Y-127087286D02*
X84687580Y-127134905D01*
X84687580Y-127134905D02*
X84735200Y-127182524D01*
X84735200Y-127182524D02*
X84782819Y-127277762D01*
X84782819Y-127277762D02*
X84782819Y-127468238D01*
X84782819Y-127468238D02*
X84735200Y-127563476D01*
X84735200Y-127563476D02*
X84687580Y-127611095D01*
X84687580Y-127611095D02*
X84592342Y-127658714D01*
X84592342Y-127658714D02*
X84354247Y-127658714D01*
X84354247Y-127658714D02*
X84259009Y-127611095D01*
X84259009Y-127611095D02*
X84211390Y-127563476D01*
X84211390Y-127563476D02*
X84163771Y-127468238D01*
X84163771Y-127468238D02*
X84163771Y-127277762D01*
X84163771Y-127277762D02*
X84211390Y-127182524D01*
X84211390Y-127182524D02*
X84259009Y-127134905D01*
X84259009Y-127134905D02*
X84354247Y-127087286D01*
X91894819Y-118070333D02*
X91418628Y-117737000D01*
X91894819Y-117498905D02*
X90894819Y-117498905D01*
X90894819Y-117498905D02*
X90894819Y-117879857D01*
X90894819Y-117879857D02*
X90942438Y-117975095D01*
X90942438Y-117975095D02*
X90990057Y-118022714D01*
X90990057Y-118022714D02*
X91085295Y-118070333D01*
X91085295Y-118070333D02*
X91228152Y-118070333D01*
X91228152Y-118070333D02*
X91323390Y-118022714D01*
X91323390Y-118022714D02*
X91371009Y-117975095D01*
X91371009Y-117975095D02*
X91418628Y-117879857D01*
X91418628Y-117879857D02*
X91418628Y-117498905D01*
X90894819Y-118927476D02*
X90894819Y-118737000D01*
X90894819Y-118737000D02*
X90942438Y-118641762D01*
X90942438Y-118641762D02*
X90990057Y-118594143D01*
X90990057Y-118594143D02*
X91132914Y-118498905D01*
X91132914Y-118498905D02*
X91323390Y-118451286D01*
X91323390Y-118451286D02*
X91704342Y-118451286D01*
X91704342Y-118451286D02*
X91799580Y-118498905D01*
X91799580Y-118498905D02*
X91847200Y-118546524D01*
X91847200Y-118546524D02*
X91894819Y-118641762D01*
X91894819Y-118641762D02*
X91894819Y-118832238D01*
X91894819Y-118832238D02*
X91847200Y-118927476D01*
X91847200Y-118927476D02*
X91799580Y-118975095D01*
X91799580Y-118975095D02*
X91704342Y-119022714D01*
X91704342Y-119022714D02*
X91466247Y-119022714D01*
X91466247Y-119022714D02*
X91371009Y-118975095D01*
X91371009Y-118975095D02*
X91323390Y-118927476D01*
X91323390Y-118927476D02*
X91275771Y-118832238D01*
X91275771Y-118832238D02*
X91275771Y-118641762D01*
X91275771Y-118641762D02*
X91323390Y-118546524D01*
X91323390Y-118546524D02*
X91371009Y-118498905D01*
X91371009Y-118498905D02*
X91466247Y-118451286D01*
X98909094Y-109873819D02*
X98909094Y-108873819D01*
X98909094Y-108873819D02*
X98670999Y-108873819D01*
X98670999Y-108873819D02*
X98528142Y-108921438D01*
X98528142Y-108921438D02*
X98432904Y-109016676D01*
X98432904Y-109016676D02*
X98385285Y-109111914D01*
X98385285Y-109111914D02*
X98337666Y-109302390D01*
X98337666Y-109302390D02*
X98337666Y-109445247D01*
X98337666Y-109445247D02*
X98385285Y-109635723D01*
X98385285Y-109635723D02*
X98432904Y-109730961D01*
X98432904Y-109730961D02*
X98528142Y-109826200D01*
X98528142Y-109826200D02*
X98670999Y-109873819D01*
X98670999Y-109873819D02*
X98909094Y-109873819D01*
X97480523Y-109207152D02*
X97480523Y-109873819D01*
X97718618Y-108826200D02*
X97956713Y-109540485D01*
X97956713Y-109540485D02*
X97337666Y-109540485D01*
X98845666Y-97990819D02*
X99178999Y-97514628D01*
X99417094Y-97990819D02*
X99417094Y-96990819D01*
X99417094Y-96990819D02*
X99036142Y-96990819D01*
X99036142Y-96990819D02*
X98940904Y-97038438D01*
X98940904Y-97038438D02*
X98893285Y-97086057D01*
X98893285Y-97086057D02*
X98845666Y-97181295D01*
X98845666Y-97181295D02*
X98845666Y-97324152D01*
X98845666Y-97324152D02*
X98893285Y-97419390D01*
X98893285Y-97419390D02*
X98940904Y-97467009D01*
X98940904Y-97467009D02*
X99036142Y-97514628D01*
X99036142Y-97514628D02*
X99417094Y-97514628D01*
X98512332Y-96990819D02*
X97893285Y-96990819D01*
X97893285Y-96990819D02*
X98226618Y-97371771D01*
X98226618Y-97371771D02*
X98083761Y-97371771D01*
X98083761Y-97371771D02*
X97988523Y-97419390D01*
X97988523Y-97419390D02*
X97940904Y-97467009D01*
X97940904Y-97467009D02*
X97893285Y-97562247D01*
X97893285Y-97562247D02*
X97893285Y-97800342D01*
X97893285Y-97800342D02*
X97940904Y-97895580D01*
X97940904Y-97895580D02*
X97988523Y-97943200D01*
X97988523Y-97943200D02*
X98083761Y-97990819D01*
X98083761Y-97990819D02*
X98369475Y-97990819D01*
X98369475Y-97990819D02*
X98464713Y-97943200D01*
X98464713Y-97943200D02*
X98512332Y-97895580D01*
X119425819Y-148510666D02*
X120140104Y-148510666D01*
X120140104Y-148510666D02*
X120282961Y-148463047D01*
X120282961Y-148463047D02*
X120378200Y-148367809D01*
X120378200Y-148367809D02*
X120425819Y-148224952D01*
X120425819Y-148224952D02*
X120425819Y-148129714D01*
X120425819Y-149034476D02*
X120425819Y-149224952D01*
X120425819Y-149224952D02*
X120378200Y-149320190D01*
X120378200Y-149320190D02*
X120330580Y-149367809D01*
X120330580Y-149367809D02*
X120187723Y-149463047D01*
X120187723Y-149463047D02*
X119997247Y-149510666D01*
X119997247Y-149510666D02*
X119616295Y-149510666D01*
X119616295Y-149510666D02*
X119521057Y-149463047D01*
X119521057Y-149463047D02*
X119473438Y-149415428D01*
X119473438Y-149415428D02*
X119425819Y-149320190D01*
X119425819Y-149320190D02*
X119425819Y-149129714D01*
X119425819Y-149129714D02*
X119473438Y-149034476D01*
X119473438Y-149034476D02*
X119521057Y-148986857D01*
X119521057Y-148986857D02*
X119616295Y-148939238D01*
X119616295Y-148939238D02*
X119854390Y-148939238D01*
X119854390Y-148939238D02*
X119949628Y-148986857D01*
X119949628Y-148986857D02*
X119997247Y-149034476D01*
X119997247Y-149034476D02*
X120044866Y-149129714D01*
X120044866Y-149129714D02*
X120044866Y-149320190D01*
X120044866Y-149320190D02*
X119997247Y-149415428D01*
X119997247Y-149415428D02*
X119949628Y-149463047D01*
X119949628Y-149463047D02*
X119854390Y-149510666D01*
X98566266Y-135243819D02*
X98899599Y-134767628D01*
X99137694Y-135243819D02*
X99137694Y-134243819D01*
X99137694Y-134243819D02*
X98756742Y-134243819D01*
X98756742Y-134243819D02*
X98661504Y-134291438D01*
X98661504Y-134291438D02*
X98613885Y-134339057D01*
X98613885Y-134339057D02*
X98566266Y-134434295D01*
X98566266Y-134434295D02*
X98566266Y-134577152D01*
X98566266Y-134577152D02*
X98613885Y-134672390D01*
X98613885Y-134672390D02*
X98661504Y-134720009D01*
X98661504Y-134720009D02*
X98756742Y-134767628D01*
X98756742Y-134767628D02*
X99137694Y-134767628D01*
X98090075Y-135243819D02*
X97899599Y-135243819D01*
X97899599Y-135243819D02*
X97804361Y-135196200D01*
X97804361Y-135196200D02*
X97756742Y-135148580D01*
X97756742Y-135148580D02*
X97661504Y-135005723D01*
X97661504Y-135005723D02*
X97613885Y-134815247D01*
X97613885Y-134815247D02*
X97613885Y-134434295D01*
X97613885Y-134434295D02*
X97661504Y-134339057D01*
X97661504Y-134339057D02*
X97709123Y-134291438D01*
X97709123Y-134291438D02*
X97804361Y-134243819D01*
X97804361Y-134243819D02*
X97994837Y-134243819D01*
X97994837Y-134243819D02*
X98090075Y-134291438D01*
X98090075Y-134291438D02*
X98137694Y-134339057D01*
X98137694Y-134339057D02*
X98185313Y-134434295D01*
X98185313Y-134434295D02*
X98185313Y-134672390D01*
X98185313Y-134672390D02*
X98137694Y-134767628D01*
X98137694Y-134767628D02*
X98090075Y-134815247D01*
X98090075Y-134815247D02*
X97994837Y-134862866D01*
X97994837Y-134862866D02*
X97804361Y-134862866D01*
X97804361Y-134862866D02*
X97709123Y-134815247D01*
X97709123Y-134815247D02*
X97661504Y-134767628D01*
X97661504Y-134767628D02*
X97613885Y-134672390D01*
X105830666Y-64716819D02*
X106163999Y-64240628D01*
X106402094Y-64716819D02*
X106402094Y-63716819D01*
X106402094Y-63716819D02*
X106021142Y-63716819D01*
X106021142Y-63716819D02*
X105925904Y-63764438D01*
X105925904Y-63764438D02*
X105878285Y-63812057D01*
X105878285Y-63812057D02*
X105830666Y-63907295D01*
X105830666Y-63907295D02*
X105830666Y-64050152D01*
X105830666Y-64050152D02*
X105878285Y-64145390D01*
X105878285Y-64145390D02*
X105925904Y-64193009D01*
X105925904Y-64193009D02*
X106021142Y-64240628D01*
X106021142Y-64240628D02*
X106402094Y-64240628D01*
X105449713Y-63812057D02*
X105402094Y-63764438D01*
X105402094Y-63764438D02*
X105306856Y-63716819D01*
X105306856Y-63716819D02*
X105068761Y-63716819D01*
X105068761Y-63716819D02*
X104973523Y-63764438D01*
X104973523Y-63764438D02*
X104925904Y-63812057D01*
X104925904Y-63812057D02*
X104878285Y-63907295D01*
X104878285Y-63907295D02*
X104878285Y-64002533D01*
X104878285Y-64002533D02*
X104925904Y-64145390D01*
X104925904Y-64145390D02*
X105497332Y-64716819D01*
X105497332Y-64716819D02*
X104878285Y-64716819D01*
X85799819Y-130897333D02*
X85323628Y-130564000D01*
X85799819Y-130325905D02*
X84799819Y-130325905D01*
X84799819Y-130325905D02*
X84799819Y-130706857D01*
X84799819Y-130706857D02*
X84847438Y-130802095D01*
X84847438Y-130802095D02*
X84895057Y-130849714D01*
X84895057Y-130849714D02*
X84990295Y-130897333D01*
X84990295Y-130897333D02*
X85133152Y-130897333D01*
X85133152Y-130897333D02*
X85228390Y-130849714D01*
X85228390Y-130849714D02*
X85276009Y-130802095D01*
X85276009Y-130802095D02*
X85323628Y-130706857D01*
X85323628Y-130706857D02*
X85323628Y-130325905D01*
X85228390Y-131468762D02*
X85180771Y-131373524D01*
X85180771Y-131373524D02*
X85133152Y-131325905D01*
X85133152Y-131325905D02*
X85037914Y-131278286D01*
X85037914Y-131278286D02*
X84990295Y-131278286D01*
X84990295Y-131278286D02*
X84895057Y-131325905D01*
X84895057Y-131325905D02*
X84847438Y-131373524D01*
X84847438Y-131373524D02*
X84799819Y-131468762D01*
X84799819Y-131468762D02*
X84799819Y-131659238D01*
X84799819Y-131659238D02*
X84847438Y-131754476D01*
X84847438Y-131754476D02*
X84895057Y-131802095D01*
X84895057Y-131802095D02*
X84990295Y-131849714D01*
X84990295Y-131849714D02*
X85037914Y-131849714D01*
X85037914Y-131849714D02*
X85133152Y-131802095D01*
X85133152Y-131802095D02*
X85180771Y-131754476D01*
X85180771Y-131754476D02*
X85228390Y-131659238D01*
X85228390Y-131659238D02*
X85228390Y-131468762D01*
X85228390Y-131468762D02*
X85276009Y-131373524D01*
X85276009Y-131373524D02*
X85323628Y-131325905D01*
X85323628Y-131325905D02*
X85418866Y-131278286D01*
X85418866Y-131278286D02*
X85609342Y-131278286D01*
X85609342Y-131278286D02*
X85704580Y-131325905D01*
X85704580Y-131325905D02*
X85752200Y-131373524D01*
X85752200Y-131373524D02*
X85799819Y-131468762D01*
X85799819Y-131468762D02*
X85799819Y-131659238D01*
X85799819Y-131659238D02*
X85752200Y-131754476D01*
X85752200Y-131754476D02*
X85704580Y-131802095D01*
X85704580Y-131802095D02*
X85609342Y-131849714D01*
X85609342Y-131849714D02*
X85418866Y-131849714D01*
X85418866Y-131849714D02*
X85323628Y-131802095D01*
X85323628Y-131802095D02*
X85276009Y-131754476D01*
X85276009Y-131754476D02*
X85228390Y-131659238D01*
X119425819Y-65325666D02*
X120140104Y-65325666D01*
X120140104Y-65325666D02*
X120282961Y-65278047D01*
X120282961Y-65278047D02*
X120378200Y-65182809D01*
X120378200Y-65182809D02*
X120425819Y-65039952D01*
X120425819Y-65039952D02*
X120425819Y-64944714D01*
X119425819Y-66230428D02*
X119425819Y-66039952D01*
X119425819Y-66039952D02*
X119473438Y-65944714D01*
X119473438Y-65944714D02*
X119521057Y-65897095D01*
X119521057Y-65897095D02*
X119663914Y-65801857D01*
X119663914Y-65801857D02*
X119854390Y-65754238D01*
X119854390Y-65754238D02*
X120235342Y-65754238D01*
X120235342Y-65754238D02*
X120330580Y-65801857D01*
X120330580Y-65801857D02*
X120378200Y-65849476D01*
X120378200Y-65849476D02*
X120425819Y-65944714D01*
X120425819Y-65944714D02*
X120425819Y-66135190D01*
X120425819Y-66135190D02*
X120378200Y-66230428D01*
X120378200Y-66230428D02*
X120330580Y-66278047D01*
X120330580Y-66278047D02*
X120235342Y-66325666D01*
X120235342Y-66325666D02*
X119997247Y-66325666D01*
X119997247Y-66325666D02*
X119902009Y-66278047D01*
X119902009Y-66278047D02*
X119854390Y-66230428D01*
X119854390Y-66230428D02*
X119806771Y-66135190D01*
X119806771Y-66135190D02*
X119806771Y-65944714D01*
X119806771Y-65944714D02*
X119854390Y-65849476D01*
X119854390Y-65849476D02*
X119902009Y-65801857D01*
X119902009Y-65801857D02*
X119997247Y-65754238D01*
X119425819Y-119935666D02*
X120140104Y-119935666D01*
X120140104Y-119935666D02*
X120282961Y-119888047D01*
X120282961Y-119888047D02*
X120378200Y-119792809D01*
X120378200Y-119792809D02*
X120425819Y-119649952D01*
X120425819Y-119649952D02*
X120425819Y-119554714D01*
X119854390Y-120554714D02*
X119806771Y-120459476D01*
X119806771Y-120459476D02*
X119759152Y-120411857D01*
X119759152Y-120411857D02*
X119663914Y-120364238D01*
X119663914Y-120364238D02*
X119616295Y-120364238D01*
X119616295Y-120364238D02*
X119521057Y-120411857D01*
X119521057Y-120411857D02*
X119473438Y-120459476D01*
X119473438Y-120459476D02*
X119425819Y-120554714D01*
X119425819Y-120554714D02*
X119425819Y-120745190D01*
X119425819Y-120745190D02*
X119473438Y-120840428D01*
X119473438Y-120840428D02*
X119521057Y-120888047D01*
X119521057Y-120888047D02*
X119616295Y-120935666D01*
X119616295Y-120935666D02*
X119663914Y-120935666D01*
X119663914Y-120935666D02*
X119759152Y-120888047D01*
X119759152Y-120888047D02*
X119806771Y-120840428D01*
X119806771Y-120840428D02*
X119854390Y-120745190D01*
X119854390Y-120745190D02*
X119854390Y-120554714D01*
X119854390Y-120554714D02*
X119902009Y-120459476D01*
X119902009Y-120459476D02*
X119949628Y-120411857D01*
X119949628Y-120411857D02*
X120044866Y-120364238D01*
X120044866Y-120364238D02*
X120235342Y-120364238D01*
X120235342Y-120364238D02*
X120330580Y-120411857D01*
X120330580Y-120411857D02*
X120378200Y-120459476D01*
X120378200Y-120459476D02*
X120425819Y-120554714D01*
X120425819Y-120554714D02*
X120425819Y-120745190D01*
X120425819Y-120745190D02*
X120378200Y-120840428D01*
X120378200Y-120840428D02*
X120330580Y-120888047D01*
X120330580Y-120888047D02*
X120235342Y-120935666D01*
X120235342Y-120935666D02*
X120044866Y-120935666D01*
X120044866Y-120935666D02*
X119949628Y-120888047D01*
X119949628Y-120888047D02*
X119902009Y-120840428D01*
X119902009Y-120840428D02*
X119854390Y-120745190D01*
X89231695Y-100820721D02*
X88754192Y-100486469D01*
X89231695Y-100247718D02*
X88228939Y-100247718D01*
X88228939Y-100247718D02*
X88228939Y-100629720D01*
X88228939Y-100629720D02*
X88276689Y-100725221D01*
X88276689Y-100725221D02*
X88324439Y-100772971D01*
X88324439Y-100772971D02*
X88419940Y-100820721D01*
X88419940Y-100820721D02*
X88563191Y-100820721D01*
X88563191Y-100820721D02*
X88658691Y-100772971D01*
X88658691Y-100772971D02*
X88706442Y-100725221D01*
X88706442Y-100725221D02*
X88754192Y-100629720D01*
X88754192Y-100629720D02*
X88754192Y-100247718D01*
X88228939Y-101107223D02*
X89231695Y-101441475D01*
X89231695Y-101441475D02*
X88228939Y-101775727D01*
X88228939Y-102587482D02*
X88228939Y-102109979D01*
X88228939Y-102109979D02*
X88706442Y-102062229D01*
X88706442Y-102062229D02*
X88658691Y-102109979D01*
X88658691Y-102109979D02*
X88610941Y-102205480D01*
X88610941Y-102205480D02*
X88610941Y-102444231D01*
X88610941Y-102444231D02*
X88658691Y-102539732D01*
X88658691Y-102539732D02*
X88706442Y-102587482D01*
X88706442Y-102587482D02*
X88801942Y-102635232D01*
X88801942Y-102635232D02*
X89040694Y-102635232D01*
X89040694Y-102635232D02*
X89136194Y-102587482D01*
X89136194Y-102587482D02*
X89183945Y-102539732D01*
X89183945Y-102539732D02*
X89231695Y-102444231D01*
X89231695Y-102444231D02*
X89231695Y-102205480D01*
X89231695Y-102205480D02*
X89183945Y-102109979D01*
X89183945Y-102109979D02*
X89136194Y-102062229D01*
X98083666Y-125810180D02*
X98131285Y-125857800D01*
X98131285Y-125857800D02*
X98274142Y-125905419D01*
X98274142Y-125905419D02*
X98369380Y-125905419D01*
X98369380Y-125905419D02*
X98512237Y-125857800D01*
X98512237Y-125857800D02*
X98607475Y-125762561D01*
X98607475Y-125762561D02*
X98655094Y-125667323D01*
X98655094Y-125667323D02*
X98702713Y-125476847D01*
X98702713Y-125476847D02*
X98702713Y-125333990D01*
X98702713Y-125333990D02*
X98655094Y-125143514D01*
X98655094Y-125143514D02*
X98607475Y-125048276D01*
X98607475Y-125048276D02*
X98512237Y-124953038D01*
X98512237Y-124953038D02*
X98369380Y-124905419D01*
X98369380Y-124905419D02*
X98274142Y-124905419D01*
X98274142Y-124905419D02*
X98131285Y-124953038D01*
X98131285Y-124953038D02*
X98083666Y-125000657D01*
X97178904Y-124905419D02*
X97655094Y-124905419D01*
X97655094Y-124905419D02*
X97702713Y-125381609D01*
X97702713Y-125381609D02*
X97655094Y-125333990D01*
X97655094Y-125333990D02*
X97559856Y-125286371D01*
X97559856Y-125286371D02*
X97321761Y-125286371D01*
X97321761Y-125286371D02*
X97226523Y-125333990D01*
X97226523Y-125333990D02*
X97178904Y-125381609D01*
X97178904Y-125381609D02*
X97131285Y-125476847D01*
X97131285Y-125476847D02*
X97131285Y-125714942D01*
X97131285Y-125714942D02*
X97178904Y-125810180D01*
X97178904Y-125810180D02*
X97226523Y-125857800D01*
X97226523Y-125857800D02*
X97321761Y-125905419D01*
X97321761Y-125905419D02*
X97559856Y-125905419D01*
X97559856Y-125905419D02*
X97655094Y-125857800D01*
X97655094Y-125857800D02*
X97702713Y-125810180D01*
X128984333Y-107868819D02*
X128984333Y-108583104D01*
X128984333Y-108583104D02*
X129031952Y-108725961D01*
X129031952Y-108725961D02*
X129127190Y-108821200D01*
X129127190Y-108821200D02*
X129270047Y-108868819D01*
X129270047Y-108868819D02*
X129365285Y-108868819D01*
X128079571Y-108202152D02*
X128079571Y-108868819D01*
X128317666Y-107821200D02*
X128555761Y-108535485D01*
X128555761Y-108535485D02*
X127936714Y-108535485D01*
X90402580Y-107402333D02*
X90450200Y-107354714D01*
X90450200Y-107354714D02*
X90497819Y-107211857D01*
X90497819Y-107211857D02*
X90497819Y-107116619D01*
X90497819Y-107116619D02*
X90450200Y-106973762D01*
X90450200Y-106973762D02*
X90354961Y-106878524D01*
X90354961Y-106878524D02*
X90259723Y-106830905D01*
X90259723Y-106830905D02*
X90069247Y-106783286D01*
X90069247Y-106783286D02*
X89926390Y-106783286D01*
X89926390Y-106783286D02*
X89735914Y-106830905D01*
X89735914Y-106830905D02*
X89640676Y-106878524D01*
X89640676Y-106878524D02*
X89545438Y-106973762D01*
X89545438Y-106973762D02*
X89497819Y-107116619D01*
X89497819Y-107116619D02*
X89497819Y-107211857D01*
X89497819Y-107211857D02*
X89545438Y-107354714D01*
X89545438Y-107354714D02*
X89593057Y-107402333D01*
X89831152Y-108259476D02*
X90497819Y-108259476D01*
X89450200Y-108021381D02*
X90164485Y-107783286D01*
X90164485Y-107783286D02*
X90164485Y-108402333D01*
X102020666Y-132280819D02*
X102353999Y-131804628D01*
X102592094Y-132280819D02*
X102592094Y-131280819D01*
X102592094Y-131280819D02*
X102211142Y-131280819D01*
X102211142Y-131280819D02*
X102115904Y-131328438D01*
X102115904Y-131328438D02*
X102068285Y-131376057D01*
X102068285Y-131376057D02*
X102020666Y-131471295D01*
X102020666Y-131471295D02*
X102020666Y-131614152D01*
X102020666Y-131614152D02*
X102068285Y-131709390D01*
X102068285Y-131709390D02*
X102115904Y-131757009D01*
X102115904Y-131757009D02*
X102211142Y-131804628D01*
X102211142Y-131804628D02*
X102592094Y-131804628D01*
X101687332Y-131280819D02*
X101020666Y-131280819D01*
X101020666Y-131280819D02*
X101449237Y-132280819D01*
X102369857Y-96847819D02*
X102703190Y-96371628D01*
X102941285Y-96847819D02*
X102941285Y-95847819D01*
X102941285Y-95847819D02*
X102560333Y-95847819D01*
X102560333Y-95847819D02*
X102465095Y-95895438D01*
X102465095Y-95895438D02*
X102417476Y-95943057D01*
X102417476Y-95943057D02*
X102369857Y-96038295D01*
X102369857Y-96038295D02*
X102369857Y-96181152D01*
X102369857Y-96181152D02*
X102417476Y-96276390D01*
X102417476Y-96276390D02*
X102465095Y-96324009D01*
X102465095Y-96324009D02*
X102560333Y-96371628D01*
X102560333Y-96371628D02*
X102941285Y-96371628D01*
X101417476Y-96847819D02*
X101988904Y-96847819D01*
X101703190Y-96847819D02*
X101703190Y-95847819D01*
X101703190Y-95847819D02*
X101798428Y-95990676D01*
X101798428Y-95990676D02*
X101893666Y-96085914D01*
X101893666Y-96085914D02*
X101988904Y-96133533D01*
X101036523Y-95943057D02*
X100988904Y-95895438D01*
X100988904Y-95895438D02*
X100893666Y-95847819D01*
X100893666Y-95847819D02*
X100655571Y-95847819D01*
X100655571Y-95847819D02*
X100560333Y-95895438D01*
X100560333Y-95895438D02*
X100512714Y-95943057D01*
X100512714Y-95943057D02*
X100465095Y-96038295D01*
X100465095Y-96038295D02*
X100465095Y-96133533D01*
X100465095Y-96133533D02*
X100512714Y-96276390D01*
X100512714Y-96276390D02*
X101084142Y-96847819D01*
X101084142Y-96847819D02*
X100465095Y-96847819D01*
X108912819Y-112641142D02*
X108436628Y-112307809D01*
X108912819Y-112069714D02*
X107912819Y-112069714D01*
X107912819Y-112069714D02*
X107912819Y-112450666D01*
X107912819Y-112450666D02*
X107960438Y-112545904D01*
X107960438Y-112545904D02*
X108008057Y-112593523D01*
X108008057Y-112593523D02*
X108103295Y-112641142D01*
X108103295Y-112641142D02*
X108246152Y-112641142D01*
X108246152Y-112641142D02*
X108341390Y-112593523D01*
X108341390Y-112593523D02*
X108389009Y-112545904D01*
X108389009Y-112545904D02*
X108436628Y-112450666D01*
X108436628Y-112450666D02*
X108436628Y-112069714D01*
X108912819Y-113593523D02*
X108912819Y-113022095D01*
X108912819Y-113307809D02*
X107912819Y-113307809D01*
X107912819Y-113307809D02*
X108055676Y-113212571D01*
X108055676Y-113212571D02*
X108150914Y-113117333D01*
X108150914Y-113117333D02*
X108198533Y-113022095D01*
X107912819Y-113926857D02*
X107912819Y-114545904D01*
X107912819Y-114545904D02*
X108293771Y-114212571D01*
X108293771Y-114212571D02*
X108293771Y-114355428D01*
X108293771Y-114355428D02*
X108341390Y-114450666D01*
X108341390Y-114450666D02*
X108389009Y-114498285D01*
X108389009Y-114498285D02*
X108484247Y-114545904D01*
X108484247Y-114545904D02*
X108722342Y-114545904D01*
X108722342Y-114545904D02*
X108817580Y-114498285D01*
X108817580Y-114498285D02*
X108865200Y-114450666D01*
X108865200Y-114450666D02*
X108912819Y-114355428D01*
X108912819Y-114355428D02*
X108912819Y-114069714D01*
X108912819Y-114069714D02*
X108865200Y-113974476D01*
X108865200Y-113974476D02*
X108817580Y-113926857D01*
X89185819Y-142968142D02*
X88709628Y-142634809D01*
X89185819Y-142396714D02*
X88185819Y-142396714D01*
X88185819Y-142396714D02*
X88185819Y-142777666D01*
X88185819Y-142777666D02*
X88233438Y-142872904D01*
X88233438Y-142872904D02*
X88281057Y-142920523D01*
X88281057Y-142920523D02*
X88376295Y-142968142D01*
X88376295Y-142968142D02*
X88519152Y-142968142D01*
X88519152Y-142968142D02*
X88614390Y-142920523D01*
X88614390Y-142920523D02*
X88662009Y-142872904D01*
X88662009Y-142872904D02*
X88709628Y-142777666D01*
X88709628Y-142777666D02*
X88709628Y-142396714D01*
X89185819Y-143920523D02*
X89185819Y-143349095D01*
X89185819Y-143634809D02*
X88185819Y-143634809D01*
X88185819Y-143634809D02*
X88328676Y-143539571D01*
X88328676Y-143539571D02*
X88423914Y-143444333D01*
X88423914Y-143444333D02*
X88471533Y-143349095D01*
X88185819Y-144539571D02*
X88185819Y-144634809D01*
X88185819Y-144634809D02*
X88233438Y-144730047D01*
X88233438Y-144730047D02*
X88281057Y-144777666D01*
X88281057Y-144777666D02*
X88376295Y-144825285D01*
X88376295Y-144825285D02*
X88566771Y-144872904D01*
X88566771Y-144872904D02*
X88804866Y-144872904D01*
X88804866Y-144872904D02*
X88995342Y-144825285D01*
X88995342Y-144825285D02*
X89090580Y-144777666D01*
X89090580Y-144777666D02*
X89138200Y-144730047D01*
X89138200Y-144730047D02*
X89185819Y-144634809D01*
X89185819Y-144634809D02*
X89185819Y-144539571D01*
X89185819Y-144539571D02*
X89138200Y-144444333D01*
X89138200Y-144444333D02*
X89090580Y-144396714D01*
X89090580Y-144396714D02*
X88995342Y-144349095D01*
X88995342Y-144349095D02*
X88804866Y-144301476D01*
X88804866Y-144301476D02*
X88566771Y-144301476D01*
X88566771Y-144301476D02*
X88376295Y-144349095D01*
X88376295Y-144349095D02*
X88281057Y-144396714D01*
X88281057Y-144396714D02*
X88233438Y-144444333D01*
X88233438Y-144444333D02*
X88185819Y-144539571D01*
X93575094Y-97173819D02*
X93575094Y-96173819D01*
X93575094Y-96173819D02*
X93336999Y-96173819D01*
X93336999Y-96173819D02*
X93194142Y-96221438D01*
X93194142Y-96221438D02*
X93098904Y-96316676D01*
X93098904Y-96316676D02*
X93051285Y-96411914D01*
X93051285Y-96411914D02*
X93003666Y-96602390D01*
X93003666Y-96602390D02*
X93003666Y-96745247D01*
X93003666Y-96745247D02*
X93051285Y-96935723D01*
X93051285Y-96935723D02*
X93098904Y-97030961D01*
X93098904Y-97030961D02*
X93194142Y-97126200D01*
X93194142Y-97126200D02*
X93336999Y-97173819D01*
X93336999Y-97173819D02*
X93575094Y-97173819D01*
X92670332Y-96173819D02*
X92051285Y-96173819D01*
X92051285Y-96173819D02*
X92384618Y-96554771D01*
X92384618Y-96554771D02*
X92241761Y-96554771D01*
X92241761Y-96554771D02*
X92146523Y-96602390D01*
X92146523Y-96602390D02*
X92098904Y-96650009D01*
X92098904Y-96650009D02*
X92051285Y-96745247D01*
X92051285Y-96745247D02*
X92051285Y-96983342D01*
X92051285Y-96983342D02*
X92098904Y-97078580D01*
X92098904Y-97078580D02*
X92146523Y-97126200D01*
X92146523Y-97126200D02*
X92241761Y-97173819D01*
X92241761Y-97173819D02*
X92527475Y-97173819D01*
X92527475Y-97173819D02*
X92622713Y-97126200D01*
X92622713Y-97126200D02*
X92670332Y-97078580D01*
X88177666Y-96908580D02*
X88225285Y-96956200D01*
X88225285Y-96956200D02*
X88368142Y-97003819D01*
X88368142Y-97003819D02*
X88463380Y-97003819D01*
X88463380Y-97003819D02*
X88606237Y-96956200D01*
X88606237Y-96956200D02*
X88701475Y-96860961D01*
X88701475Y-96860961D02*
X88749094Y-96765723D01*
X88749094Y-96765723D02*
X88796713Y-96575247D01*
X88796713Y-96575247D02*
X88796713Y-96432390D01*
X88796713Y-96432390D02*
X88749094Y-96241914D01*
X88749094Y-96241914D02*
X88701475Y-96146676D01*
X88701475Y-96146676D02*
X88606237Y-96051438D01*
X88606237Y-96051438D02*
X88463380Y-96003819D01*
X88463380Y-96003819D02*
X88368142Y-96003819D01*
X88368142Y-96003819D02*
X88225285Y-96051438D01*
X88225285Y-96051438D02*
X88177666Y-96099057D01*
X87844332Y-96003819D02*
X87225285Y-96003819D01*
X87225285Y-96003819D02*
X87558618Y-96384771D01*
X87558618Y-96384771D02*
X87415761Y-96384771D01*
X87415761Y-96384771D02*
X87320523Y-96432390D01*
X87320523Y-96432390D02*
X87272904Y-96480009D01*
X87272904Y-96480009D02*
X87225285Y-96575247D01*
X87225285Y-96575247D02*
X87225285Y-96813342D01*
X87225285Y-96813342D02*
X87272904Y-96908580D01*
X87272904Y-96908580D02*
X87320523Y-96956200D01*
X87320523Y-96956200D02*
X87415761Y-97003819D01*
X87415761Y-97003819D02*
X87701475Y-97003819D01*
X87701475Y-97003819D02*
X87796713Y-96956200D01*
X87796713Y-96956200D02*
X87844332Y-96908580D01*
X86180819Y-115022333D02*
X85704628Y-114689000D01*
X86180819Y-114450905D02*
X85180819Y-114450905D01*
X85180819Y-114450905D02*
X85180819Y-114831857D01*
X85180819Y-114831857D02*
X85228438Y-114927095D01*
X85228438Y-114927095D02*
X85276057Y-114974714D01*
X85276057Y-114974714D02*
X85371295Y-115022333D01*
X85371295Y-115022333D02*
X85514152Y-115022333D01*
X85514152Y-115022333D02*
X85609390Y-114974714D01*
X85609390Y-114974714D02*
X85657009Y-114927095D01*
X85657009Y-114927095D02*
X85704628Y-114831857D01*
X85704628Y-114831857D02*
X85704628Y-114450905D01*
X85180819Y-115927095D02*
X85180819Y-115450905D01*
X85180819Y-115450905D02*
X85657009Y-115403286D01*
X85657009Y-115403286D02*
X85609390Y-115450905D01*
X85609390Y-115450905D02*
X85561771Y-115546143D01*
X85561771Y-115546143D02*
X85561771Y-115784238D01*
X85561771Y-115784238D02*
X85609390Y-115879476D01*
X85609390Y-115879476D02*
X85657009Y-115927095D01*
X85657009Y-115927095D02*
X85752247Y-115974714D01*
X85752247Y-115974714D02*
X85990342Y-115974714D01*
X85990342Y-115974714D02*
X86085580Y-115927095D01*
X86085580Y-115927095D02*
X86133200Y-115879476D01*
X86133200Y-115879476D02*
X86180819Y-115784238D01*
X86180819Y-115784238D02*
X86180819Y-115546143D01*
X86180819Y-115546143D02*
X86133200Y-115450905D01*
X86133200Y-115450905D02*
X86085580Y-115403286D01*
X119425819Y-93900666D02*
X120140104Y-93900666D01*
X120140104Y-93900666D02*
X120282961Y-93853047D01*
X120282961Y-93853047D02*
X120378200Y-93757809D01*
X120378200Y-93757809D02*
X120425819Y-93614952D01*
X120425819Y-93614952D02*
X120425819Y-93519714D01*
X119425819Y-94281619D02*
X119425819Y-94948285D01*
X119425819Y-94948285D02*
X120425819Y-94519714D01*
X105830666Y-55445819D02*
X106163999Y-54969628D01*
X106402094Y-55445819D02*
X106402094Y-54445819D01*
X106402094Y-54445819D02*
X106021142Y-54445819D01*
X106021142Y-54445819D02*
X105925904Y-54493438D01*
X105925904Y-54493438D02*
X105878285Y-54541057D01*
X105878285Y-54541057D02*
X105830666Y-54636295D01*
X105830666Y-54636295D02*
X105830666Y-54779152D01*
X105830666Y-54779152D02*
X105878285Y-54874390D01*
X105878285Y-54874390D02*
X105925904Y-54922009D01*
X105925904Y-54922009D02*
X106021142Y-54969628D01*
X106021142Y-54969628D02*
X106402094Y-54969628D01*
X104878285Y-55445819D02*
X105449713Y-55445819D01*
X105163999Y-55445819D02*
X105163999Y-54445819D01*
X105163999Y-54445819D02*
X105259237Y-54588676D01*
X105259237Y-54588676D02*
X105354475Y-54683914D01*
X105354475Y-54683914D02*
X105449713Y-54731533D01*
X89483094Y-111036121D02*
X89005591Y-110701869D01*
X89483094Y-110463118D02*
X88480338Y-110463118D01*
X88480338Y-110463118D02*
X88480338Y-110845120D01*
X88480338Y-110845120D02*
X88528088Y-110940621D01*
X88528088Y-110940621D02*
X88575838Y-110988371D01*
X88575838Y-110988371D02*
X88671339Y-111036121D01*
X88671339Y-111036121D02*
X88814590Y-111036121D01*
X88814590Y-111036121D02*
X88910090Y-110988371D01*
X88910090Y-110988371D02*
X88957841Y-110940621D01*
X88957841Y-110940621D02*
X89005591Y-110845120D01*
X89005591Y-110845120D02*
X89005591Y-110463118D01*
X88480338Y-111322623D02*
X89483094Y-111656875D01*
X89483094Y-111656875D02*
X88480338Y-111991127D01*
X88480338Y-112755132D02*
X88480338Y-112564130D01*
X88480338Y-112564130D02*
X88528088Y-112468630D01*
X88528088Y-112468630D02*
X88575838Y-112420880D01*
X88575838Y-112420880D02*
X88719089Y-112325379D01*
X88719089Y-112325379D02*
X88910090Y-112277629D01*
X88910090Y-112277629D02*
X89292093Y-112277629D01*
X89292093Y-112277629D02*
X89387593Y-112325379D01*
X89387593Y-112325379D02*
X89435344Y-112373129D01*
X89435344Y-112373129D02*
X89483094Y-112468630D01*
X89483094Y-112468630D02*
X89483094Y-112659631D01*
X89483094Y-112659631D02*
X89435344Y-112755132D01*
X89435344Y-112755132D02*
X89387593Y-112802882D01*
X89387593Y-112802882D02*
X89292093Y-112850632D01*
X89292093Y-112850632D02*
X89053341Y-112850632D01*
X89053341Y-112850632D02*
X88957841Y-112802882D01*
X88957841Y-112802882D02*
X88910090Y-112755132D01*
X88910090Y-112755132D02*
X88862340Y-112659631D01*
X88862340Y-112659631D02*
X88862340Y-112468630D01*
X88862340Y-112468630D02*
X88910090Y-112373129D01*
X88910090Y-112373129D02*
X88957841Y-112325379D01*
X88957841Y-112325379D02*
X89053341Y-112277629D01*
X106753819Y-130167142D02*
X106277628Y-129833809D01*
X106753819Y-129595714D02*
X105753819Y-129595714D01*
X105753819Y-129595714D02*
X105753819Y-129976666D01*
X105753819Y-129976666D02*
X105801438Y-130071904D01*
X105801438Y-130071904D02*
X105849057Y-130119523D01*
X105849057Y-130119523D02*
X105944295Y-130167142D01*
X105944295Y-130167142D02*
X106087152Y-130167142D01*
X106087152Y-130167142D02*
X106182390Y-130119523D01*
X106182390Y-130119523D02*
X106230009Y-130071904D01*
X106230009Y-130071904D02*
X106277628Y-129976666D01*
X106277628Y-129976666D02*
X106277628Y-129595714D01*
X106753819Y-131119523D02*
X106753819Y-130548095D01*
X106753819Y-130833809D02*
X105753819Y-130833809D01*
X105753819Y-130833809D02*
X105896676Y-130738571D01*
X105896676Y-130738571D02*
X105991914Y-130643333D01*
X105991914Y-130643333D02*
X106039533Y-130548095D01*
X106087152Y-131976666D02*
X106753819Y-131976666D01*
X105706200Y-131738571D02*
X106420485Y-131500476D01*
X106420485Y-131500476D02*
X106420485Y-132119523D01*
X128984333Y-98338819D02*
X128984333Y-99053104D01*
X128984333Y-99053104D02*
X129031952Y-99195961D01*
X129031952Y-99195961D02*
X129127190Y-99291200D01*
X129127190Y-99291200D02*
X129270047Y-99338819D01*
X129270047Y-99338819D02*
X129365285Y-99338819D01*
X128603380Y-98338819D02*
X127984333Y-98338819D01*
X127984333Y-98338819D02*
X128317666Y-98719771D01*
X128317666Y-98719771D02*
X128174809Y-98719771D01*
X128174809Y-98719771D02*
X128079571Y-98767390D01*
X128079571Y-98767390D02*
X128031952Y-98815009D01*
X128031952Y-98815009D02*
X127984333Y-98910247D01*
X127984333Y-98910247D02*
X127984333Y-99148342D01*
X127984333Y-99148342D02*
X128031952Y-99243580D01*
X128031952Y-99243580D02*
X128079571Y-99291200D01*
X128079571Y-99291200D02*
X128174809Y-99338819D01*
X128174809Y-99338819D02*
X128460523Y-99338819D01*
X128460523Y-99338819D02*
X128555761Y-99291200D01*
X128555761Y-99291200D02*
X128603380Y-99243580D01*
X108912819Y-85463142D02*
X108436628Y-85129809D01*
X108912819Y-84891714D02*
X107912819Y-84891714D01*
X107912819Y-84891714D02*
X107912819Y-85272666D01*
X107912819Y-85272666D02*
X107960438Y-85367904D01*
X107960438Y-85367904D02*
X108008057Y-85415523D01*
X108008057Y-85415523D02*
X108103295Y-85463142D01*
X108103295Y-85463142D02*
X108246152Y-85463142D01*
X108246152Y-85463142D02*
X108341390Y-85415523D01*
X108341390Y-85415523D02*
X108389009Y-85367904D01*
X108389009Y-85367904D02*
X108436628Y-85272666D01*
X108436628Y-85272666D02*
X108436628Y-84891714D01*
X108912819Y-86415523D02*
X108912819Y-85844095D01*
X108912819Y-86129809D02*
X107912819Y-86129809D01*
X107912819Y-86129809D02*
X108055676Y-86034571D01*
X108055676Y-86034571D02*
X108150914Y-85939333D01*
X108150914Y-85939333D02*
X108198533Y-85844095D01*
X108912819Y-87367904D02*
X108912819Y-86796476D01*
X108912819Y-87082190D02*
X107912819Y-87082190D01*
X107912819Y-87082190D02*
X108055676Y-86986952D01*
X108055676Y-86986952D02*
X108150914Y-86891714D01*
X108150914Y-86891714D02*
X108198533Y-86796476D01*
X94215904Y-120739819D02*
X94215904Y-121549342D01*
X94215904Y-121549342D02*
X94168285Y-121644580D01*
X94168285Y-121644580D02*
X94120666Y-121692200D01*
X94120666Y-121692200D02*
X94025428Y-121739819D01*
X94025428Y-121739819D02*
X93834952Y-121739819D01*
X93834952Y-121739819D02*
X93739714Y-121692200D01*
X93739714Y-121692200D02*
X93692095Y-121644580D01*
X93692095Y-121644580D02*
X93644476Y-121549342D01*
X93644476Y-121549342D02*
X93644476Y-120739819D01*
X92644476Y-121739819D02*
X93215904Y-121739819D01*
X92930190Y-121739819D02*
X92930190Y-120739819D01*
X92930190Y-120739819D02*
X93025428Y-120882676D01*
X93025428Y-120882676D02*
X93120666Y-120977914D01*
X93120666Y-120977914D02*
X93215904Y-121025533D01*
D11*
X131251000Y-159699000D02*
X126051000Y-159699000D01*
X131251000Y-157099000D02*
X131251000Y-159699000D01*
X131251000Y-157099000D02*
X128651000Y-157099000D01*
X131251000Y-155829000D02*
X131251000Y-154499000D01*
X131251000Y-154499000D02*
X129921000Y-154499000D01*
X128651000Y-157099000D02*
X128651000Y-154499000D01*
X128651000Y-154499000D02*
X126051000Y-154499000D01*
X126051000Y-154499000D02*
X126051000Y-159699000D01*
X99287000Y-113310936D02*
X99287000Y-113765064D01*
X97817000Y-113310936D02*
X97817000Y-113765064D01*
X131251000Y-60004000D02*
X126051000Y-60004000D01*
X131251000Y-57404000D02*
X131251000Y-60004000D01*
X131251000Y-57404000D02*
X128651000Y-57404000D01*
X131251000Y-56134000D02*
X131251000Y-54804000D01*
X131251000Y-54804000D02*
X129921000Y-54804000D01*
X128651000Y-57404000D02*
X128651000Y-54804000D01*
X128651000Y-54804000D02*
X126051000Y-54804000D01*
X126051000Y-54804000D02*
X126051000Y-60004000D01*
X86726049Y-126138000D02*
X87248553Y-126138000D01*
X86726049Y-127608000D02*
X87248553Y-127608000D01*
X93879936Y-117502000D02*
X94334064Y-117502000D01*
X93879936Y-118972000D02*
X94334064Y-118972000D01*
X96161000Y-106719000D02*
X99421000Y-106719000D01*
X96161000Y-108419000D02*
X96161000Y-106719000D01*
X96161000Y-108419000D02*
X99421000Y-108419000D01*
X97944000Y-100430064D02*
X97944000Y-99975936D01*
X99414000Y-100430064D02*
X99414000Y-99975936D01*
X133791000Y-147514000D02*
X133791000Y-150174000D01*
X123571000Y-147514000D02*
X133791000Y-147514000D01*
X123571000Y-147514000D02*
X123571000Y-150174000D01*
X122301000Y-147514000D02*
X120971000Y-147514000D01*
X120971000Y-147514000D02*
X120971000Y-148844000D01*
X123571000Y-150174000D02*
X133791000Y-150174000D01*
X97672536Y-132059000D02*
X99126664Y-132059000D01*
X97672536Y-133879000D02*
X99126664Y-133879000D01*
X105891064Y-63219000D02*
X105436936Y-63219000D01*
X105891064Y-61749000D02*
X105436936Y-61749000D01*
X87730000Y-130836936D02*
X87730000Y-131291064D01*
X86260000Y-130836936D02*
X86260000Y-131291064D01*
X133791000Y-64329000D02*
X133791000Y-66989000D01*
X123571000Y-64329000D02*
X133791000Y-64329000D01*
X123571000Y-64329000D02*
X123571000Y-66989000D01*
X122301000Y-64329000D02*
X120971000Y-64329000D01*
X120971000Y-64329000D02*
X120971000Y-65659000D01*
X123571000Y-66989000D02*
X133791000Y-66989000D01*
X133791000Y-118939000D02*
X133791000Y-121599000D01*
X123571000Y-118939000D02*
X133791000Y-118939000D01*
X123571000Y-118939000D02*
X123571000Y-121599000D01*
X122301000Y-118939000D02*
X120971000Y-118939000D01*
X120971000Y-118939000D02*
X120971000Y-120269000D01*
X123571000Y-121599000D02*
X133791000Y-121599000D01*
D12*
X96647601Y-104963000D02*
X96647601Y-102678000D01*
X96647601Y-100138000D02*
X96647601Y-97973000D01*
X96647601Y-97973000D02*
X90047601Y-97973000D01*
X90047601Y-104973000D02*
X96647601Y-104973000D01*
X90047601Y-102678000D02*
X90047601Y-104963000D01*
X90047601Y-97973000D02*
X90047601Y-100138000D01*
D13*
X97511601Y-101443000D02*
G75*
G03*
X97511601Y-101443000I-100000J0D01*
G01*
D11*
X98652000Y-127856348D02*
X98652000Y-128378852D01*
X97182000Y-127856348D02*
X97182000Y-128378852D01*
X131251000Y-114614000D02*
X126051000Y-114614000D01*
X131251000Y-112014000D02*
X131251000Y-114614000D01*
X131251000Y-112014000D02*
X128651000Y-112014000D01*
X131251000Y-110744000D02*
X131251000Y-109414000D01*
X131251000Y-109414000D02*
X129921000Y-109414000D01*
X128651000Y-112014000D02*
X128651000Y-109414000D01*
X128651000Y-109414000D02*
X126051000Y-109414000D01*
X126051000Y-109414000D02*
X126051000Y-114614000D01*
X92321748Y-106834000D02*
X92844252Y-106834000D01*
X92321748Y-108304000D02*
X92844252Y-108304000D01*
X102589000Y-128906536D02*
X102589000Y-129360664D01*
X101119000Y-128906536D02*
X101119000Y-129360664D01*
X102462000Y-98689936D02*
X102462000Y-99144064D01*
X100992000Y-98689936D02*
X100992000Y-99144064D01*
X107415000Y-113056936D02*
X107415000Y-113511064D01*
X105945000Y-113056936D02*
X105945000Y-113511064D01*
X91461000Y-142883936D02*
X91461000Y-144338064D01*
X89641000Y-142883936D02*
X89641000Y-144338064D01*
X90827000Y-94019000D02*
X94087000Y-94019000D01*
X90827000Y-95719000D02*
X90827000Y-94019000D01*
X90827000Y-95719000D02*
X94087000Y-95719000D01*
X87749748Y-94134000D02*
X88272252Y-94134000D01*
X87749748Y-95604000D02*
X88272252Y-95604000D01*
X88111000Y-114961936D02*
X88111000Y-115416064D01*
X86641000Y-114961936D02*
X86641000Y-115416064D01*
X133791000Y-92904000D02*
X133791000Y-95564000D01*
X123571000Y-92904000D02*
X133791000Y-92904000D01*
X123571000Y-92904000D02*
X123571000Y-95564000D01*
X122301000Y-92904000D02*
X120971000Y-92904000D01*
X120971000Y-92904000D02*
X120971000Y-94234000D01*
X123571000Y-95564000D02*
X133791000Y-95564000D01*
X105891064Y-57504000D02*
X105436936Y-57504000D01*
X105891064Y-56034000D02*
X105436936Y-56034000D01*
D12*
X96673001Y-116774000D02*
X96673001Y-114489000D01*
X96673001Y-111949000D02*
X96673001Y-109784000D01*
X96673001Y-109784000D02*
X90073001Y-109784000D01*
X90073001Y-116784000D02*
X96673001Y-116784000D01*
X90073001Y-114489000D02*
X90073001Y-116774000D01*
X90073001Y-109784000D02*
X90073001Y-111949000D01*
D13*
X97537001Y-113254000D02*
G75*
G03*
X97537001Y-113254000I-100000J0D01*
G01*
D11*
X105129000Y-130582936D02*
X105129000Y-131037064D01*
X103659000Y-130582936D02*
X103659000Y-131037064D01*
X131251000Y-105084000D02*
X126051000Y-105084000D01*
X131251000Y-102484000D02*
X131251000Y-105084000D01*
X131251000Y-102484000D02*
X128651000Y-102484000D01*
X131251000Y-101214000D02*
X131251000Y-99884000D01*
X131251000Y-99884000D02*
X129921000Y-99884000D01*
X128651000Y-102484000D02*
X128651000Y-99884000D01*
X128651000Y-99884000D02*
X126051000Y-99884000D01*
X126051000Y-99884000D02*
X126051000Y-105084000D01*
X107415000Y-85878936D02*
X107415000Y-86333064D01*
X105945000Y-85878936D02*
X105945000Y-86333064D01*
D12*
X94199000Y-131198000D02*
X91859000Y-131198000D01*
X94199000Y-122548000D02*
X91859000Y-122548000D01*
D13*
X97179000Y-122773000D02*
G75*
G03*
X97179000Y-122773000I-100000J0D01*
G01*
%LPC*%
D14*
X104403101Y-97917000D03*
X112503100Y-98017076D03*
D15*
X106703101Y-93217078D03*
D16*
X76725001Y-73835477D03*
X76725001Y-61835501D03*
D17*
X74765001Y-64835500D03*
D18*
X74765001Y-67835499D03*
X74765001Y-70835498D03*
D19*
X112395000Y-49478000D03*
D20*
X86129001Y-49784000D03*
D21*
X88669001Y-49784000D03*
D20*
X100866001Y-49784000D03*
D21*
X103406001Y-49784000D03*
D22*
X72708802Y-124806924D03*
X81508802Y-124806924D03*
D23*
X74608802Y-131806924D03*
X77108802Y-131806924D03*
X79608802Y-131806924D03*
D14*
X104403101Y-112268000D03*
X112503100Y-112368076D03*
D15*
X106703101Y-107568078D03*
D22*
X72708802Y-143221924D03*
X81508802Y-143221924D03*
D23*
X74608802Y-150221924D03*
X77108802Y-150221924D03*
X79608802Y-150221924D03*
D24*
X87785001Y-156972000D03*
D14*
X104403101Y-126619000D03*
X112503100Y-126719076D03*
D15*
X106703101Y-121919078D03*
D25*
X91132324Y-87503000D03*
D26*
X96132324Y-87503000D03*
D24*
X97663000Y-156972000D03*
D27*
X72481801Y-52946000D03*
X73184745Y-51248944D03*
X73184745Y-54643056D03*
X74881801Y-50546000D03*
D28*
X74881801Y-52946000D03*
D27*
X74881801Y-55346000D03*
X76578857Y-51248944D03*
X76578857Y-54643056D03*
X77281801Y-52946000D03*
D14*
X104403101Y-84864061D03*
X112503100Y-84964137D03*
D15*
X106703101Y-80164139D03*
D29*
X110772001Y-62230000D03*
D23*
X110772001Y-64770000D03*
D16*
X100347023Y-74731000D03*
X112346999Y-74731000D03*
D30*
X109347000Y-72771000D03*
D18*
X106347001Y-72771000D03*
X103347002Y-72771000D03*
D14*
X104403101Y-155321000D03*
X112503100Y-155421076D03*
D15*
X106703101Y-150621078D03*
D31*
X99568000Y-63754000D03*
X93218000Y-63754000D03*
X99568000Y-56134000D03*
X93218000Y-56134000D03*
D14*
X104403101Y-140970000D03*
X112503100Y-141070076D03*
D15*
X106703101Y-136270078D03*
D22*
X72668802Y-87976924D03*
X81468802Y-87976924D03*
D23*
X74568802Y-94976924D03*
X77068802Y-94976924D03*
X79568802Y-94976924D03*
D29*
X110772001Y-54730000D03*
D23*
X110772001Y-57270000D03*
D22*
X72713802Y-106391924D03*
X81513802Y-106391924D03*
D23*
X74613802Y-113391924D03*
X77113802Y-113391924D03*
X79613802Y-113391924D03*
D27*
X72253201Y-158242000D03*
X72956145Y-156544944D03*
X72956145Y-159939056D03*
X74653201Y-155842000D03*
D28*
X74653201Y-158242000D03*
D27*
X74653201Y-160642000D03*
X76350257Y-156544944D03*
X76350257Y-159939056D03*
X77053201Y-158242000D03*
D25*
X86084400Y-74676000D03*
D26*
X91084400Y-74676000D03*
D32*
X129921000Y-155829000D03*
D21*
X127381000Y-155829000D03*
X129921000Y-158369000D03*
X127381000Y-158369000D03*
D33*
X98552000Y-112538000D03*
X98552000Y-114538000D03*
D32*
X129921000Y-56134000D03*
D21*
X127381000Y-56134000D03*
X129921000Y-58674000D03*
X127381000Y-58674000D03*
D34*
X85949801Y-126873000D03*
X88024801Y-126873000D03*
D35*
X93107000Y-118237000D03*
X95107000Y-118237000D03*
D36*
X96921000Y-107569000D03*
X99421000Y-107569000D03*
D37*
X98679000Y-101203000D03*
X98679000Y-99203000D03*
D38*
X122301000Y-148844000D03*
D21*
X124841000Y-148844000D03*
X127381000Y-148844000D03*
X129921000Y-148844000D03*
X132461000Y-148844000D03*
D39*
X96849600Y-132969000D03*
X99949600Y-132969000D03*
D40*
X106664000Y-62484000D03*
X104664000Y-62484000D03*
D33*
X86995000Y-130064000D03*
X86995000Y-132064000D03*
D38*
X122301000Y-65659000D03*
D21*
X124841000Y-65659000D03*
X127381000Y-65659000D03*
X129921000Y-65659000D03*
X132461000Y-65659000D03*
D38*
X122301000Y-120269000D03*
D21*
X124841000Y-120269000D03*
X127381000Y-120269000D03*
X129921000Y-120269000D03*
X132461000Y-120269000D03*
D41*
X95887601Y-101443000D03*
D42*
X93347601Y-98903000D03*
X90807601Y-101443000D03*
D43*
X97917000Y-127080100D03*
X97917000Y-129155100D03*
D32*
X129921000Y-110744000D03*
D21*
X127381000Y-110744000D03*
X129921000Y-113284000D03*
X127381000Y-113284000D03*
D34*
X91545500Y-107569000D03*
X93620500Y-107569000D03*
D33*
X101854000Y-128133600D03*
X101854000Y-130133600D03*
X101727000Y-97917000D03*
X101727000Y-99917000D03*
X106680000Y-112284000D03*
X106680000Y-114284000D03*
D44*
X90551000Y-142061000D03*
X90551000Y-145161000D03*
D36*
X91587000Y-94869000D03*
X94087000Y-94869000D03*
D34*
X86973500Y-94869000D03*
X89048500Y-94869000D03*
D33*
X87376000Y-114189000D03*
X87376000Y-116189000D03*
D38*
X122301000Y-94234000D03*
D21*
X124841000Y-94234000D03*
X127381000Y-94234000D03*
X129921000Y-94234000D03*
X132461000Y-94234000D03*
D40*
X106664000Y-56769000D03*
X104664000Y-56769000D03*
D41*
X95913001Y-113254000D03*
D42*
X93373001Y-110714000D03*
X90833001Y-113254000D03*
D33*
X104394000Y-129810000D03*
X104394000Y-131810000D03*
D32*
X129921000Y-101214000D03*
D21*
X127381000Y-101214000D03*
X129921000Y-103754000D03*
X127381000Y-103754000D03*
D33*
X106680000Y-85106000D03*
X106680000Y-87106000D03*
D45*
X95504000Y-123063000D03*
X95504000Y-124333000D03*
X95504000Y-125603000D03*
X95504000Y-126873000D03*
X95504000Y-128143000D03*
X95504000Y-129413000D03*
X95504000Y-130683000D03*
X90554000Y-130683000D03*
X90554000Y-129413000D03*
X90554000Y-128143000D03*
X90554000Y-126873000D03*
X90554000Y-125603000D03*
X90554000Y-124333000D03*
X90554000Y-123063000D03*
%LPD*%
M02*
